{
.appVersion = "1346";
DisplayStrings = (
<<<<<<< HEAD
"/w_w_w.liga"
=======
"",
"↑",
"",
"/asciitilde.alt01"
);
axes = (
{
name = Weight;
tag = wght;
}
>>>>>>> eaa9c86 (Remove junk)
);
classes = (
{
code = "a.alt01 aacute.alt01 abreve.alt01 acircumflex.alt01 adieresis.alt01 adotbelow.alt01 agrave.alt01 ahook.alt01 amacron.alt01 aogonek.alt01 aring.alt01 aringacute.alt01 atilde.alt01 abreveacute.alt01 abrevedotbelow.alt01 abrevegrave.alt01 abrevehook.alt01 abrevetilde.alt01 acircumflexacute.alt01 acircumflexdotbelow.alt01 acircumflexgrave.alt01 acircumflexhook.alt01 acircumflextilde.alt01";
name = lca_alt1;
},
{
code = "uni0430.alt01 uni04D3.alt01 uni04D1.alt01";
name = lca_cyrl_alt1;
},
{
code = "uni0430 uni04D3 uni04D1";
name = lca_cyrl_dflt;
},
{
code = "a aacute abreve acircumflex adieresis adotbelow agrave ahook amacron aogonek aring aringacute atilde abreveacute abrevedotbelow abrevegrave abrevehook abrevetilde acircumflexacute acircumflexdotbelow acircumflexgrave acircumflexhook acircumflextilde";
name = lca_dflt;
},
{
code = "g.alt01 gbreve.alt01 gcircumflex.alt01 gcommaaccent.alt01 gdotaccent.alt01";
name = lcg_alt1;
},
{
code = "g gbreve gcircumflex gcommaaccent gdotaccent";
name = lcg_dflt;
},
{
code = "zero one two three four five six seven eight nine";
name = numbers_dflt;
},
{
code = "zero.dnom one.dnom two.dnom three.dnom four.dnom five.dnom six.dnom seven.dnom eight.dnom nine.dnom";
name = numbers_dnom;
},
{
code = "zero.numr one.numr two.numr three.numr four.numr five.numr six.numr seven.numr eight.numr nine.numr";
name = numbers_numr;
},
{
code = "zeroinferior oneinferior twoinferior threeinferior fourinferior fiveinferior sixinferior seveninferior eightinferior nineinferior";
name = numbers_sinf;
},
{
code = "zerosuperior onesuperior twosuperior threesuperior foursuperior fivesuperior sixsuperior sevensuperior eightsuperior ninesuperior";
name = numbers_sups;
},
{
code = "@numbers_dflt a b c d e f A B C D E F";
name = numbers_hex;
}
);

glyphs = (
{
glyphname = .notdef;
layers = (
{
layerId = master01;
paths = (
{
closed = 1;
nodes = (
"1136 0 LINE",
"1136 1560 LINE",
"64 1560 LINE",
"64 0 LINE {name = hr00;}"
);
},
{
closed = 1;
nodes = (
"264 1360 LINE",
"936 1360 LINE",
"936 200 LINE",
"264 200 LINE"
);
}
);
vertWidth = 1560;
width = 1200;
},
{
layerId = master02;
paths = (
{
closed = 1;
nodes = (
"1136 0 LINE",
"1136 1560 LINE",
"64 1560 LINE",
"64 0 LINE {name = hr00;}"
);
},
{
closed = 1;
nodes = (
"184 1440 LINE",
"1016 1440 LINE",
"1016 120 LINE",
"184 120 LINE"
);
}
);
vertWidth = 1560;
width = 1200;
}
);
},
{
glyphname = a;
layers = (
{
anchors = (
{
name = b.cedillacomb;
position = "{283, 0}";
},
{
name = b.ogonekcomb;
position = "{550, 0}";
},
{
name = bottom;
position = "{584, 0}";
},
{
name = bottomright;
position = "{1144, 0}";
},
{
name = m.cedillacomb;
position = "{283, 0}";
},
{
name = m.ogonekcomb;
position = "{550, 0}";
},
{
name = m.tildecomb;
position = "{283, 516}";
},
{
name = t.tildecomb;
position = "{283, 516}";
},
{
name = top;
position = "{584, 1032}";
}
);
layerId = master01;
paths = (
{
closed = 1;
nodes = (
"1144 214 LINE",
"1030 214 LINE",
"1030 666 LINE SMOOTH",
"1030 926 OFFCURVE",
"862 1056 OFFCURVE",
"580 1056 CURVE SMOOTH",
"350 1056 OFFCURVE",
"200 970 OFFCURVE",
"132 854 CURVE",
"294 710 LINE",
"350 786 OFFCURVE",
"422 840 OFFCURVE",
"546 840 CURVE SMOOTH",
"682 840 OFFCURVE",
"734 776 OFFCURVE",
"734 654 CURVE SMOOTH",
"734 602 LINE",
"568 602 LINE SMOOTH",
"266 602 OFFCURVE",
"104 500 OFFCURVE",
"104 284 CURVE SMOOTH",
"104 90 OFFCURVE",
"236 -24 OFFCURVE",
"436 -24 CURVE SMOOTH {name = hr01;}",
"594 -24 OFFCURVE",
"714 48 OFFCURVE",
"750 182 CURVE",
"760 182 LINE",
"772 66 OFFCURVE",
"852 0 OFFCURVE",
"974 0 CURVE SMOOTH {name = hr02;}",
"1144 0 LINE"
);
},
{
closed = 1;
nodes = (
"454 170 OFFCURVE",
"394 208 OFFCURVE",
"394 280 CURVE SMOOTH",
"394 320 LINE SMOOTH",
"394 400 OFFCURVE",
"458 442 OFFCURVE",
"576 442 CURVE SMOOTH",
"734 442 LINE",
"734 318 LINE SMOOTH",
"734 222 OFFCURVE",
"652 170 OFFCURVE",
"548 170 CURVE SMOOTH {name = hr03;}"
);
}
);
vertWidth = 1560;
width = 1200;
},
{
anchors = (
{
name = b.cedillacomb;
position = "{283, 0}";
},
{
name = b.ogonekcomb;
position = "{550, 0}";
},
{
name = bottom;
position = "{566, 0}";
},
{
name = bottomright;
position = "{1100, 0}";
},
{
name = m.cedillacomb;
position = "{283, 0}";
},
{
name = m.ogonekcomb;
position = "{550, 0}";
},
{
name = m.tildecomb;
position = "{283, 516}";
},
{
name = t.tildecomb;
position = "{283, 516}";
},
{
name = top;
position = "{566, 1032}";
}
);
layerId = master02;
paths = (
{
closed = 1;
nodes = (
"1100 140 LINE",
"956 140 LINE",
"956 708 LINE SMOOTH",
"956 926 OFFCURVE",
"802 1056 OFFCURVE",
"560 1056 CURVE SMOOTH",
"350 1056 OFFCURVE",
"218 956 OFFCURVE",
"166 848 CURVE",
"274 768 LINE",
"328 862 OFFCURVE",
"412 920 OFFCURVE",
"550 920 CURVE SMOOTH",
"706 920 OFFCURVE",
"796 842 OFFCURVE",
"796 692 CURVE SMOOTH",
"796 590 LINE",
"576 590 LINE SMOOTH",
"266 590 OFFCURVE",
"132 480 OFFCURVE",
"132 290 CURVE SMOOTH",
"132 96 OFFCURVE",
"270 -24 OFFCURVE",
"486 -24 CURVE SMOOTH {name = hr01;}",
"654 -24 OFFCURVE",
"752 50 OFFCURVE",
"796 168 CURVE",
"806 168 LINE",
"818 72 OFFCURVE",
"866 0 OFFCURVE",
"990 0 CURVE SMOOTH {name = hr02;}",
"1100 0 LINE"
);
},
{
closed = 1;
nodes = (
"382 110 OFFCURVE",
"300 166 OFFCURVE",
"300 272 CURVE SMOOTH",
"300 314 LINE SMOOTH",
"300 414 OFFCURVE",
"386 470 OFFCURVE",
"576 470 CURVE SMOOTH",
"796 470 LINE",
"796 300 LINE SMOOTH",
"796 194 OFFCURVE",
"678 110 OFFCURVE",
"514 110 CURVE SMOOTH {name = hr03;}"
);
}
);
vertWidth = 1560;
width = 1200;
}
);
unicode = 0061;
},
{
glyphname = a.alt01;
layers = (
{
anchors = (
{
name = b.cedillacomb;
position = "{287, 0}";
},
{
name = b.ogonekcomb;
position = "{505, 0}";
},
{
name = bottom;
position = "{582, 0}";
},
{
name = bottomright;
position = "{1082, 0}";
},
{
name = m.cedillacomb;
position = "{287, 0}";
},
{
name = m.ogonekcomb;
position = "{505, 0}";
},
{
name = m.tildecomb;
position = "{287, 516}";
},
{
name = t.tildecomb;
position = "{287, 516}";
},
{
name = top;
position = "{582, 1032}";
}
);
layerId = master01;
paths = (
{
closed = 1;
nodes = (
"1082 0 LINE",
"1082 1032 LINE",
"786 1032 LINE",
"786 844 LINE",
"772 844 LINE",
"720 968 OFFCURVE",
"632 1056 OFFCURVE",
"466 1056 CURVE SMOOTH {name = hr01;}",
"238 1056 OFFCURVE",
"78 890 OFFCURVE",
"78 516 CURVE SMOOTH",
"78 142 OFFCURVE",
"238 -24 OFFCURVE",
"466 -24 CURVE SMOOTH",
"632 -24 OFFCURVE",
"720 64 OFFCURVE",
"772 188 CURVE {name = hr02;}",
"786 188 LINE",
"786 0 LINE"
);
},
{
closed = 1;
nodes = (
"462 206 OFFCURVE",
"386 292 OFFCURVE",
"386 436 CURVE SMOOTH",
"386 596 LINE",
"386 740 OFFCURVE",
"462 826 OFFCURVE",
"594 826 CURVE SMOOTH",
"698 826 OFFCURVE",
"786 776 OFFCURVE",
"786 668 CURVE",
"786 364 LINE",
"786 256 OFFCURVE",
"698 206 OFFCURVE",
"594 206 CURVE SMOOTH {name = hr03;}"
);
}
);
vertWidth = 1560;
width = 1200;
},
{
anchors = (
{
name = b.cedillacomb;
position = "{287, 0}";
},
{
name = b.ogonekcomb;
position = "{505, 0}";
},
{
name = bottom;
position = "{574, 0}";
},
{
name = bottomright;
position = "{1010, 0}";
},
{
name = m.cedillacomb;
position = "{287, 0}";
},
{
name = m.ogonekcomb;
position = "{505, 0}";
},
{
name = m.tildecomb;
position = "{287, 516}";
},
{
name = t.tildecomb;
position = "{287, 516}";
},
{
name = top;
position = "{574, 1032}";
}
);
layerId = master02;
paths = (
{
closed = 1;
nodes = (
"1010 0 LINE",
"1010 1032 LINE",
"850 1032 LINE",
"850 864 LINE",
"842 864 LINE",
"776 990 OFFCURVE",
"668 1056 OFFCURVE",
"524 1056 CURVE SMOOTH {name = hr01;}",
"272 1056 OFFCURVE",
"120 854 OFFCURVE",
"120 516 CURVE SMOOTH",
"120 178 OFFCURVE",
"272 -24 OFFCURVE",
"524 -24 CURVE SMOOTH",
"668 -24 OFFCURVE",
"776 42 OFFCURVE",
"842 168 CURVE {name = hr02;}",
"850 168 LINE",
"850 0 LINE"
);
},
{
closed = 1;
nodes = (
"400 118 OFFCURVE",
"292 242 OFFCURVE",
"292 428 CURVE SMOOTH",
"292 604 LINE SMOOTH",
"292 790 OFFCURVE",
"400 914 OFFCURVE",
"586 914 CURVE SMOOTH",
"728 914 OFFCURVE",
"850 840 OFFCURVE",
"850 702 CURVE",
"850 330 LINE",
"850 192 OFFCURVE",
"728 118 OFFCURVE",
"586 118 CURVE SMOOTH {name = hr03;}"
);
}
);
vertWidth = 1560;
width = 1200;
}
);
},
{
glyphname = b;
layers = (
{
anchors = (
{
name = b.cedillacomb;
position = "{317, 0}";
},
{
name = bottom;
position = "{620, 0}";
},
{
name = m.cedillacomb;
position = "{317, 0}";
}
);
layerId = master01;
paths = (
{
closed = 1;
nodes = (
"414 0 LINE",
"414 188 LINE",
"428 188 LINE",
"480 64 OFFCURVE",
"568 -24 OFFCURVE",
"734 -24 CURVE SMOOTH {name = hr01;}",
"962 -24 OFFCURVE",
"1122 142 OFFCURVE",
"1122 516 CURVE SMOOTH",
"1122 890 OFFCURVE",
"962 1056 OFFCURVE",
"734 1056 CURVE SMOOTH",
"568 1056 OFFCURVE",
"480 968 OFFCURVE",
"428 844 CURVE",
"414 844 LINE",
"414 1480 LINE {name = hr02;}",
"118 1480 LINE",
"118 0 LINE"
);
},
{
closed = 1;
nodes = (
"502 206 OFFCURVE",
"414 256 OFFCURVE",
"414 364 CURVE",
"414 668 LINE",
"414 776 OFFCURVE",
"502 826 OFFCURVE",
"606 826 CURVE SMOOTH",
"738 826 OFFCURVE",
"814 740 OFFCURVE",
"814 596 CURVE SMOOTH",
"814 436 LINE",
"814 292 OFFCURVE",
"738 206 OFFCURVE",
"606 206 CURVE SMOOTH {name = hr03;}"
);
}
);
vertWidth = 1560;
width = 1200;
},
{
anchors = (
{
name = b.cedillacomb;
position = "{317, 0}";
},
{
name = bottom;
position = "{634, 0}";
},
{
name = m.cedillacomb;
position = "{317, 0}";
}
);
layerId = master02;
paths = (
{
closed = 1;
nodes = (
"350 0 LINE",
"350 168 LINE",
"358 168 LINE",
"424 42 OFFCURVE",
"532 -24 OFFCURVE",
"676 -24 CURVE SMOOTH {name = hr01;}",
"928 -24 OFFCURVE",
"1080 178 OFFCURVE",
"1080 516 CURVE SMOOTH",
"1080 854 OFFCURVE",
"928 1056 OFFCURVE",
"676 1056 CURVE SMOOTH",
"532 1056 OFFCURVE",
"424 990 OFFCURVE",
"358 864 CURVE",
"350 864 LINE",
"350 1480 LINE {name = hr02;}",
"190 1480 LINE",
"190 0 LINE"
);
},
{
closed = 1;
nodes = (
"472 118 OFFCURVE",
"350 192 OFFCURVE",
"350 330 CURVE",
"350 702 LINE",
"350 840 OFFCURVE",
"472 914 OFFCURVE",
"614 914 CURVE SMOOTH",
"800 914 OFFCURVE",
"908 790 OFFCURVE",
"908 604 CURVE SMOOTH",
"908 428 LINE SMOOTH",
"908 242 OFFCURVE",
"800 118 OFFCURVE",
"614 118 CURVE SMOOTH {name = hr03;}"
);
}
);
vertWidth = 1560;
width = 1200;
}
);
unicode = 0062;
},
{
glyphname = c;
layers = (
{
anchors = (
{
name = b.cedillacomb;
position = "{303, 0}";
},
{
name = bottom;
position = "{602, 0}";
},
{
name = m.cedillacomb;
position = "{303, 0}";
},
{
name = m.tildecomb;
position = "{313, 516}";
},
{
name = t.tildecomb;
position = "{313, 516}";
},
{
name = top;
position = "{628, 1032}";
}
);
layerId = master01;
paths = (
{
closed = 1;
nodes = (
"872 -24 OFFCURVE",
"1012 78 OFFCURVE",
"1086 228 CURVE",
"862 356 LINE",
"818 272 OFFCURVE",
"758 212 OFFCURVE",
"644 212 CURVE SMOOTH",
"504 212 OFFCURVE",
"428 296 OFFCURVE",
"428 432 CURVE SMOOTH",
"428 600 LINE SMOOTH",
"428 736 OFFCURVE",
"506 820 OFFCURVE",
"640 820 CURVE SMOOTH",
"750 820 OFFCURVE",
"806 760 OFFCURVE",
"842 680 CURVE",
"1070 804 LINE",
"998 954 OFFCURVE",
"866 1056 OFFCURVE",
"640 1056 CURVE SMOOTH",
"318 1056 OFFCURVE",
"120 850 OFFCURVE",
"120 516 CURVE SMOOTH",
"120 182 OFFCURVE",
"316 -24 OFFCURVE",
"642 -24 CURVE SMOOTH {name = hr00;}"
);
}
);
vertWidth = 1560;
width = 1200;
},
{
anchors = (
{
name = b.cedillacomb;
position = "{303, 0}";
},
{
name = bottom;
position = "{606, 0}";
},
{
name = m.cedillacomb;
position = "{303, 0}";
},
{
name = m.tildecomb;
position = "{313, 516}";
},
{
name = t.tildecomb;
position = "{313, 516}";
},
{
name = top;
position = "{626, 1032}";
}
);
layerId = master02;
paths = (
{
closed = 1;
nodes = (
"842 -24 OFFCURVE",
"972 78 OFFCURVE",
"1032 216 CURVE",
"918 294 LINE",
"866 182 OFFCURVE",
"776 114 OFFCURVE",
"638 114 CURVE SMOOTH",
"444 114 OFFCURVE",
"340 246 OFFCURVE",
"340 428 CURVE SMOOTH",
"340 604 LINE SMOOTH",
"340 786 OFFCURVE",
"446 918 OFFCURVE",
"634 918 CURVE SMOOTH",
"762 918 OFFCURVE",
"850 856 OFFCURVE",
"888 750 CURVE",
"1016 818 LINE",
"958 958 OFFCURVE",
"834 1056 OFFCURVE",
"634 1056 CURVE SMOOTH",
"342 1056 OFFCURVE",
"168 844 OFFCURVE",
"168 516 CURVE SMOOTH",
"168 190 OFFCURVE",
"340 -24 OFFCURVE",
"636 -24 CURVE SMOOTH {name = hr00;}"
);
}
);
vertWidth = 1560;
width = 1200;
}
);
unicode = 0063;
},
{
glyphname = d;
layers = (
{
anchors = (
{
name = b.cedillacomb;
position = "{282, 0}";
},
{
name = bottom;
position = "{580, 0}";
},
{
name = m.caronslovakcomb;
position = "{567, 740}";
},
{
name = m.cedillacomb;
position = "{282, 0}";
},
{
name = t.caronslovakcomb;
position = "{567, 740}";
},
{
name = topright;
position = "{1184, 1480}";
}
);
layerId = master01;
paths = (
{
closed = 1;
nodes = (
"1082 0 LINE",
"1082 1480 LINE",
"786 1480 LINE",
"786 844 LINE",
"772 844 LINE",
"720 968 OFFCURVE",
"632 1056 OFFCURVE",
"466 1056 CURVE SMOOTH",
"238 1056 OFFCURVE",
"78 890 OFFCURVE",
"78 516 CURVE SMOOTH",
"78 142 OFFCURVE",
"238 -24 OFFCURVE",
"466 -24 CURVE SMOOTH {name = hr01;}",
"632 -24 OFFCURVE",
"720 64 OFFCURVE",
"772 188 CURVE {name = hr02;}",
"786 188 LINE",
"786 0 LINE"
);
},
{
closed = 1;
nodes = (
"462 206 OFFCURVE",
"386 292 OFFCURVE",
"386 436 CURVE SMOOTH",
"386 596 LINE",
"386 740 OFFCURVE",
"462 826 OFFCURVE",
"594 826 CURVE SMOOTH",
"698 826 OFFCURVE",
"786 776 OFFCURVE",
"786 668 CURVE",
"786 364 LINE",
"786 256 OFFCURVE",
"698 206 OFFCURVE",
"594 206 CURVE SMOOTH {name = hr03;}"
);
}
);
vertWidth = 1560;
width = 1200;
},
{
anchors = (
{
name = b.cedillacomb;
position = "{282, 0}";
},
{
name = bottom;
position = "{564, 0}";
},
{
name = m.caronslovakcomb;
position = "{567, 740}";
},
{
name = m.cedillacomb;
position = "{282, 0}";
},
{
name = t.caronslovakcomb;
position = "{567, 740}";
},
{
name = topright;
position = "{1134, 1480}";
}
);
layerId = master02;
paths = (
{
closed = 1;
nodes = (
"1010 0 LINE",
"1010 1480 LINE",
"850 1480 LINE",
"850 864 LINE",
"842 864 LINE",
"776 990 OFFCURVE",
"668 1056 OFFCURVE",
"524 1056 CURVE SMOOTH",
"272 1056 OFFCURVE",
"120 854 OFFCURVE",
"120 516 CURVE SMOOTH",
"120 178 OFFCURVE",
"272 -24 OFFCURVE",
"524 -24 CURVE SMOOTH {name = hr01;}",
"668 -24 OFFCURVE",
"776 42 OFFCURVE",
"842 168 CURVE {name = hr02;}",
"850 168 LINE",
"850 0 LINE"
);
},
{
closed = 1;
nodes = (
"400 118 OFFCURVE",
"292 242 OFFCURVE",
"292 428 CURVE SMOOTH",
"292 604 LINE SMOOTH",
"292 790 OFFCURVE",
"400 914 OFFCURVE",
"586 914 CURVE SMOOTH",
"728 914 OFFCURVE",
"850 840 OFFCURVE",
"850 702 CURVE",
"850 330 LINE",
"850 192 OFFCURVE",
"728 118 OFFCURVE",
"586 118 CURVE SMOOTH {name = hr03;}"
);
}
);
vertWidth = 1560;
width = 1200;
}
);
unicode = 0064;
},
{
glyphname = e;
layers = (
{
anchors = (
{
name = b.cedillacomb;
position = "{309, 0}";
},
{
name = b.ogonekcomb;
position = "{391, 0}";
},
{
name = bottom;
position = "{612, 0}";
},
{
name = bottomright;
position = "{818, 0}";
},
{
name = m.cedillacomb;
position = "{309, 0}";
},
{
name = m.ogonekcomb;
position = "{391, 0}";
},
{
name = m.tildecomb;
position = "{302, 516}";
},
{
name = t.tildecomb;
position = "{302, 516}";
},
{
name = top;
position = "{602, 1032}";
}
);
layerId = master01;
paths = (
{
closed = 1;
nodes = (
"850 -24 OFFCURVE",
"990 60 OFFCURVE",
"1070 158 CURVE",
"910 332 LINE",
"846 256 OFFCURVE",
"760 204 OFFCURVE",
"638 204 CURVE SMOOTH",
"480 204 OFFCURVE",
"394 294 OFFCURVE",
"394 426 CURVE SMOOTH",
"394 444 LINE",
"1100 444 LINE",
"1100 532 LINE SMOOTH",
"1100 854 OFFCURVE",
"910 1056 OFFCURVE",
"602 1056 CURVE SMOOTH",
"292 1056 OFFCURVE",
"100 850 OFFCURVE",
"100 512 CURVE SMOOTH",
"100 182 OFFCURVE",
"282 -24 OFFCURVE",
"628 -24 CURVE SMOOTH {name = hr00;}"
);
},
{
closed = 1;
nodes = (
"732 844 OFFCURVE",
"810 760 OFFCURVE",
"810 626 CURVE SMOOTH",
"810 610 LINE",
"394 610 LINE",
"394 626 LINE SMOOTH",
"394 758 OFFCURVE",
"476 844 OFFCURVE",
"604 844 CURVE SMOOTH"
);
}
);
vertWidth = 1560;
width = 1200;
},
{
anchors = (
{
name = b.cedillacomb;
position = "{309, 0}";
},
{
name = b.ogonekcomb;
position = "{391, 0}";
},
{
name = bottom;
position = "{618, 0}";
},
{
name = bottomright;
position = "{782, 0}";
},
{
name = m.cedillacomb;
position = "{309, 0}";
},
{
name = m.ogonekcomb;
position = "{391, 0}";
},
{
name = m.tildecomb;
position = "{302, 516}";
},
{
name = t.tildecomb;
position = "{302, 516}";
},
{
name = top;
position = "{604, 1032}";
}
);
layerId = master02;
paths = (
{
closed = 1;
nodes = (
"822 -24 OFFCURVE",
"970 76 OFFCURVE",
"1032 214 CURVE",
"914 294 LINE",
"860 182 OFFCURVE",
"756 114 OFFCURVE",
"618 114 CURVE SMOOTH",
"424 114 OFFCURVE",
"302 246 OFFCURVE",
"302 428 CURVE SMOOTH",
"302 476 LINE",
"1066 476 LINE",
"1066 552 LINE SMOOTH",
"1066 844 OFFCURVE",
"886 1056 OFFCURVE",
"608 1056 CURVE SMOOTH",
"328 1056 OFFCURVE",
"134 844 OFFCURVE",
"134 514 CURVE SMOOTH",
"134 188 OFFCURVE",
"322 -24 OFFCURVE",
"618 -24 CURVE SMOOTH {name = hr00;}"
);
},
{
closed = 1;
nodes = (
"778 924 OFFCURVE",
"894 800 OFFCURVE",
"894 618 CURVE SMOOTH",
"894 596 LINE",
"302 596 LINE",
"302 610 LINE SMOOTH",
"302 790 OFFCURVE",
"432 924 OFFCURVE",
"608 924 CURVE SMOOTH"
);
}
);
vertWidth = 1560;
width = 1200;
}
);
unicode = 0065;
},
{
glyphname = f;
layers = (
{
anchors = (
{
name = b.cedillacomb;
position = "{308, 0}";
},
{
name = bottom;
position = "{594, 0}";
},
{
name = m.cedillacomb;
position = "{308, 0}";
}
);
layerId = master01;
paths = (
{
closed = 1;
nodes = (
"1066 0 LINE",
"1066 230 LINE",
"742 230 LINE",
"742 802 LINE",
"1112 802 LINE",
"1112 1032 LINE",
"742 1032 LINE",
"742 1250 LINE",
"1112 1250 LINE",
"1112 1480 LINE",
"762 1480 LINE SMOOTH",
"546 1480 OFFCURVE",
"446 1356 OFFCURVE",
"446 1182 CURVE SMOOTH",
"446 1032 LINE",
"122 1032 LINE",
"122 802 LINE",
"446 802 LINE",
"446 230 LINE",
"142 230 LINE",
"142 0 LINE {name = hr00;}"
);
}
);
vertWidth = 1560;
width = 1200;
},
{
anchors = (
{
name = b.cedillacomb;
position = "{308, 0}";
},
{
name = bottom;
position = "{616, 0}";
},
{
name = m.cedillacomb;
position = "{308, 0}";
}
);
layerId = master02;
paths = (
{
closed = 1;
nodes = (
"1042 0 LINE",
"1042 136 LINE",
"674 136 LINE",
"674 896 LINE",
"1088 896 LINE",
"1088 1032 LINE",
"674 1032 LINE",
"674 1344 LINE",
"1088 1344 LINE",
"1088 1480 LINE",
"742 1480 LINE SMOOTH",
"586 1480 OFFCURVE",
"514 1382 OFFCURVE",
"514 1244 CURVE SMOOTH",
"514 1032 LINE",
"146 1032 LINE",
"146 896 LINE",
"514 896 LINE",
"514 136 LINE",
"166 136 LINE",
"166 0 LINE {name = hr00;}"
);
}
);
vertWidth = 1560;
width = 1200;
}
);
unicode = 0066;
},
{
glyphname = g;
layers = (
{
anchors = (
{
name = m.tildecomb;
position = "{297, 516}";
},
{
name = t.tildecomb;
position = "{297, 516}";
},
{
name = top;
position = "{588, 1032}";
}
);
layerId = master01;
paths = (
{
closed = 1;
nodes = (
"1166 70 OFFCURVE",
"1052 194 OFFCURVE",
"756 194 CURVE SMOOTH",
"520 194 LINE SMOOTH",
"438 194 OFFCURVE",
"368 198 OFFCURVE",
"368 264 CURVE SMOOTH",
"368 300 OFFCURVE",
"390 324 OFFCURVE",
"420 340 CURVE {name = hr01;}",
"470 326 OFFCURVE",
"528 320 OFFCURVE",
"588 320 CURVE SMOOTH",
"860 320 OFFCURVE",
"1040 450 OFFCURVE",
"1040 688 CURVE SMOOTH",
"1040 834 OFFCURVE",
"974 938 OFFCURVE",
"862 996 CURVE",
"862 1014 LINE",
"1110 1014 LINE",
"1110 1230 LINE",
"928 1230 LINE SMOOTH",
"830 1230 OFFCURVE",
"770 1170 OFFCURVE",
"770 1090 CURVE SMOOTH",
"770 1034 LINE",
"716 1048 OFFCURVE",
"654 1056 OFFCURVE",
"588 1056 CURVE SMOOTH {name = hr02;}",
"318 1056 OFFCURVE",
"140 928 OFFCURVE",
"140 688 CURVE SMOOTH",
"140 536 OFFCURVE",
"212 428 OFFCURVE",
"334 370 CURVE",
"334 358 LINE",
"222 332 OFFCURVE",
"148 290 OFFCURVE",
"148 190 CURVE SMOOTH {name = hr03;}",
"148 100 OFFCURVE",
"204 54 OFFCURVE",
"292 28 CURVE",
"292 16 LINE",
"168 -16 OFFCURVE",
"94 -70 OFFCURVE",
"94 -186 CURVE SMOOTH {name = hr04;}",
"94 -326 OFFCURVE",
"202 -424 OFFCURVE",
"594 -424 CURVE SMOOTH",
"986 -424 OFFCURVE",
"1166 -322 OFFCURVE",
"1166 -104 CURVE SMOOTH"
);
},
{
closed = 1;
nodes = (
"886 -196 OFFCURVE",
"826 -234 OFFCURVE",
"692 -234 CURVE SMOOTH",
"518 -234 LINE SMOOTH",
"388 -234 OFFCURVE",
"338 -188 OFFCURVE",
"338 -124 CURVE SMOOTH",
"338 -90 OFFCURVE",
"352 -62 OFFCURVE",
"378 -40 CURVE",
"732 -40 LINE SMOOTH",
"852 -40 OFFCURVE",
"886 -72 OFFCURVE",
"886 -126 CURVE SMOOTH"
);
},
{
closed = 1;
nodes = (
"472 508 OFFCURVE",
"420 574 OFFCURVE",
"420 664 CURVE SMOOTH {name = hr05;}",
"420 712 LINE",
"420 802 OFFCURVE",
"472 868 OFFCURVE",
"588 868 CURVE SMOOTH",
"706 868 OFFCURVE",
"760 802 OFFCURVE",
"760 712 CURVE SMOOTH",
"760 664 LINE SMOOTH",
"760 574 OFFCURVE",
"706 508 OFFCURVE",
"588 508 CURVE SMOOTH"
);
}
);
vertWidth = 1560;
width = 1200;
},
{
anchors = (
{
name = m.tildecomb;
position = "{297, 516}";
},
{
name = t.tildecomb;
position = "{297, 516}";
},
{
name = top;
position = "{594, 1032}";
}
);
layerId = master02;
paths = (
{
closed = 1;
nodes = (
"1122 50 OFFCURVE",
"1008 158 OFFCURVE",
"742 158 CURVE SMOOTH",
"514 158 LINE SMOOTH",
"416 158 OFFCURVE",
"348 172 OFFCURVE",
"348 234 CURVE SMOOTH",
"348 304 OFFCURVE",
"434 340 OFFCURVE",
"496 352 CURVE",
"528 346 OFFCURVE",
"560 344 OFFCURVE",
"594 344 CURVE SMOOTH",
"836 344 OFFCURVE",
"996 490 OFFCURVE",
"996 700 CURVE SMOOTH {name = hr01;}",
"996 808 OFFCURVE",
"954 898 OFFCURVE",
"880 962 CURVE",
"880 1032 LINE",
"1112 1032 LINE",
"1112 1172 LINE",
"922 1172 LINE SMOOTH",
"832 1172 OFFCURVE",
"798 1112 OFFCURVE",
"798 1032 CURVE SMOOTH",
"798 1014 LINE",
"740 1042 OFFCURVE",
"672 1056 OFFCURVE",
"594 1056 CURVE SMOOTH {name = hr02;}",
"352 1056 OFFCURVE",
"194 910 OFFCURVE",
"194 700 CURVE SMOOTH",
"194 554 OFFCURVE",
"270 440 OFFCURVE",
"396 384 CURVE",
"396 376 LINE",
"290 350 OFFCURVE",
"210 302 OFFCURVE",
"210 196 CURVE SMOOTH {name = hr03;}",
"210 126 OFFCURVE",
"244 82 OFFCURVE",
"302 54 CURVE",
"302 30 LINE",
"196 2 OFFCURVE",
"134 -58 OFFCURVE",
"134 -168 CURVE SMOOTH {name = hr04;}",
"134 -332 OFFCURVE",
"270 -424 OFFCURVE",
"602 -424 CURVE SMOOTH",
"946 -424 OFFCURVE",
"1122 -326 OFFCURVE",
"1122 -118 CURVE SMOOTH"
);
},
{
closed = 1;
nodes = (
"972 -238 OFFCURVE",
"862 -296 OFFCURVE",
"676 -296 CURVE SMOOTH",
"520 -296 LINE SMOOTH",
"352 -296 OFFCURVE",
"286 -220 OFFCURVE",
"286 -130 CURVE SMOOTH",
"286 -64 OFFCURVE",
"322 -18 OFFCURVE",
"390 10 CURVE",
"748 10 LINE SMOOTH",
"914 10 OFFCURVE",
"972 -44 OFFCURVE",
"972 -126 CURVE SMOOTH"
);
},
{
closed = 1;
nodes = (
"436 468 OFFCURVE",
"362 550 OFFCURVE",
"362 672 CURVE SMOOTH {name = hr05;}",
"362 730 LINE SMOOTH",
"362 852 OFFCURVE",
"436 932 OFFCURVE",
"594 932 CURVE SMOOTH",
"754 932 OFFCURVE",
"828 852 OFFCURVE",
"828 730 CURVE SMOOTH",
"828 672 LINE SMOOTH",
"828 550 OFFCURVE",
"754 468 OFFCURVE",
"594 468 CURVE SMOOTH"
);
}
);
vertWidth = 1560;
width = 1200;
}
);
unicode = 0067;
},
{
glyphname = g.alt01;
layers = (
{
anchors = (
{
name = m.tildecomb;
position = "{287, 516}";
},
{
name = t.tildecomb;
position = "{287, 516}";
},
{
name = top;
position = "{582, 1032}";
}
);
layerId = master01;
paths = (
{
closed = 1;
nodes = (
"786 1032 LINE",
"786 844 LINE",
"772 844 LINE",
"720 968 OFFCURVE",
"632 1056 OFFCURVE",
"466 1056 CURVE SMOOTH {name = hr01;}",
"238 1056 OFFCURVE",
"78 888 OFFCURVE",
"78 542 CURVE SMOOTH",
"78 196 OFFCURVE",
"238 28 OFFCURVE",
"466 28 CURVE SMOOTH",
"632 28 OFFCURVE",
"720 118 OFFCURVE",
"772 242 CURVE",
"786 242 LINE",
"786 36 LINE SMOOTH",
"786 -106 OFFCURVE",
"712 -192 OFFCURVE",
"552 -192 CURVE SMOOTH",
"450 -192 OFFCURVE",
"366 -156 OFFCURVE",
"298 -86 CURVE",
"140 -274 LINE",
"222 -360 OFFCURVE",
"354 -424 OFFCURVE",
"560 -424 CURVE SMOOTH {name = hr02;}",
"906 -424 OFFCURVE",
"1082 -244 OFFCURVE",
"1082 62 CURVE SMOOTH",
"1082 1032 LINE"
);
},
{
closed = 1;
nodes = (
"462 258 OFFCURVE",
"386 346 OFFCURVE",
"386 490 CURVE SMOOTH",
"386 596 LINE",
"386 740 OFFCURVE",
"462 826 OFFCURVE",
"594 826 CURVE SMOOTH {name = hr03;}",
"698 826 OFFCURVE",
"786 776 OFFCURVE",
"786 668 CURVE",
"786 416 LINE",
"786 308 OFFCURVE",
"698 258 OFFCURVE",
"594 258 CURVE SMOOTH"
);
}
);
vertWidth = 1560;
width = 1200;
},
{
anchors = (
{
name = m.tildecomb;
position = "{287, 516}";
},
{
name = t.tildecomb;
position = "{287, 516}";
},
{
name = top;
position = "{574, 1032}";
}
);
layerId = master02;
paths = (
{
closed = 1;
nodes = (
"850 1032 LINE",
"850 864 LINE",
"842 864 LINE",
"776 990 OFFCURVE",
"668 1056 OFFCURVE",
"524 1056 CURVE SMOOTH {name = hr01;}",
"272 1056 OFFCURVE",
"120 854 OFFCURVE",
"120 530 CURVE SMOOTH",
"120 206 OFFCURVE",
"272 4 OFFCURVE",
"524 4 CURVE SMOOTH",
"668 4 OFFCURVE",
"776 70 OFFCURVE",
"842 196 CURVE",
"850 196 LINE",
"850 24 LINE SMOOTH",
"850 -180 OFFCURVE",
"752 -284 OFFCURVE",
"558 -284 CURVE SMOOTH",
"440 -284 OFFCURVE",
"350 -244 OFFCURVE",
"280 -172 CURVE",
"186 -282 LINE",
"268 -366 OFFCURVE",
"388 -424 OFFCURVE",
"556 -424 CURVE SMOOTH {name = hr02;}",
"844 -424 OFFCURVE",
"1010 -250 OFFCURVE",
"1010 34 CURVE SMOOTH",
"1010 1032 LINE"
);
},
{
closed = 1;
nodes = (
"400 146 OFFCURVE",
"292 270 OFFCURVE",
"292 456 CURVE SMOOTH",
"292 604 LINE SMOOTH",
"292 790 OFFCURVE",
"400 914 OFFCURVE",
"586 914 CURVE SMOOTH {name = hr03;}",
"728 914 OFFCURVE",
"850 840 OFFCURVE",
"850 702 CURVE",
"850 358 LINE",
"850 220 OFFCURVE",
"728 146 OFFCURVE",
"586 146 CURVE SMOOTH"
);
}
);
vertWidth = 1560;
width = 1200;
}
);
},
{
glyphname = g.alt02;
layers = (
{
anchors = (
{
name = m.tildecomb;
position = "{300, 516}";
},
{
name = t.tildecomb;
position = "{300, 516}";
},
{
name = top;
position = "{592, 1032}";
}
);
layerId = master01;
paths = (
{
closed = 1;
nodes = (
"986 -424 OFFCURVE",
"1166 -322 OFFCURVE",
"1166 -104 CURVE SMOOTH",
"1166 70 OFFCURVE",
"1052 194 OFFCURVE",
"756 194 CURVE SMOOTH",
"520 194 LINE SMOOTH",
"438 194 OFFCURVE",
"368 198 OFFCURVE",
"368 264 CURVE SMOOTH",
"368 300 OFFCURVE",
"390 324 OFFCURVE",
"420 340 CURVE {name = hr01;}",
"470 326 OFFCURVE",
"528 320 OFFCURVE",
"588 320 CURVE SMOOTH",
"860 320 OFFCURVE",
"1040 452 OFFCURVE",
"1040 684 CURVE SMOOTH",
"1040 746 OFFCURVE",
"1028 794 OFFCURVE",
"996 836 CURVE",
"1162 836 LINE",
"1162 1032 LINE",
"774 1032 LINE",
"720 1048 OFFCURVE",
"658 1056 OFFCURVE",
"592 1056 CURVE SMOOTH {name = hr02;}",
"318 1056 OFFCURVE",
"140 928 OFFCURVE",
"140 690 CURVE SMOOTH",
"140 538 OFFCURVE",
"212 430 OFFCURVE",
"334 370 CURVE",
"334 358 LINE",
"222 332 OFFCURVE",
"148 290 OFFCURVE",
"148 190 CURVE SMOOTH {name = hr03;}",
"148 100 OFFCURVE",
"204 54 OFFCURVE",
"292 28 CURVE",
"292 16 LINE",
"168 -16 OFFCURVE",
"94 -70 OFFCURVE",
"94 -186 CURVE SMOOTH {name = hr04;}",
"94 -326 OFFCURVE",
"202 -424 OFFCURVE",
"594 -424 CURVE SMOOTH"
);
},
{
closed = 1;
nodes = (
"472 508 OFFCURVE",
"420 574 OFFCURVE",
"420 664 CURVE SMOOTH {name = hr05;}",
"420 712 LINE SMOOTH",
"420 802 OFFCURVE",
"472 868 OFFCURVE",
"588 868 CURVE SMOOTH",
"706 868 OFFCURVE",
"760 802 OFFCURVE",
"760 712 CURVE SMOOTH",
"760 664 LINE SMOOTH",
"760 574 OFFCURVE",
"706 508 OFFCURVE",
"588 508 CURVE SMOOTH"
);
},
{
closed = 1;
nodes = (
"886 -196 OFFCURVE",
"826 -234 OFFCURVE",
"692 -234 CURVE SMOOTH",
"518 -234 LINE SMOOTH",
"388 -234 OFFCURVE",
"338 -188 OFFCURVE",
"338 -124 CURVE SMOOTH",
"338 -90 OFFCURVE",
"352 -62 OFFCURVE",
"378 -40 CURVE",
"732 -40 LINE SMOOTH",
"852 -40 OFFCURVE",
"886 -72 OFFCURVE",
"886 -126 CURVE SMOOTH {name = hr06;}"
);
}
);
vertWidth = 1560;
width = 1200;
},
{
anchors = (
{
name = m.tildecomb;
position = "{300, 516}";
},
{
name = t.tildecomb;
position = "{300, 516}";
},
{
name = top;
position = "{600, 1032}";
}
);
layerId = master02;
paths = (
{
closed = 1;
nodes = (
"946 -424 OFFCURVE",
"1122 -326 OFFCURVE",
"1122 -118 CURVE SMOOTH",
"1122 50 OFFCURVE",
"1008 158 OFFCURVE",
"742 158 CURVE SMOOTH",
"514 158 LINE SMOOTH",
"416 158 OFFCURVE",
"348 172 OFFCURVE",
"348 234 CURVE SMOOTH",
"348 304 OFFCURVE",
"434 340 OFFCURVE",
"496 352 CURVE",
"528 346 OFFCURVE",
"560 344 OFFCURVE",
"594 344 CURVE SMOOTH",
"836 344 OFFCURVE",
"996 490 OFFCURVE",
"996 700 CURVE SMOOTH {name = hr01;}",
"996 776 OFFCURVE",
"974 850 OFFCURVE",
"924 904 CURVE",
"1112 904 LINE",
"1112 1032 LINE",
"750 1032 LINE",
"704 1048 OFFCURVE",
"652 1056 OFFCURVE",
"594 1056 CURVE SMOOTH {name = hr02;}",
"352 1056 OFFCURVE",
"194 910 OFFCURVE",
"194 700 CURVE SMOOTH",
"194 554 OFFCURVE",
"270 440 OFFCURVE",
"396 384 CURVE",
"396 376 LINE",
"290 350 OFFCURVE",
"210 302 OFFCURVE",
"210 196 CURVE SMOOTH {name = hr03;}",
"210 126 OFFCURVE",
"244 82 OFFCURVE",
"302 54 CURVE",
"302 30 LINE",
"196 2 OFFCURVE",
"134 -58 OFFCURVE",
"134 -168 CURVE SMOOTH {name = hr04;}",
"134 -332 OFFCURVE",
"270 -424 OFFCURVE",
"602 -424 CURVE SMOOTH"
);
},
{
closed = 1;
nodes = (
"436 468 OFFCURVE",
"362 550 OFFCURVE",
"362 672 CURVE SMOOTH {name = hr05;}",
"362 730 LINE SMOOTH",
"362 852 OFFCURVE",
"436 932 OFFCURVE",
"594 932 CURVE SMOOTH",
"754 932 OFFCURVE",
"828 852 OFFCURVE",
"828 730 CURVE SMOOTH",
"828 672 LINE SMOOTH",
"828 550 OFFCURVE",
"754 468 OFFCURVE",
"594 468 CURVE SMOOTH"
);
},
{
closed = 1;
nodes = (
"972 -238 OFFCURVE",
"862 -296 OFFCURVE",
"676 -296 CURVE SMOOTH",
"520 -296 LINE SMOOTH",
"352 -296 OFFCURVE",
"286 -220 OFFCURVE",
"286 -130 CURVE SMOOTH",
"286 -64 OFFCURVE",
"322 -18 OFFCURVE",
"390 10 CURVE",
"748 10 LINE SMOOTH",
"914 10 OFFCURVE",
"972 -44 OFFCURVE",
"972 -126 CURVE SMOOTH {name = hr06;}"
);
}
);
vertWidth = 1560;
width = 1200;
}
);
},
{
glyphname = h;
layers = (
{
anchors = (
{
name = b.cedillacomb;
position = "{303, 0}";
},
{
name = bottom;
position = "{604, 0}";
},
{
name = m.cedillacomb;
position = "{303, 0}";
},
{
name = m.tildecomb;
position = "{138, 698}";
},
{
name = t.tildecomb;
position = "{138, 698}";
},
{
name = top;
position = "{278, 1396}";
}
);
layerId = master01;
paths = (
{
closed = 1;
nodes = (
"426 0 LINE",
"426 678 LINE",
"426 778 OFFCURVE",
"516 828 OFFCURVE",
"608 828 CURVE SMOOTH",
"724 828 OFFCURVE",
"782 758 OFFCURVE",
"782 628 CURVE SMOOTH",
"782 0 LINE",
"1078 0 LINE",
"1078 668 LINE SMOOTH",
"1078 918 OFFCURVE",
"940 1056 OFFCURVE",
"742 1056 CURVE SMOOTH",
"576 1056 OFFCURVE",
"484 960 OFFCURVE",
"438 844 CURVE",
"426 844 LINE",
"426 1480 LINE",
"130 1480 LINE",
"130 0 LINE {name = hr00;}"
);
}
);
vertWidth = 1560;
width = 1200;
},
{
anchors = (
{
name = b.cedillacomb;
position = "{303, 0}";
},
{
name = bottom;
position = "{606, 0}";
},
{
name = m.cedillacomb;
position = "{303, 0}";
},
{
name = m.tildecomb;
position = "{138, 698}";
},
{
name = t.tildecomb;
position = "{138, 698}";
},
{
name = top;
position = "{276, 1396}";
}
);
layerId = master02;
paths = (
{
closed = 1;
nodes = (
"356 0 LINE",
"356 716 LINE",
"356 852 OFFCURVE",
"484 914 OFFCURVE",
"612 914 CURVE SMOOTH",
"770 914 OFFCURVE",
"856 822 OFFCURVE",
"856 634 CURVE SMOOTH",
"856 0 LINE",
"1016 0 LINE",
"1016 662 LINE SMOOTH",
"1016 912 OFFCURVE",
"874 1056 OFFCURVE",
"658 1056 CURVE SMOOTH",
"488 1056 OFFCURVE",
"408 966 OFFCURVE",
"364 864 CURVE",
"356 864 LINE",
"356 1480 LINE",
"196 1480 LINE",
"196 0 LINE {name = hr00;}"
);
}
);
vertWidth = 1560;
width = 1200;
}
);
unicode = 0068;
},
{
glyphname = i;
layers = (
{
anchors = (
{
name = b.cedillacomb;
position = "{332, 0}";
},
{
name = b.ogonekcomb;
position = "{546, 0}";
},
{
name = bottom;
position = "{664, 0}";
},
{
name = bottomright;
position = "{1116, 0}";
},
{
name = m.cedillacomb;
position = "{332, 0}";
},
{
name = m.ogonekcomb;
position = "{546, 0}";
}
);
layerId = master01;
paths = (
{
closed = 1;
nodes = (
"796 1164 OFFCURVE",
"842 1226 OFFCURVE",
"842 1304 CURVE SMOOTH",
"842 1362 LINE SMOOTH",
"842 1442 OFFCURVE",
"796 1502 OFFCURVE",
"664 1502 CURVE SMOOTH",
"532 1502 OFFCURVE",
"486 1442 OFFCURVE",
"486 1362 CURVE SMOOTH",
"486 1304 LINE SMOOTH",
"486 1226 OFFCURVE",
"532 1164 OFFCURVE",
"664 1164 CURVE SMOOTH"
);
},
{
closed = 1;
nodes = (
"1116 0 LINE",
"1116 230 LINE",
"812 230 LINE {name = hr01;}",
"812 1032 LINE",
"188 1032 LINE",
"188 802 LINE",
"516 802 LINE",
"516 230 LINE",
"188 230 LINE",
"188 0 LINE"
);
}
);
vertWidth = 1560;
width = 1200;
},
{
anchors = (
{
name = b.cedillacomb;
position = "{332, 0}";
},
{
name = b.ogonekcomb;
position = "{546, 0}";
},
{
name = bottom;
position = "{664, 0}";
},
{
name = bottomright;
position = "{1092, 0}";
},
{
name = m.cedillacomb;
position = "{332, 0}";
},
{
name = m.ogonekcomb;
position = "{546, 0}";
}
);
layerId = master02;
paths = (
{
closed = 1;
nodes = (
"756 1260 OFFCURVE",
"790 1304 OFFCURVE",
"790 1362 CURVE SMOOTH",
"790 1394 LINE SMOOTH",
"790 1452 OFFCURVE",
"756 1496 OFFCURVE",
"664 1496 CURVE SMOOTH",
"572 1496 OFFCURVE",
"538 1452 OFFCURVE",
"538 1394 CURVE SMOOTH",
"538 1362 LINE SMOOTH",
"538 1304 OFFCURVE",
"572 1260 OFFCURVE",
"664 1260 CURVE SMOOTH"
);
},
{
closed = 1;
nodes = (
"1092 0 LINE",
"1092 136 LINE",
"744 136 LINE {name = hr01;}",
"744 1032 LINE",
"212 1032 LINE",
"212 896 LINE",
"584 896 LINE",
"584 136 LINE",
"212 136 LINE",
"212 0 LINE"
);
}
);
vertWidth = 1560;
width = 1200;
}
);
unicode = 0069;
},
{
glyphname = j;
layers = (
{
layerId = master01;
paths = (
{
closed = 1;
nodes = (
"562 -400 LINE SMOOTH",
"774 -400 OFFCURVE",
"876 -276 OFFCURVE",
"876 -102 CURVE SMOOTH",
"876 1032 LINE",
"180 1032 LINE",
"180 802 LINE",
"580 802 LINE",
"580 -170 LINE",
"184 -170 LINE",
"184 -400 LINE"
);
},
{
closed = 1;
nodes = (
"858 1164 OFFCURVE",
"906 1226 OFFCURVE",
"906 1304 CURVE SMOOTH {name = hr01;}",
"906 1362 LINE SMOOTH",
"906 1442 OFFCURVE",
"858 1502 OFFCURVE",
"728 1502 CURVE SMOOTH",
"596 1502 OFFCURVE",
"550 1442 OFFCURVE",
"550 1362 CURVE SMOOTH",
"550 1304 LINE SMOOTH",
"550 1226 OFFCURVE",
"596 1164 OFFCURVE",
"728 1164 CURVE SMOOTH"
);
}
);
vertWidth = 1560;
width = 1200;
},
{
layerId = master02;
paths = (
{
closed = 1;
nodes = (
"636 -400 LINE SMOOTH",
"792 -400 OFFCURVE",
"864 -302 OFFCURVE",
"864 -164 CURVE SMOOTH",
"864 1032 LINE",
"186 1032 LINE",
"186 896 LINE",
"704 896 LINE",
"704 -264 LINE",
"204 -264 LINE",
"204 -400 LINE"
);
},
{
closed = 1;
nodes = (
"876 1260 OFFCURVE",
"910 1304 OFFCURVE",
"910 1362 CURVE SMOOTH {name = hr01;}",
"910 1394 LINE SMOOTH",
"910 1452 OFFCURVE",
"876 1496 OFFCURVE",
"784 1496 CURVE SMOOTH",
"692 1496 OFFCURVE",
"658 1452 OFFCURVE",
"658 1394 CURVE SMOOTH",
"658 1362 LINE SMOOTH",
"658 1304 OFFCURVE",
"692 1260 OFFCURVE",
"784 1260 CURVE SMOOTH"
);
}
);
vertWidth = 1560;
width = 1200;
}
);
unicode = 006A;
},
{
glyphname = k;
layers = (
{
anchors = (
{
name = b.cedillacomb;
position = "{323, 0}";
},
{
name = bottom;
position = "{616, 0}";
},
{
name = m.cedillacomb;
position = "{323, 0}";
}
);
layerId = master01;
paths = (
{
closed = 1;
nodes = (
"426 0 LINE",
"426 358 LINE",
"524 456 LINE",
"824 0 LINE",
"1176 0 LINE",
"734 624 LINE",
"1134 1032 LINE",
"794 1032 LINE",
"578 802 LINE",
"440 640 LINE",
"426 640 LINE",
"426 1480 LINE",
"130 1480 LINE",
"130 0 LINE {name = hr00;}"
);
}
);
vertWidth = 1560;
width = 1200;
},
{
anchors = (
{
name = b.cedillacomb;
position = "{323, 0}";
},
{
name = bottom;
position = "{646, 0}";
},
{
name = m.cedillacomb;
position = "{323, 0}";
}
);
layerId = master02;
paths = (
{
closed = 1;
nodes = (
"370 0 LINE",
"370 374 LINE",
"548 536 LINE",
"950 0 LINE",
"1148 0 LINE",
"670 628 LINE",
"1098 1032 LINE",
"902 1032 LINE",
"558 716 LINE",
"378 546 LINE",
"370 546 LINE",
"370 1480 LINE",
"210 1480 LINE",
"210 0 LINE {name = hr00;}"
);
}
);
vertWidth = 1560;
width = 1200;
}
);
unicode = 006B;
},
{
glyphname = l;
layers = (
{
anchors = (
{
name = b.cedillacomb;
position = "{300, 0}";
},
{
name = bottom;
position = "{600, 0}";
},
{
name = m.caronslovakcomb;
position = "{426, 740}";
},
{
name = m.cedillacomb;
position = "{300, 0}";
},
{
name = m.tildecomb;
position = "{300, 698}";
},
{
name = t.caronslovakcomb;
position = "{426, 740}";
},
{
name = t.tildecomb;
position = "{300, 698}";
},
{
name = top;
position = "{600, 1396}";
},
{
name = topright;
position = "{874, 1480}";
}
);
layerId = master01;
paths = (
{
closed = 1;
nodes = (
"1064 0 LINE",
"1064 230 LINE",
"748 230 LINE",
"748 1480 LINE",
"136 1480 LINE",
"136 1250 LINE",
"452 1250 LINE",
"452 230 LINE",
"136 230 LINE",
"136 0 LINE {name = hr00;}"
);
}
);
vertWidth = 1560;
width = 1200;
},
{
anchors = (
{
name = b.cedillacomb;
position = "{300, 0}";
},
{
name = bottom;
position = "{600, 0}";
},
{
name = m.caronslovakcomb;
position = "{426, 740}";
},
{
name = m.cedillacomb;
position = "{300, 0}";
},
{
name = m.tildecomb;
position = "{300, 698}";
},
{
name = t.caronslovakcomb;
position = "{426, 740}";
},
{
name = t.tildecomb;
position = "{300, 698}";
},
{
name = top;
position = "{600, 1396}";
},
{
name = topright;
position = "{852, 1480}";
}
);
layerId = master02;
paths = (
{
closed = 1;
nodes = (
"1040 0 LINE",
"1040 136 LINE",
"680 136 LINE",
"680 1480 LINE",
"160 1480 LINE",
"160 1344 LINE",
"520 1344 LINE",
"520 136 LINE",
"160 136 LINE",
"160 0 LINE {name = hr00;}"
);
}
);
vertWidth = 1560;
width = 1200;
}
);
unicode = 006C;
},
{
glyphname = m;
layers = (
{
anchors = (
{
name = b.cedillacomb;
position = "{300, 0}";
},
{
name = bottom;
position = "{600, 0}";
},
{
name = m.cedillacomb;
position = "{300, 0}";
},
{
name = m.tildecomb;
position = "{300, 516}";
},
{
name = t.tildecomb;
position = "{300, 516}";
},
{
name = top;
position = "{600, 1032}";
}
);
layerId = master01;
paths = (
{
closed = 1;
nodes = (
"298 736 LINE",
"298 806 OFFCURVE",
"340 838 OFFCURVE",
"394 838 CURVE SMOOTH",
"446 838 OFFCURVE",
"480 804 OFFCURVE",
"480 708 CURVE SMOOTH",
"480 0 LINE",
"720 0 LINE",
"720 736 LINE",
"720 806 OFFCURVE",
"762 838 OFFCURVE",
"812 838 CURVE SMOOTH",
"866 838 OFFCURVE",
"902 804 OFFCURVE",
"902 708 CURVE SMOOTH",
"902 0 LINE",
"1140 0 LINE",
"1140 738 LINE SMOOTH",
"1140 950 OFFCURVE",
"1068 1056 OFFCURVE",
"924 1056 CURVE SMOOTH",
"796 1056 OFFCURVE",
"738 974 OFFCURVE",
"704 880 CURVE",
"692 880 LINE",
"670 994 OFFCURVE",
"606 1056 OFFCURVE",
"508 1056 CURVE SMOOTH",
"398 1056 OFFCURVE",
"344 976 OFFCURVE",
"312 880 CURVE",
"298 880 LINE",
"298 1032 LINE {name = hr01;}",
"60 1032 LINE",
"60 0 LINE",
"298 0 LINE"
);
}
);
vertWidth = 1560;
width = 1200;
},
{
anchors = (
{
name = b.cedillacomb;
position = "{300, 0}";
},
{
name = bottom;
position = "{600, 0}";
},
{
name = m.cedillacomb;
position = "{300, 0}";
},
{
name = m.tildecomb;
position = "{300, 516}";
},
{
name = t.tildecomb;
position = "{300, 516}";
},
{
name = top;
position = "{600, 1032}";
}
);
layerId = master02;
paths = (
{
closed = 1;
nodes = (
"256 758 LINE",
"256 868 OFFCURVE",
"316 924 OFFCURVE",
"402 924 CURVE SMOOTH",
"496 924 OFFCURVE",
"526 866 OFFCURVE",
"526 690 CURVE SMOOTH",
"526 0 LINE",
"674 0 LINE",
"674 758 LINE",
"674 868 OFFCURVE",
"734 924 OFFCURVE",
"818 924 CURVE SMOOTH",
"914 924 OFFCURVE",
"944 866 OFFCURVE",
"944 690 CURVE SMOOTH",
"944 0 LINE",
"1092 0 LINE",
"1092 716 LINE SMOOTH",
"1092 934 OFFCURVE",
"1048 1056 OFFCURVE",
"880 1056 CURVE SMOOTH",
"758 1056 OFFCURVE",
"694 988 OFFCURVE",
"656 894 CURVE",
"650 894 LINE",
"638 990 OFFCURVE",
"580 1056 OFFCURVE",
"462 1056 CURVE SMOOTH",
"348 1056 OFFCURVE",
"296 992 OFFCURVE",
"264 912 CURVE",
"256 912 LINE",
"256 1032 LINE {name = hr01;}",
"108 1032 LINE",
"108 0 LINE",
"256 0 LINE"
);
}
);
vertWidth = 1560;
width = 1200;
}
);
unicode = 006D;
},
{
glyphname = n;
layers = (
{
anchors = (
{
name = b.cedillacomb;
position = "{303, 0}";
},
{
name = bottom;
position = "{604, 0}";
},
{
name = m.cedillacomb;
position = "{303, 0}";
},
{
name = m.tildecomb;
position = "{303, 516}";
},
{
name = t.tildecomb;
position = "{303, 516}";
},
{
name = top;
position = "{604, 1032}";
}
);
layerId = master01;
paths = (
{
closed = 1;
nodes = (
"426 678 LINE",
"426 778 OFFCURVE",
"516 828 OFFCURVE",
"608 828 CURVE SMOOTH",
"724 828 OFFCURVE",
"782 758 OFFCURVE",
"782 628 CURVE SMOOTH",
"782 0 LINE",
"1078 0 LINE",
"1078 668 LINE SMOOTH",
"1078 918 OFFCURVE",
"940 1056 OFFCURVE",
"742 1056 CURVE SMOOTH",
"576 1056 OFFCURVE",
"484 960 OFFCURVE",
"438 844 CURVE",
"426 844 LINE",
"426 1032 LINE {name = hr01;}",
"130 1032 LINE",
"130 0 LINE",
"426 0 LINE"
);
}
);
vertWidth = 1560;
width = 1200;
},
{
anchors = (
{
name = b.cedillacomb;
position = "{303, 0}";
},
{
name = bottom;
position = "{606, 0}";
},
{
name = m.cedillacomb;
position = "{303, 0}";
},
{
name = m.tildecomb;
position = "{303, 516}";
},
{
name = t.tildecomb;
position = "{303, 516}";
},
{
name = top;
position = "{606, 1032}";
}
);
layerId = master02;
paths = (
{
closed = 1;
nodes = (
"356 716 LINE",
"356 852 OFFCURVE",
"484 914 OFFCURVE",
"612 914 CURVE SMOOTH",
"770 914 OFFCURVE",
"856 822 OFFCURVE",
"856 634 CURVE SMOOTH",
"856 0 LINE",
"1016 0 LINE",
"1016 662 LINE SMOOTH",
"1016 912 OFFCURVE",
"874 1056 OFFCURVE",
"658 1056 CURVE SMOOTH",
"488 1056 OFFCURVE",
"408 966 OFFCURVE",
"364 864 CURVE",
"356 864 LINE",
"356 1032 LINE {name = hr01;}",
"196 1032 LINE",
"196 0 LINE",
"356 0 LINE"
);
}
);
vertWidth = 1560;
width = 1200;
}
);
unicode = 006E;
},
{
glyphname = o;
layers = (
{
anchors = (
{
name = b.cedillacomb;
position = "{300, 0}";
},
{
name = bottom;
position = "{600, 0}";
},
{
name = m.cedillacomb;
position = "{300, 0}";
},
{
name = m.tildecomb;
position = "{300, 516}";
},
{
name = t.tildecomb;
position = "{300, 516}";
},
{
name = top;
position = "{600, 1032}";
}
);
layerId = master01;
paths = (
{
closed = 1;
nodes = (
"922 -24 OFFCURVE",
"1118 182 OFFCURVE",
"1118 516 CURVE SMOOTH",
"1118 850 OFFCURVE",
"922 1056 OFFCURVE",
"600 1056 CURVE SMOOTH",
"278 1056 OFFCURVE",
"82 850 OFFCURVE",
"82 516 CURVE SMOOTH",
"82 182 OFFCURVE",
"278 -24 OFFCURVE",
"600 -24 CURVE SMOOTH {name = hr00;}"
);
},
{
closed = 1;
nodes = (
"468 196 OFFCURVE",
"388 282 OFFCURVE",
"388 434 CURVE SMOOTH",
"388 598 LINE",
"388 750 OFFCURVE",
"468 836 OFFCURVE",
"600 836 CURVE SMOOTH",
"732 836 OFFCURVE",
"812 750 OFFCURVE",
"812 598 CURVE SMOOTH",
"812 434 LINE SMOOTH",
"812 282 OFFCURVE",
"732 196 OFFCURVE",
"600 196 CURVE SMOOTH"
);
}
);
vertWidth = 1560;
width = 1200;
},
{
anchors = (
{
name = b.cedillacomb;
position = "{300, 0}";
},
{
name = bottom;
position = "{600, 0}";
},
{
name = m.cedillacomb;
position = "{300, 0}";
},
{
name = m.tildecomb;
position = "{300, 516}";
},
{
name = t.tildecomb;
position = "{300, 516}";
},
{
name = top;
position = "{600, 1032}";
}
);
layerId = master02;
paths = (
{
closed = 1;
nodes = (
"890 -24 OFFCURVE",
"1068 188 OFFCURVE",
"1068 516 CURVE SMOOTH",
"1068 844 OFFCURVE",
"890 1056 OFFCURVE",
"600 1056 CURVE SMOOTH",
"310 1056 OFFCURVE",
"132 844 OFFCURVE",
"132 516 CURVE SMOOTH",
"132 188 OFFCURVE",
"310 -24 OFFCURVE",
"600 -24 CURVE SMOOTH {name = hr00;}"
);
},
{
closed = 1;
nodes = (
"422 114 OFFCURVE",
"302 220 OFFCURVE",
"302 442 CURVE SMOOTH",
"302 590 LINE SMOOTH",
"302 812 OFFCURVE",
"422 918 OFFCURVE",
"600 918 CURVE SMOOTH",
"778 918 OFFCURVE",
"898 812 OFFCURVE",
"898 590 CURVE SMOOTH",
"898 442 LINE SMOOTH",
"898 220 OFFCURVE",
"778 114 OFFCURVE",
"600 114 CURVE SMOOTH"
);
}
);
vertWidth = 1560;
width = 1200;
}
);
unicode = 006F;
},
{
glyphname = p;
layers = (
{
anchors = (
{
name = m.tildecomb;
position = "{317, 516}";
},
{
name = t.tildecomb;
position = "{317, 516}";
},
{
name = top;
position = "{620, 1032}";
}
);
layerId = master01;
paths = (
{
closed = 1;
nodes = (
"414 -400 LINE",
"414 188 LINE",
"428 188 LINE",
"480 64 OFFCURVE",
"568 -24 OFFCURVE",
"734 -24 CURVE SMOOTH",
"962 -24 OFFCURVE",
"1122 142 OFFCURVE",
"1122 516 CURVE SMOOTH",
"1122 890 OFFCURVE",
"962 1056 OFFCURVE",
"734 1056 CURVE SMOOTH",
"568 1056 OFFCURVE",
"480 968 OFFCURVE",
"428 844 CURVE",
"414 844 LINE",
"414 1032 LINE {name = hr01;}",
"118 1032 LINE",
"118 -400 LINE"
);
},
{
closed = 1;
nodes = (
"502 206 OFFCURVE",
"414 256 OFFCURVE",
"414 364 CURVE",
"414 668 LINE",
"414 776 OFFCURVE",
"502 826 OFFCURVE",
"606 826 CURVE SMOOTH {name = hr02;}",
"738 826 OFFCURVE",
"814 740 OFFCURVE",
"814 596 CURVE SMOOTH",
"814 436 LINE",
"814 292 OFFCURVE",
"738 206 OFFCURVE",
"606 206 CURVE SMOOTH"
);
}
);
vertWidth = 1560;
width = 1200;
},
{
anchors = (
{
name = m.tildecomb;
position = "{317, 516}";
},
{
name = t.tildecomb;
position = "{317, 516}";
},
{
name = top;
position = "{634, 1032}";
}
);
layerId = master02;
paths = (
{
closed = 1;
nodes = (
"350 -400 LINE",
"350 168 LINE",
"358 168 LINE",
"424 42 OFFCURVE",
"532 -24 OFFCURVE",
"676 -24 CURVE SMOOTH",
"928 -24 OFFCURVE",
"1080 178 OFFCURVE",
"1080 516 CURVE SMOOTH",
"1080 854 OFFCURVE",
"928 1056 OFFCURVE",
"676 1056 CURVE SMOOTH",
"532 1056 OFFCURVE",
"424 990 OFFCURVE",
"358 864 CURVE",
"350 864 LINE",
"350 1032 LINE {name = hr01;}",
"190 1032 LINE",
"190 -400 LINE"
);
},
{
closed = 1;
nodes = (
"472 118 OFFCURVE",
"350 192 OFFCURVE",
"350 330 CURVE",
"350 702 LINE",
"350 840 OFFCURVE",
"472 914 OFFCURVE",
"614 914 CURVE SMOOTH {name = hr02;}",
"800 914 OFFCURVE",
"908 790 OFFCURVE",
"908 604 CURVE SMOOTH",
"908 428 LINE SMOOTH",
"908 242 OFFCURVE",
"800 118 OFFCURVE",
"614 118 CURVE SMOOTH"
);
}
);
vertWidth = 1560;
width = 1200;
}
);
unicode = 0070;
},
{
glyphname = q;
layers = (
{
anchors = (
{
name = m.tildecomb;
position = "{282, 516}";
},
{
name = t.tildecomb;
position = "{282, 516}";
},
{
name = top;
position = "{580, 1032}";
}
);
layerId = master01;
paths = (
{
closed = 1;
nodes = (
"1082 -400 LINE",
"1082 1032 LINE",
"786 1032 LINE",
"786 844 LINE",
"772 844 LINE",
"720 968 OFFCURVE",
"632 1056 OFFCURVE",
"466 1056 CURVE SMOOTH {name = hr01;}",
"238 1056 OFFCURVE",
"78 890 OFFCURVE",
"78 516 CURVE SMOOTH",
"78 142 OFFCURVE",
"238 -24 OFFCURVE",
"466 -24 CURVE SMOOTH",
"632 -24 OFFCURVE",
"720 64 OFFCURVE",
"772 188 CURVE",
"786 188 LINE",
"786 -400 LINE"
);
},
{
closed = 1;
nodes = (
"462 206 OFFCURVE",
"386 292 OFFCURVE",
"386 436 CURVE SMOOTH",
"386 596 LINE",
"386 740 OFFCURVE",
"462 826 OFFCURVE",
"594 826 CURVE SMOOTH",
"698 826 OFFCURVE",
"786 776 OFFCURVE",
"786 668 CURVE",
"786 364 LINE",
"786 256 OFFCURVE",
"698 206 OFFCURVE",
"594 206 CURVE SMOOTH"
);
}
);
vertWidth = 1560;
width = 1200;
},
{
anchors = (
{
name = m.tildecomb;
position = "{282, 516}";
},
{
name = t.tildecomb;
position = "{282, 516}";
},
{
name = top;
position = "{564, 1032}";
}
);
layerId = master02;
paths = (
{
closed = 1;
nodes = (
"1010 -400 LINE",
"1010 1032 LINE",
"850 1032 LINE",
"850 864 LINE",
"842 864 LINE",
"776 990 OFFCURVE",
"668 1056 OFFCURVE",
"524 1056 CURVE SMOOTH {name = hr01;}",
"272 1056 OFFCURVE",
"120 854 OFFCURVE",
"120 516 CURVE SMOOTH",
"120 178 OFFCURVE",
"272 -24 OFFCURVE",
"524 -24 CURVE SMOOTH",
"668 -24 OFFCURVE",
"776 42 OFFCURVE",
"842 168 CURVE",
"850 168 LINE",
"850 -400 LINE"
);
},
{
closed = 1;
nodes = (
"400 118 OFFCURVE",
"292 242 OFFCURVE",
"292 428 CURVE SMOOTH",
"292 604 LINE SMOOTH",
"292 790 OFFCURVE",
"400 914 OFFCURVE",
"586 914 CURVE SMOOTH",
"728 914 OFFCURVE",
"850 840 OFFCURVE",
"850 702 CURVE",
"850 330 LINE",
"850 192 OFFCURVE",
"728 118 OFFCURVE",
"586 118 CURVE SMOOTH"
);
}
);
vertWidth = 1560;
width = 1200;
}
);
unicode = 0071;
},
{
glyphname = r;
layers = (
{
anchors = (
{
name = b.cedillacomb;
position = "{268, 0}";
},
{
name = bottom;
position = "{534, 0}";
},
{
name = m.cedillacomb;
position = "{268, 0}";
},
{
name = m.tildecomb;
position = "{353, 516}";
},
{
name = t.tildecomb;
position = "{353, 516}";
},
{
name = top;
position = "{650, 1032}";
}
);
layerId = master01;
paths = (
{
closed = 1;
nodes = (
"1022 0 LINE",
"1022 230 LINE",
"682 230 LINE",
"682 536 LINE SMOOTH",
"682 660 OFFCURVE",
"758 760 OFFCURVE",
"904 760 CURVE SMOOTH",
"1124 760 LINE",
"1124 1032 LINE",
"1026 1032 LINE SMOOTH",
"822 1032 OFFCURVE",
"734 892 OFFCURVE",
"696 740 CURVE",
"682 740 LINE",
"682 1032 LINE",
"148 1032 LINE",
"148 802 LINE {name = hr01;}",
"386 802 LINE",
"386 230 LINE",
"148 230 LINE",
"148 0 LINE"
);
}
);
vertWidth = 1560;
width = 1200;
},
{
anchors = (
{
name = b.cedillacomb;
position = "{268, 0}";
},
{
name = bottom;
position = "{536, 0}";
},
{
name = m.cedillacomb;
position = "{268, 0}";
},
{
name = m.tildecomb;
position = "{353, 516}";
},
{
name = t.tildecomb;
position = "{353, 516}";
},
{
name = top;
position = "{706, 1032}";
}
);
layerId = master02;
paths = (
{
closed = 1;
nodes = (
"1016 0 LINE",
"1016 136 LINE",
"616 136 LINE",
"616 582 LINE SMOOTH",
"616 742 OFFCURVE",
"722 872 OFFCURVE",
"924 872 CURVE SMOOTH",
"1118 872 LINE",
"1118 1032 LINE",
"974 1032 LINE SMOOTH",
"758 1032 OFFCURVE",
"666 908 OFFCURVE",
"626 772 CURVE",
"616 772 LINE",
"616 1032 LINE",
"154 1032 LINE",
"154 896 LINE {name = hr01;}",
"456 896 LINE",
"456 136 LINE",
"154 136 LINE",
"154 0 LINE"
);
}
);
vertWidth = 1560;
width = 1200;
}
);
unicode = 0072;
},
{
glyphname = s;
layers = (
{
anchors = (
{
name = b.cedillacomb;
position = "{294, 0}";
},
{
name = bottom;
position = "{586, 0}";
},
{
name = m.cedillacomb;
position = "{294, 0}";
},
{
name = m.tildecomb;
position = "{298, 516}";
},
{
name = t.tildecomb;
position = "{298, 516}";
},
{
name = top;
position = "{610, 1032}";
}
);
layerId = master01;
paths = (
{
closed = 1;
nodes = (
"894 -24 OFFCURVE",
"1068 112 OFFCURVE",
"1068 326 CURVE SMOOTH",
"1068 522 OFFCURVE",
"922 600 OFFCURVE",
"736 628 CURVE",
"572 654 LINE SMOOTH",
"492 666 OFFCURVE",
"444 684 OFFCURVE",
"444 744 CURVE SMOOTH",
"444 812 OFFCURVE",
"504 848 OFFCURVE",
"616 848 CURVE SMOOTH",
"750 848 OFFCURVE",
"848 796 OFFCURVE",
"908 730 CURVE",
"1056 898 LINE",
"970 998 OFFCURVE",
"828 1056 OFFCURVE",
"626 1056 CURVE SMOOTH",
"328 1056 OFFCURVE",
"154 926 OFFCURVE",
"154 710 CURVE SMOOTH",
"154 514 OFFCURVE",
"300 436 OFFCURVE",
"484 408 CURVE SMOOTH",
"650 382 LINE SMOOTH",
"730 370 OFFCURVE",
"778 352 OFFCURVE",
"778 294 CURVE SMOOTH",
"778 220 OFFCURVE",
"706 184 OFFCURVE",
"590 184 CURVE SMOOTH",
"452 184 OFFCURVE",
"344 236 OFFCURVE",
"264 324 CURVE",
"98 170 LINE",
"182 50 OFFCURVE",
"360 -24 OFFCURVE",
"588 -24 CURVE SMOOTH {name = hr00;}"
);
}
);
vertWidth = 1560;
width = 1200;
},
{
anchors = (
{
name = b.cedillacomb;
position = "{294, 0}";
},
{
name = bottom;
position = "{588, 0}";
},
{
name = m.cedillacomb;
position = "{294, 0}";
},
{
name = m.tildecomb;
position = "{298, 516}";
},
{
name = t.tildecomb;
position = "{298, 516}";
},
{
name = top;
position = "{596, 1032}";
}
);
layerId = master02;
paths = (
{
closed = 1;
nodes = (
"876 -24 OFFCURVE",
"1048 94 OFFCURVE",
"1048 298 CURVE SMOOTH",
"1048 522 OFFCURVE",
"842 562 OFFCURVE",
"694 584 CURVE SMOOTH",
"532 608 LINE SMOOTH",
"440 622 OFFCURVE",
"350 650 OFFCURVE",
"350 758 CURVE SMOOTH",
"350 864 OFFCURVE",
"440 922 OFFCURVE",
"602 922 CURVE SMOOTH",
"784 922 OFFCURVE",
"876 850 OFFCURVE",
"924 792 CURVE",
"1028 890 LINE",
"930 994 OFFCURVE",
"794 1056 OFFCURVE",
"608 1056 CURVE SMOOTH",
"368 1056 OFFCURVE",
"192 954 OFFCURVE",
"192 748 CURVE SMOOTH",
"192 524 OFFCURVE",
"400 484 OFFCURVE",
"546 462 CURVE SMOOTH",
"708 438 LINE SMOOTH",
"802 424 OFFCURVE",
"890 396 OFFCURVE",
"890 288 CURVE SMOOTH",
"890 166 OFFCURVE",
"776 110 OFFCURVE",
"616 110 CURVE SMOOTH",
"452 110 OFFCURVE",
"340 168 OFFCURVE",
"242 272 CURVE",
"134 178 LINE",
"242 56 OFFCURVE",
"396 -24 OFFCURVE",
"612 -24 CURVE SMOOTH {name = hr00;}"
);
}
);
vertWidth = 1560;
width = 1200;
}
);
unicode = 0073;
},
{
glyphname = t;
layers = (
{
anchors = (
{
name = b.cedillacomb;
position = "{375, 0}";
},
{
name = bottom;
position = "{722, 0}";
},
{
name = m.caronslovakcomb;
position = "{387, 760}";
},
{
name = m.cedillacomb;
position = "{375, 0}";
},
{
name = t.caronslovakcomb;
position = "{387, 760}";
},
{
name = topright;
position = "{792, 1560}";
}
);
layerId = master01;
paths = (
{
closed = 1;
nodes = (
"1062 230 LINE",
"660 230 LINE",
"660 802 LINE",
"1062 802 LINE",
"1062 1032 LINE",
"660 1032 LINE",
"660 1396 LINE",
"388 1396 LINE",
"388 1154 LINE SMOOTH",
"388 1062 OFFCURVE",
"354 1032 OFFCURVE",
"266 1032 CURVE SMOOTH",
"84 1032 LINE",
"84 802 LINE",
"364 802 LINE",
"364 298 LINE SMOOTH",
"364 124 OFFCURVE",
"466 0 OFFCURVE",
"680 0 CURVE SMOOTH",
"1062 0 LINE {name = hr00;}"
);
}
);
vertWidth = 1560;
width = 1200;
},
{
anchors = (
{
name = b.cedillacomb;
position = "{375, 0}";
},
{
name = bottom;
position = "{750, 0}";
},
{
name = m.caronslovakcomb;
position = "{387, 760}";
},
{
name = m.cedillacomb;
position = "{375, 0}";
},
{
name = t.caronslovakcomb;
position = "{387, 760}";
},
{
name = topright;
position = "{774, 1520}";
}
);
layerId = master02;
paths = (
{
closed = 1;
nodes = (
"1052 136 LINE",
"582 136 LINE",
"582 896 LINE",
"1052 896 LINE",
"1052 1032 LINE",
"582 1032 LINE",
"582 1396 LINE",
"428 1396 LINE",
"428 1126 LINE SMOOTH",
"428 1056 OFFCURVE",
"402 1032 OFFCURVE",
"334 1032 CURVE SMOOTH",
"78 1032 LINE",
"78 896 LINE",
"422 896 LINE",
"422 236 LINE SMOOTH",
"422 98 OFFCURVE",
"494 0 OFFCURVE",
"650 0 CURVE SMOOTH",
"1052 0 LINE {name = hr00;}"
);
}
);
vertWidth = 1560;
width = 1200;
}
);
unicode = 0074;
},
{
glyphname = u;
layers = (
{
anchors = (
{
name = b.cedillacomb;
position = "{297, 0}";
},
{
name = b.ogonekcomb;
position = "{502, 0}";
},
{
name = bottom;
position = "{596, 0}";
},
{
name = bottomright;
position = "{1070, 0}";
},
{
name = m.cedillacomb;
position = "{297, 0}";
},
{
name = m.ogonekcomb;
position = "{502, 0}";
},
{
name = m.tildecomb;
position = "{297, 516}";
},
{
name = t.tildecomb;
position = "{297, 516}";
},
{
name = top;
position = "{596, 1032}";
}
);
layerId = master01;
paths = (
{
closed = 1;
nodes = (
"1070 0 LINE",
"1070 1032 LINE",
"774 1032 LINE",
"774 354 LINE SMOOTH",
"774 254 OFFCURVE",
"684 204 OFFCURVE",
"592 204 CURVE SMOOTH {name = hr01;}",
"476 204 OFFCURVE",
"418 274 OFFCURVE",
"418 404 CURVE SMOOTH",
"418 1032 LINE",
"122 1032 LINE",
"122 364 LINE SMOOTH",
"122 114 OFFCURVE",
"260 -24 OFFCURVE",
"458 -24 CURVE SMOOTH",
"624 -24 OFFCURVE",
"716 72 OFFCURVE",
"762 188 CURVE {name = hr02;}",
"774 188 LINE",
"774 0 LINE"
);
}
);
vertWidth = 1560;
width = 1200;
},
{
anchors = (
{
name = b.cedillacomb;
position = "{297, 0}";
},
{
name = b.ogonekcomb;
position = "{502, 0}";
},
{
name = bottom;
position = "{594, 0}";
},
{
name = bottomright;
position = "{1004, 0}";
},
{
name = m.cedillacomb;
position = "{297, 0}";
},
{
name = m.ogonekcomb;
position = "{502, 0}";
},
{
name = m.tildecomb;
position = "{297, 516}";
},
{
name = t.tildecomb;
position = "{297, 516}";
},
{
name = top;
position = "{594, 1032}";
}
);
layerId = master02;
paths = (
{
closed = 1;
nodes = (
"1004 0 LINE",
"1004 1032 LINE",
"844 1032 LINE",
"844 316 LINE",
"844 180 OFFCURVE",
"716 118 OFFCURVE",
"588 118 CURVE SMOOTH {name = hr01;}",
"430 118 OFFCURVE",
"344 210 OFFCURVE",
"344 398 CURVE SMOOTH",
"344 1032 LINE",
"184 1032 LINE",
"184 370 LINE SMOOTH",
"184 120 OFFCURVE",
"326 -24 OFFCURVE",
"542 -24 CURVE SMOOTH",
"712 -24 OFFCURVE",
"792 66 OFFCURVE",
"836 168 CURVE {name = hr02;}",
"844 168 LINE",
"844 0 LINE"
);
}
);
vertWidth = 1560;
width = 1200;
}
);
unicode = 0075;
},
{
glyphname = v;
layers = (
{
anchors = (
{
name = b.cedillacomb;
position = "{300, 0}";
},
{
name = bottom;
position = "{600, 0}";
},
{
name = m.cedillacomb;
position = "{300, 0}";
},
{
name = m.tildecomb;
position = "{300, 516}";
},
{
name = t.tildecomb;
position = "{300, 516}";
},
{
name = top;
position = "{600, 1032}";
}
);
layerId = master01;
paths = (
{
closed = 1;
nodes = (
"1146 1032 LINE",
"846 1032 LINE",
"712 590 LINE",
"614 246 LINE",
"598 246 LINE",
"500 590 LINE",
"366 1032 LINE",
"54 1032 LINE",
"424 0 LINE",
"776 0 LINE {name = hr00;}"
);
}
);
vertWidth = 1560;
width = 1200;
},
{
anchors = (
{
name = b.cedillacomb;
position = "{300, 0}";
},
{
name = bottom;
position = "{600, 0}";
},
{
name = m.cedillacomb;
position = "{300, 0}";
},
{
name = m.tildecomb;
position = "{300, 516}";
},
{
name = t.tildecomb;
position = "{300, 516}";
},
{
name = top;
position = "{600, 1032}";
}
);
layerId = master02;
paths = (
{
closed = 1;
nodes = (
"1072 1032 LINE",
"914 1032 LINE",
"766 600 LINE",
"606 134 LINE",
"598 134 LINE",
"438 600 LINE",
"290 1032 LINE",
"128 1032 LINE",
"498 0 LINE",
"702 0 LINE {name = hr00;}"
);
}
);
vertWidth = 1560;
width = 1200;
}
);
unicode = 0076;
},
{
glyphname = w;
layers = (
{
anchors = (
{
name = b.cedillacomb;
position = "{300, 0}";
},
{
name = bottom;
position = "{600, 0}";
},
{
name = m.cedillacomb;
position = "{300, 0}";
},
{
name = m.tildecomb;
position = "{300, 516}";
},
{
name = t.tildecomb;
position = "{300, 516}";
},
{
name = top;
position = "{600, 1032}";
}
);
layerId = master01;
paths = (
{
closed = 1;
nodes = (
"488 0 LINE",
"590 712 LINE",
"610 712 LINE",
"712 0 LINE",
"1064 0 LINE",
"1186 1032 LINE",
"952 1032 LINE",
"876 196 LINE",
"856 196 LINE",
"736 1032 LINE",
"476 1032 LINE",
"354 196 LINE",
"334 196 LINE",
"260 1032 LINE",
"14 1032 LINE",
"136 0 LINE {name = hr00;}"
);
}
);
vertWidth = 1560;
width = 1200;
},
{
anchors = (
{
name = b.cedillacomb;
position = "{300, 0}";
},
{
name = bottom;
position = "{600, 0}";
},
{
name = m.cedillacomb;
position = "{300, 0}";
},
{
name = m.tildecomb;
position = "{300, 516}";
},
{
name = t.tildecomb;
position = "{300, 516}";
},
{
name = top;
position = "{600, 1032}";
}
);
layerId = master02;
paths = (
{
closed = 1;
nodes = (
"426 0 LINE",
"594 864 LINE",
"610 864 LINE",
"774 0 LINE",
"982 0 LINE",
"1140 1032 LINE",
"1002 1032 LINE",
"884 140 LINE",
"866 140 LINE",
"690 1032 LINE",
"514 1032 LINE",
"338 140 LINE",
"320 140 LINE",
"202 1032 LINE",
"60 1032 LINE",
"218 0 LINE {name = hr00;}"
);
}
);
vertWidth = 1560;
width = 1200;
}
);
unicode = 0077;
},
{
glyphname = x;
layers = (
{
anchors = (
{
name = b.cedillacomb;
position = "{300, 0}";
},
{
name = bottom;
position = "{600, 0}";
},
{
name = m.cedillacomb;
position = "{300, 0}";
},
{
name = m.tildecomb;
position = "{300, 516}";
},
{
name = t.tildecomb;
position = "{300, 516}";
},
{
name = top;
position = "{600, 1032}";
}
);
layerId = master01;
paths = (
{
closed = 1;
nodes = (
"490 194 LINE",
"578 332 LINE",
"594 332 LINE",
"684 194 LINE",
"814 0 LINE",
"1154 0 LINE",
"768 540 LINE",
"1128 1032 LINE",
"818 1032 LINE",
"706 866 LINE",
"620 732 LINE",
"604 732 LINE",
"520 866 LINE",
"410 1032 LINE",
"72 1032 LINE",
"432 524 LINE",
"46 0 LINE",
"358 0 LINE {name = hr00;}"
);
}
);
vertWidth = 1560;
width = 1200;
},
{
anchors = (
{
name = b.cedillacomb;
position = "{300, 0}";
},
{
name = bottom;
position = "{600, 0}";
},
{
name = m.cedillacomb;
position = "{300, 0}";
},
{
name = m.tildecomb;
position = "{300, 516}";
},
{
name = t.tildecomb;
position = "{300, 516}";
},
{
name = top;
position = "{600, 1032}";
}
);
layerId = master02;
paths = (
{
closed = 1;
nodes = (
"474 242 LINE",
"588 406 LINE",
"596 406 LINE",
"714 242 LINE",
"888 0 LINE",
"1080 0 LINE",
"692 526 LINE",
"1070 1032 LINE",
"886 1032 LINE",
"732 814 LINE",
"612 642 LINE",
"604 642 LINE",
"480 814 LINE",
"324 1032 LINE",
"132 1032 LINE",
"506 524 LINE",
"122 0 LINE",
"306 0 LINE {name = hr00;}"
);
}
);
vertWidth = 1560;
width = 1200;
}
);
unicode = 0078;
},
{
glyphname = y;
layers = (
{
anchors = (
{
name = b.cedillacomb;
position = "{460, 0}";
},
{
name = bottom;
position = "{964, 0}";
},
{
name = m.cedillacomb;
position = "{460, 0}";
},
{
name = m.tildecomb;
position = "{300, 516}";
},
{
name = t.tildecomb;
position = "{300, 516}";
},
{
name = top;
position = "{606, 1032}";
}
);
layerId = master01;
paths = (
{
closed = 1;
nodes = (
"616 298 LINE",
"600 298 LINE",
"506 598 LINE",
"356 1032 LINE",
"38 1032 LINE",
"454 6 LINE",
"390 -170 LINE",
"142 -170 LINE",
"142 -400 LINE",
"346 -400 LINE SMOOTH",
"522 -400 OFFCURVE",
"616 -316 OFFCURVE",
"676 -166 CURVE",
"1162 1032 LINE",
"860 1032 LINE",
"706 598 LINE {name = hr00;}"
);
}
);
vertWidth = 1560;
width = 1200;
},
{
anchors = (
{
name = b.cedillacomb;
position = "{460, 0}";
},
{
name = bottom;
position = "{920, 0}";
},
{
name = m.cedillacomb;
position = "{460, 0}";
},
{
name = m.tildecomb;
position = "{300, 516}";
},
{
name = t.tildecomb;
position = "{300, 516}";
},
{
name = top;
position = "{600, 1032}";
}
);
layerId = master02;
paths = (
{
closed = 1;
nodes = (
"606 208 LINE",
"598 208 LINE",
"444 600 LINE",
"270 1032 LINE",
"106 1032 LINE",
"522 20 LINE",
"406 -264 LINE",
"166 -264 LINE",
"166 -400 LINE",
"318 -400 LINE SMOOTH",
"474 -400 OFFCURVE",
"534 -344 OFFCURVE",
"582 -226 CURVE SMOOTH",
"1094 1032 LINE",
"934 1032 LINE",
"760 600 LINE {name = hr00;}"
);
}
);
vertWidth = 1560;
width = 1200;
}
);
unicode = 0079;
},
{
glyphname = z;
layers = (
{
anchors = (
{
name = b.cedillacomb;
position = "{300, 0}";
},
{
name = bottom;
position = "{600, 0}";
},
{
name = m.cedillacomb;
position = "{300, 0}";
},
{
name = m.tildecomb;
position = "{300, 516}";
},
{
name = t.tildecomb;
position = "{300, 516}";
},
{
name = top;
position = "{600, 1032}";
}
);
layerId = master01;
paths = (
{
closed = 1;
nodes = (
"1068 230 LINE",
"474 230 LINE",
"1048 786 LINE",
"1048 1032 LINE",
"152 1032 LINE",
"152 802 LINE",
"706 802 LINE",
"132 246 LINE",
"132 0 LINE",
"1068 0 LINE {name = hr00;}"
);
}
);
vertWidth = 1560;
width = 1200;
},
{
anchors = (
{
name = b.cedillacomb;
position = "{300, 0}";
},
{
name = bottom;
position = "{600, 0}";
},
{
name = m.cedillacomb;
position = "{300, 0}";
},
{
name = m.tildecomb;
position = "{300, 516}";
},
{
name = t.tildecomb;
position = "{300, 516}";
},
{
name = top;
position = "{600, 1032}";
}
);
layerId = master02;
paths = (
{
closed = 1;
nodes = (
"1030 136 LINE",
"344 136 LINE",
"1010 878 LINE",
"1010 1032 LINE",
"192 1032 LINE",
"192 896 LINE",
"836 896 LINE",
"170 154 LINE",
"170 0 LINE",
"1030 0 LINE {name = hr00;}"
);
}
);
vertWidth = 1560;
width = 1200;
}
);
unicode = 007A;
},
{
glyphname = A;
layers = (
{
anchors = (
{
name = b.cedillacomb;
position = "{300, 0}";
},
{
name = b.ogonekcomb;
position = "{570, 0}";
},
{
name = bottom;
position = "{600, 0}";
},
{
name = bottomright;
position = "{1190, 0}";
},
{
name = m.cedillacomb;
position = "{300, 0}";
},
{
name = m.ogonekcomb;
position = "{570, 0}";
},
{
name = m.tildecomb;
position = "{300, 698}";
},
{
name = t.tildecomb;
position = "{300, 698}";
},
{
name = top;
position = "{600, 1396}";
}
);
layerId = master01;
paths = (
{
closed = 1;
nodes = (
"812 1396 LINE",
"388 1396 LINE",
"10 0 LINE",
"314 0 LINE",
"400 336 LINE",
"782 336 LINE",
"870 0 LINE",
"1190 0 LINE {name = hr00;}"
);
},
{
closed = 1;
nodes = (
"448 578 LINE",
"584 1106 LINE",
"600 1106 LINE",
"736 578 LINE"
);
}
);
vertWidth = 1560;
width = 1200;
},
{
anchors = (
{
name = b.cedillacomb;
position = "{300, 0}";
},
{
name = b.ogonekcomb;
position = "{570, 0}";
},
{
name = bottom;
position = "{600, 0}";
},
{
name = bottomright;
position = "{1140, 0}";
},
{
name = m.cedillacomb;
position = "{300, 0}";
},
{
name = m.ogonekcomb;
position = "{570, 0}";
},
{
name = m.tildecomb;
position = "{300, 698}";
},
{
name = t.tildecomb;
position = "{300, 698}";
},
{
name = top;
position = "{600, 1396}";
}
);
layerId = master02;
paths = (
{
closed = 1;
nodes = (
"712 1396 LINE",
"490 1396 LINE",
"62 0 LINE",
"236 0 LINE",
"354 398 LINE",
"844 398 LINE",
"962 0 LINE",
"1140 0 LINE {name = hr00;}"
);
},
{
closed = 1;
nodes = (
"394 544 LINE",
"590 1218 LINE",
"608 1218 LINE",
"804 544 LINE"
);
}
);
vertWidth = 1560;
width = 1200;
}
);
unicode = 0041;
},
{
glyphname = B;
layers = (
{
anchors = (
{
name = b.cedillacomb;
position = "{315, 0}";
},
{
name = bottom;
position = "{600, 0}";
},
{
name = m.cedillacomb;
position = "{315, 0}";
},
{
name = m.tildecomb;
position = "{295, 698}";
},
{
name = t.tildecomb;
position = "{295, 698}";
},
{
name = top;
position = "{590, 1396}";
}
);
layerId = master01;
paths = (
{
closed = 1;
nodes = (
"690 0 LINE SMOOTH",
"954 0 OFFCURVE",
"1112 150 OFFCURVE",
"1112 384 CURVE SMOOTH",
"1112 572 OFFCURVE",
"1012 676 OFFCURVE",
"840 718 CURVE",
"840 730 LINE",
"986 772 OFFCURVE",
"1068 866 OFFCURVE",
"1068 1024 CURVE SMOOTH {name = hr01;}",
"1068 1252 OFFCURVE",
"916 1396 OFFCURVE",
"644 1396 CURVE SMOOTH",
"154 1396 LINE",
"154 0 LINE"
);
},
{
closed = 1;
nodes = (
"446 604 LINE",
"598 604 LINE SMOOTH",
"740 604 OFFCURVE",
"806 562 OFFCURVE",
"806 436 CURVE SMOOTH {name = hr02;}",
"806 378 LINE SMOOTH",
"806 250 OFFCURVE",
"740 210 OFFCURVE",
"598 210 CURVE SMOOTH",
"446 210 LINE"
);
},
{
closed = 1;
nodes = (
"446 1186 LINE",
"560 1186 LINE SMOOTH",
"700 1186 OFFCURVE",
"762 1148 OFFCURVE",
"762 1026 CURVE SMOOTH {name = hr03;}",
"762 966 LINE SMOOTH",
"762 844 OFFCURVE",
"700 804 OFFCURVE",
"560 804 CURVE SMOOTH",
"446 804 LINE"
);
}
);
vertWidth = 1560;
width = 1200;
},
{
anchors = (
{
name = b.cedillacomb;
position = "{315, 0}";
},
{
name = bottom;
position = "{630, 0}";
},
{
name = m.cedillacomb;
position = "{315, 0}";
},
{
name = m.tildecomb;
position = "{295, 698}";
},
{
name = t.tildecomb;
position = "{295, 698}";
},
{
name = top;
position = "{590, 1396}";
}
);
layerId = master02;
paths = (
{
closed = 1;
nodes = (
"710 0 LINE SMOOTH",
"926 0 OFFCURVE",
"1086 176 OFFCURVE",
"1086 402 CURVE SMOOTH",
"1086 596 OFFCURVE",
"972 694 OFFCURVE",
"816 730 CURVE",
"816 736 LINE",
"944 776 OFFCURVE",
"1034 870 OFFCURVE",
"1034 1036 CURVE SMOOTH {name = hr01;}",
"1034 1254 OFFCURVE",
"888 1396 OFFCURVE",
"650 1396 CURVE SMOOTH",
"176 1396 LINE",
"176 0 LINE"
);
},
{
closed = 1;
nodes = (
"344 652 LINE",
"660 652 LINE SMOOTH",
"814 652 OFFCURVE",
"908 580 OFFCURVE",
"908 440 CURVE SMOOTH {name = hr02;}",
"908 358 LINE SMOOTH",
"908 216 OFFCURVE",
"814 146 OFFCURVE",
"660 146 CURVE SMOOTH",
"344 146 LINE"
);
},
{
closed = 1;
nodes = (
"344 1250 LINE",
"632 1250 LINE SMOOTH",
"772 1250 OFFCURVE",
"858 1186 OFFCURVE",
"858 1058 CURVE SMOOTH {name = hr03;}",
"858 980 LINE SMOOTH",
"858 852 OFFCURVE",
"772 790 OFFCURVE",
"632 790 CURVE SMOOTH",
"344 790 LINE"
);
}
);
vertWidth = 1560;
width = 1200;
}
);
unicode = 0042;
},
{
glyphname = C;
layers = (
{
anchors = (
{
name = b.cedillacomb;
position = "{308, 0}";
},
{
name = bottom;
position = "{606, 0}";
},
{
name = m.cedillacomb;
position = "{308, 0}";
},
{
name = m.tildecomb;
position = "{328, 698}";
},
{
name = t.tildecomb;
position = "{328, 698}";
},
{
name = top;
position = "{624, 1396}";
}
);
layerId = master01;
paths = (
{
closed = 1;
nodes = (
"920 -24 OFFCURVE",
"1070 134 OFFCURVE",
"1126 378 CURVE",
"846 446 LINE",
"816 314 OFFCURVE",
"766 218 OFFCURVE",
"626 218 CURVE SMOOTH",
"464 218 OFFCURVE",
"402 354 OFFCURVE",
"402 576 CURVE SMOOTH",
"402 820 LINE",
"402 1042 OFFCURVE",
"464 1178 OFFCURVE",
"626 1178 CURVE SMOOTH",
"766 1178 OFFCURVE",
"816 1082 OFFCURVE",
"846 950 CURVE",
"1126 1018 LINE",
"1070 1262 OFFCURVE",
"920 1420 OFFCURVE",
"632 1420 CURVE SMOOTH",
"258 1420 OFFCURVE",
"82 1156 OFFCURVE",
"82 698 CURVE SMOOTH",
"82 240 OFFCURVE",
"258 -24 OFFCURVE",
"632 -24 CURVE SMOOTH {name = hr00;}"
);
}
);
vertWidth = 1560;
width = 1200;
},
{
anchors = (
{
name = b.cedillacomb;
position = "{308, 0}";
},
{
name = bottom;
position = "{616, 0}";
},
{
name = m.cedillacomb;
position = "{308, 0}";
},
{
name = m.tildecomb;
position = "{328, 698}";
},
{
name = t.tildecomb;
position = "{328, 698}";
},
{
name = top;
position = "{656, 1396}";
}
);
layerId = master02;
paths = (
{
closed = 1;
nodes = (
"902 -24 OFFCURVE",
"1008 130 OFFCURVE",
"1076 282 CURVE",
"932 348 LINE",
"882 224 OFFCURVE",
"816 122 OFFCURVE",
"646 122 CURVE SMOOTH",
"424 122 OFFCURVE",
"318 304 OFFCURVE",
"318 584 CURVE SMOOTH",
"318 812 LINE SMOOTH",
"318 1092 OFFCURVE",
"424 1274 OFFCURVE",
"646 1274 CURVE SMOOTH",
"816 1274 OFFCURVE",
"882 1172 OFFCURVE",
"932 1048 CURVE",
"1076 1114 LINE",
"1008 1266 OFFCURVE",
"902 1420 OFFCURVE",
"646 1420 CURVE SMOOTH",
"306 1420 OFFCURVE",
"140 1162 OFFCURVE",
"140 698 CURVE SMOOTH",
"140 234 OFFCURVE",
"306 -24 OFFCURVE",
"646 -24 CURVE SMOOTH {name = hr00;}"
);
}
);
vertWidth = 1560;
width = 1200;
}
);
unicode = 0043;
},
{
glyphname = D;
layers = (
{
anchors = (
{
name = b.cedillacomb;
position = "{277, 0}";
},
{
name = bottom;
position = "{556, 0}";
},
{
name = m.cedillacomb;
position = "{277, 0}";
},
{
name = m.tildecomb;
position = "{277, 698}";
},
{
name = t.tildecomb;
position = "{277, 698}";
},
{
name = top;
position = "{556, 1396}";
}
);
layerId = master01;
paths = (
{
closed = 1;
nodes = (
"578 0 LINE",
"952 0 OFFCURVE",
"1132 250 OFFCURVE",
"1132 698 CURVE SMOOTH",
"1132 1146 OFFCURVE",
"952 1396 OFFCURVE",
"578 1396 CURVE SMOOTH",
"128 1396 LINE",
"128 0 LINE {name = hr00;}"
);
},
{
closed = 1;
nodes = (
"424 1160 LINE",
"558 1160 LINE SMOOTH",
"736 1160 OFFCURVE",
"816 1042 OFFCURVE",
"816 826 CURVE SMOOTH",
"816 572 LINE",
"816 354 OFFCURVE",
"736 236 OFFCURVE",
"558 236 CURVE SMOOTH",
"424 236 LINE"
);
}
);
vertWidth = 1560;
width = 1200;
},
{
anchors = (
{
name = b.cedillacomb;
position = "{277, 0}";
},
{
name = bottom;
position = "{554, 0}";
},
{
name = m.cedillacomb;
position = "{277, 0}";
},
{
name = m.tildecomb;
position = "{277, 698}";
},
{
name = t.tildecomb;
position = "{277, 698}";
},
{
name = top;
position = "{554, 1396}";
}
);
layerId = master02;
paths = (
{
closed = 1;
nodes = (
"580 0 LINE",
"920 0 OFFCURVE",
"1088 240 OFFCURVE",
"1088 698 CURVE SMOOTH",
"1088 1156 OFFCURVE",
"920 1396 OFFCURVE",
"580 1396 CURVE SMOOTH",
"190 1396 LINE",
"190 0 LINE {name = hr00;}"
);
},
{
closed = 1;
nodes = (
"358 1250 LINE",
"572 1250 LINE SMOOTH",
"794 1250 OFFCURVE",
"910 1086 OFFCURVE",
"910 806 CURVE SMOOTH",
"910 590 LINE",
"910 310 OFFCURVE",
"794 146 OFFCURVE",
"572 146 CURVE SMOOTH",
"358 146 LINE"
);
}
);
vertWidth = 1560;
width = 1200;
}
);
unicode = 0044;
},
{
glyphname = E;
layers = (
{
anchors = (
{
name = b.cedillacomb;
position = "{305, 0}";
},
{
name = b.ogonekcomb;
position = "{520, 0}";
},
{
name = bottom;
position = "{606, 0}";
},
{
name = bottomright;
position = "{1052, 0}";
},
{
name = m.cedillacomb;
position = "{305, 0}";
},
{
name = m.ogonekcomb;
position = "{520, 0}";
},
{
name = m.tildecomb;
position = "{305, 698}";
},
{
name = t.tildecomb;
position = "{305, 698}";
},
{
name = top;
position = "{606, 1396}";
}
);
layerId = master01;
paths = (
{
closed = 1;
nodes = (
"1052 246 LINE",
"460 246 LINE",
"460 584 LINE",
"1032 584 LINE",
"1032 830 LINE",
"460 830 LINE",
"460 1150 LINE",
"1052 1150 LINE",
"1052 1396 LINE",
"160 1396 LINE",
"160 0 LINE",
"1052 0 LINE {name = hr00;}"
);
}
);
vertWidth = 1560;
width = 1200;
},
{
anchors = (
{
name = b.cedillacomb;
position = "{305, 0}";
},
{
name = b.ogonekcomb;
position = "{520, 0}";
},
{
name = bottom;
position = "{610, 0}";
},
{
name = bottomright;
position = "{1040, 0}";
},
{
name = m.cedillacomb;
position = "{305, 0}";
},
{
name = m.ogonekcomb;
position = "{520, 0}";
},
{
name = m.tildecomb;
position = "{305, 698}";
},
{
name = t.tildecomb;
position = "{305, 698}";
},
{
name = top;
position = "{610, 1396}";
}
);
layerId = master02;
paths = (
{
closed = 1;
nodes = (
"1040 146 LINE",
"348 146 LINE",
"348 634 LINE",
"1016 634 LINE",
"1016 780 LINE",
"348 780 LINE",
"348 1250 LINE",
"1040 1250 LINE",
"1040 1396 LINE",
"180 1396 LINE",
"180 0 LINE",
"1040 0 LINE {name = hr00;}"
);
}
);
vertWidth = 1560;
width = 1200;
}
);
unicode = 0045;
},
{
glyphname = F;
layers = (
{
anchors = (
{
name = b.cedillacomb;
position = "{132, 0}";
},
{
name = bottom;
position = "{302, 0}";
},
{
name = m.cedillacomb;
position = "{132, 0}";
},
{
name = m.tildecomb;
position = "{310, 698}";
},
{
name = t.tildecomb;
position = "{310, 698}";
},
{
name = top;
position = "{622, 1396}";
}
);
layerId = master01;
paths = (
{
closed = 1;
nodes = (
"460 584 LINE",
"1020 584 LINE",
"1020 830 LINE",
"460 830 LINE",
"460 1150 LINE",
"1086 1150 LINE",
"1086 1396 LINE",
"160 1396 LINE",
"160 0 LINE",
"460 0 LINE {name = hr00;}"
);
}
);
vertWidth = 1560;
width = 1200;
},
{
anchors = (
{
name = b.cedillacomb;
position = "{132, 0}";
},
{
name = bottom;
position = "{264, 0}";
},
{
name = m.cedillacomb;
position = "{132, 0}";
},
{
name = m.tildecomb;
position = "{310, 698}";
},
{
name = t.tildecomb;
position = "{310, 698}";
},
{
name = top;
position = "{620, 1396}";
}
);
layerId = master02;
paths = (
{
closed = 1;
nodes = (
"348 634 LINE",
"1000 634 LINE",
"1000 780 LINE",
"348 780 LINE",
"348 1250 LINE",
"1060 1250 LINE",
"1060 1396 LINE",
"180 1396 LINE",
"180 0 LINE",
"348 0 LINE {name = hr00;}"
);
}
);
vertWidth = 1560;
width = 1200;
}
);
unicode = 0046;
},
{
glyphname = G;
layers = (
{
anchors = (
{
name = b.cedillacomb;
position = "{300, 0}";
},
{
name = bottom;
position = "{596, 0}";
},
{
name = m.cedillacomb;
position = "{300, 0}";
},
{
name = m.tildecomb;
position = "{306, 698}";
},
{
name = t.tildecomb;
position = "{306, 698}";
},
{
name = top;
position = "{602, 1396}";
}
);
layerId = master01;
paths = (
{
closed = 1;
nodes = (
"1090 0 LINE",
"1090 746 LINE",
"584 746 LINE",
"584 534 LINE",
"822 534 LINE",
"822 432 LINE SMOOTH",
"822 308 OFFCURVE",
"754 218 OFFCURVE",
"620 218 CURVE SMOOTH {name = hr01;}",
"446 218 OFFCURVE",
"388 366 OFFCURVE",
"388 592 CURVE SMOOTH",
"388 820 LINE SMOOTH",
"388 1044 OFFCURVE",
"444 1178 OFFCURVE",
"596 1178 CURVE SMOOTH",
"734 1178 OFFCURVE",
"780 1068 OFFCURVE",
"810 950 CURVE",
"1090 1018 LINE",
"1034 1258 OFFCURVE",
"890 1420 OFFCURVE",
"602 1420 CURVE SMOOTH",
"240 1420 OFFCURVE",
"70 1160 OFFCURVE",
"70 686 CURVE SMOOTH",
"70 242 OFFCURVE",
"218 -24 OFFCURVE",
"492 -24 CURVE SMOOTH",
"664 -24 OFFCURVE",
"758 82 OFFCURVE",
"804 198 CURVE {name = hr02;}",
"822 198 LINE",
"822 0 LINE"
);
}
);
vertWidth = 1560;
width = 1200;
},
{
anchors = (
{
name = b.cedillacomb;
position = "{300, 0}";
},
{
name = bottom;
position = "{600, 0}";
},
{
name = m.cedillacomb;
position = "{300, 0}";
},
{
name = m.tildecomb;
position = "{306, 698}";
},
{
name = t.tildecomb;
position = "{306, 698}";
},
{
name = top;
position = "{612, 1396}";
}
);
layerId = master02;
paths = (
{
closed = 1;
nodes = (
"1044 0 LINE",
"1044 690 LINE",
"594 690 LINE",
"594 556 LINE",
"888 556 LINE",
"888 412 LINE SMOOTH",
"888 240 OFFCURVE",
"780 118 OFFCURVE",
"600 118 CURVE SMOOTH {name = hr01;}",
"372 118 OFFCURVE",
"290 316 OFFCURVE",
"290 596 CURVE SMOOTH",
"290 812 LINE SMOOTH",
"290 1092 OFFCURVE",
"392 1274 OFFCURVE",
"616 1274 CURVE SMOOTH",
"784 1274 OFFCURVE",
"850 1172 OFFCURVE",
"900 1048 CURVE",
"1044 1114 LINE",
"984 1266 OFFCURVE",
"872 1420 OFFCURVE",
"610 1420 CURVE SMOOTH",
"274 1420 OFFCURVE",
"112 1164 OFFCURVE",
"112 688 CURVE SMOOTH",
"112 232 OFFCURVE",
"260 -24 OFFCURVE",
"562 -24 CURVE SMOOTH",
"754 -24 OFFCURVE",
"832 78 OFFCURVE",
"878 186 CURVE {name = hr02;}",
"888 186 LINE",
"888 0 LINE"
);
}
);
vertWidth = 1560;
width = 1200;
}
);
unicode = 0047;
},
{
glyphname = H;
layers = (
{
anchors = (
{
name = b.cedillacomb;
position = "{300, 0}";
},
{
name = bottom;
position = "{600, 0}";
},
{
name = m.cedillacomb;
position = "{300, 0}";
},
{
name = m.tildecomb;
position = "{300, 698}";
},
{
name = t.tildecomb;
position = "{300, 698}";
},
{
name = top;
position = "{600, 1396}";
}
);
layerId = master01;
paths = (
{
closed = 1;
nodes = (
"1078 0 LINE",
"1078 1396 LINE",
"776 1396 LINE",
"776 830 LINE",
"424 830 LINE",
"424 1396 LINE",
"122 1396 LINE",
"122 0 LINE",
"424 0 LINE",
"424 584 LINE",
"776 584 LINE",
"776 0 LINE {name = hr00;}"
);
}
);
vertWidth = 1560;
width = 1200;
},
{
anchors = (
{
name = b.cedillacomb;
position = "{300, 0}";
},
{
name = bottom;
position = "{600, 0}";
},
{
name = m.cedillacomb;
position = "{300, 0}";
},
{
name = m.tildecomb;
position = "{300, 698}";
},
{
name = t.tildecomb;
position = "{300, 698}";
},
{
name = top;
position = "{600, 1396}";
}
);
layerId = master02;
paths = (
{
closed = 1;
nodes = (
"1040 0 LINE",
"1040 1396 LINE",
"872 1396 LINE",
"872 780 LINE",
"328 780 LINE",
"328 1396 LINE",
"160 1396 LINE",
"160 0 LINE",
"328 0 LINE",
"328 634 LINE",
"872 634 LINE",
"872 0 LINE {name = hr00;}"
);
}
);
vertWidth = 1560;
width = 1200;
}
);
unicode = 0048;
},
{
glyphname = I;
layers = (
{
anchors = (
{
name = b.cedillacomb;
position = "{300, 0}";
},
{
name = b.ogonekcomb;
position = "{516, 0}";
},
{
name = bottom;
position = "{600, 0}";
},
{
name = bottomright;
position = "{1050, 0}";
},
{
name = m.cedillacomb;
position = "{300, 0}";
},
{
name = m.ogonekcomb;
position = "{516, 0}";
},
{
name = m.tildecomb;
position = "{300, 698}";
},
{
name = t.tildecomb;
position = "{300, 698}";
},
{
name = top;
position = "{600, 1396}";
}
);
layerId = master01;
paths = (
{
closed = 1;
nodes = (
"1050 222 LINE",
"750 222 LINE",
"750 1174 LINE",
"1050 1174 LINE",
"1050 1396 LINE",
"150 1396 LINE",
"150 1174 LINE",
"450 1174 LINE",
"450 222 LINE",
"150 222 LINE",
"150 0 LINE",
"1050 0 LINE {name = hr00;}"
);
}
);
vertWidth = 1560;
width = 1200;
},
{
anchors = (
{
name = b.cedillacomb;
position = "{300, 0}";
},
{
name = b.ogonekcomb;
position = "{516, 0}";
},
{
name = bottom;
position = "{600, 0}";
},
{
name = bottomright;
position = "{1032, 0}";
},
{
name = m.cedillacomb;
position = "{300, 0}";
},
{
name = m.ogonekcomb;
position = "{516, 0}";
},
{
name = m.tildecomb;
position = "{300, 698}";
},
{
name = t.tildecomb;
position = "{300, 698}";
},
{
name = top;
position = "{600, 1396}";
}
);
layerId = master02;
paths = (
{
closed = 1;
nodes = (
"1032 134 LINE",
"684 134 LINE",
"684 1262 LINE",
"1032 1262 LINE",
"1032 1396 LINE",
"168 1396 LINE",
"168 1262 LINE",
"516 1262 LINE",
"516 134 LINE",
"168 134 LINE",
"168 0 LINE",
"1032 0 LINE {name = hr00;}"
);
}
);
vertWidth = 1560;
width = 1200;
}
);
unicode = 0049;
},
{
glyphname = J;
layers = (
{
anchors = (
{
name = b.cedillacomb;
position = "{277, 0}";
},
{
name = bottom;
position = "{550, 0}";
},
{
name = m.cedillacomb;
position = "{277, 0}";
},
{
name = m.tildecomb;
position = "{313, 698}";
},
{
name = t.tildecomb;
position = "{313, 698}";
},
{
name = top;
position = "{642, 1396}";
}
);
layerId = master01;
paths = (
{
closed = 1;
nodes = (
"258 1150 LINE",
"718 1150 LINE",
"718 420 LINE SMOOTH",
"718 284 OFFCURVE",
"658 220 OFFCURVE",
"556 220 CURVE SMOOTH",
"436 220 OFFCURVE",
"382 304 OFFCURVE",
"360 422 CURVE",
"76 364 LINE",
"120 132 OFFCURVE",
"270 -24 OFFCURVE",
"556 -24 CURVE SMOOTH",
"840 -24 OFFCURVE",
"1022 138 OFFCURVE",
"1022 390 CURVE SMOOTH",
"1022 1396 LINE",
"258 1396 LINE {name = hr00;}"
);
}
);
vertWidth = 1560;
width = 1200;
},
{
anchors = (
{
name = b.cedillacomb;
position = "{277, 0}";
},
{
name = bottom;
position = "{554, 0}";
},
{
name = m.cedillacomb;
position = "{277, 0}";
},
{
name = m.tildecomb;
position = "{313, 698}";
},
{
name = t.tildecomb;
position = "{313, 698}";
},
{
name = top;
position = "{626, 1396}";
}
);
layerId = master02;
paths = (
{
closed = 1;
nodes = (
"288 1250 LINE",
"792 1250 LINE",
"792 392 LINE SMOOTH",
"792 210 OFFCURVE",
"704 124 OFFCURVE",
"552 124 CURVE SMOOTH",
"396 124 OFFCURVE",
"334 214 OFFCURVE",
"308 326 CURVE",
"148 292 LINE",
"190 92 OFFCURVE",
"336 -24 OFFCURVE",
"548 -24 CURVE SMOOTH",
"790 -24 OFFCURVE",
"960 126 OFFCURVE",
"960 362 CURVE",
"960 1396 LINE",
"288 1396 LINE {name = hr00;}"
);
}
);
vertWidth = 1560;
width = 1200;
}
);
unicode = 004A;
},
{
glyphname = K;
layers = (
{
anchors = (
{
name = b.cedillacomb;
position = "{322, 0}";
},
{
name = bottom;
position = "{650, 0}";
},
{
name = m.cedillacomb;
position = "{322, 0}";
},
{
name = m.tildecomb;
position = "{313, 698}";
},
{
name = t.tildecomb;
position = "{313, 698}";
},
{
name = top;
position = "{634, 1396}";
}
);
layerId = master01;
paths = (
{
closed = 1;
nodes = (
"1206 0 LINE",
"768 806 LINE",
"1186 1396 LINE",
"850 1396 LINE",
"604 1044 LINE",
"452 812 LINE",
"436 812 LINE",
"436 1396 LINE",
"136 1396 LINE",
"136 0 LINE",
"436 0 LINE",
"436 408 LINE",
"560 582 LINE",
"868 0 LINE {name = hr00;}"
);
}
);
vertWidth = 1560;
width = 1200;
},
{
anchors = (
{
name = b.cedillacomb;
position = "{322, 0}";
},
{
name = bottom;
position = "{644, 0}";
},
{
name = m.cedillacomb;
position = "{322, 0}";
},
{
name = m.tildecomb;
position = "{313, 698}";
},
{
name = t.tildecomb;
position = "{313, 698}";
},
{
name = top;
position = "{626, 1396}";
}
);
layerId = master02;
paths = (
{
closed = 1;
nodes = (
"1156 0 LINE",
"652 808 LINE",
"1142 1396 LINE",
"940 1396 LINE",
"528 900 LINE",
"344 668 LINE",
"338 668 LINE",
"338 1396 LINE",
"170 1396 LINE",
"170 0 LINE",
"338 0 LINE",
"338 448 LINE",
"538 684 LINE",
"960 0 LINE {name = hr00;}"
);
}
);
vertWidth = 1560;
width = 1200;
}
);
unicode = 004B;
},
{
glyphname = L;
layers = (
{
anchors = (
{
name = b.cedillacomb;
position = "{327, 0}";
},
{
name = bottom;
position = "{634, 0}";
},
{
name = m.caronslovakcomb;
position = "{290, 740}";
},
{
name = m.cedillacomb;
position = "{327, 0}";
},
{
name = m.tildecomb;
position = "{162, 698}";
},
{
name = t.caronslovakcomb;
position = "{290, 740}";
},
{
name = t.tildecomb;
position = "{162, 698}";
},
{
name = top;
position = "{334, 1396}";
},
{
name = topright;
position = "{640, 1480}";
}
);
layerId = master01;
paths = (
{
closed = 1;
nodes = (
"1086 246 LINE",
"486 246 LINE",
"486 1396 LINE",
"184 1396 LINE",
"184 0 LINE",
"1086 0 LINE {name = hr00;}"
);
}
);
vertWidth = 1560;
width = 1200;
},
{
anchors = (
{
name = b.cedillacomb;
position = "{327, 0}";
},
{
name = bottom;
position = "{654, 0}";
},
{
name = m.caronslovakcomb;
position = "{290, 740}";
},
{
name = m.cedillacomb;
position = "{327, 0}";
},
{
name = m.tildecomb;
position = "{162, 698}";
},
{
name = t.caronslovakcomb;
position = "{290, 740}";
},
{
name = t.tildecomb;
position = "{162, 698}";
},
{
name = top;
position = "{324, 1396}";
},
{
name = topright;
position = "{580, 1480}";
}
);
layerId = master02;
paths = (
{
closed = 1;
nodes = (
"1070 146 LINE",
"408 146 LINE",
"408 1396 LINE",
"240 1396 LINE",
"240 0 LINE",
"1070 0 LINE {name = hr00;}"
);
}
);
vertWidth = 1560;
width = 1200;
}
);
unicode = 004C;
},
{
glyphname = M;
layers = (
{
anchors = (
{
name = b.cedillacomb;
position = "{300, 0}";
},
{
name = bottom;
position = "{600, 0}";
},
{
name = m.cedillacomb;
position = "{300, 0}";
},
{
name = m.tildecomb;
position = "{300, 698}";
},
{
name = t.tildecomb;
position = "{300, 698}";
},
{
name = top;
position = "{600, 1396}";
}
);
layerId = master01;
paths = (
{
closed = 1;
nodes = (
"1122 0 LINE",
"1122 1396 LINE",
"792 1396 LINE",
"620 926 LINE",
"604 926 LINE",
"432 1396 LINE",
"78 1396 LINE",
"78 0 LINE",
"338 0 LINE",
"338 622 LINE",
"322 1012 LINE",
"340 1012 LINE",
"600 294 LINE",
"860 1012 LINE",
"878 1012 LINE",
"862 622 LINE",
"862 0 LINE {name = hr00;}"
);
}
);
vertWidth = 1560;
width = 1200;
},
{
anchors = (
{
name = b.cedillacomb;
position = "{300, 0}";
},
{
name = bottom;
position = "{600, 0}";
},
{
name = m.cedillacomb;
position = "{300, 0}";
},
{
name = m.tildecomb;
position = "{300, 698}";
},
{
name = t.tildecomb;
position = "{300, 698}";
},
{
name = top;
position = "{600, 1396}";
}
);
layerId = master02;
paths = (
{
closed = 1;
nodes = (
"1064 0 LINE",
"1064 1396 LINE",
"856 1396 LINE",
"610 780 LINE",
"598 780 LINE",
"352 1396 LINE",
"136 1396 LINE",
"136 0 LINE",
"290 0 LINE",
"290 700 LINE",
"290 1142 LINE",
"306 1142 LINE",
"600 424 LINE",
"894 1142 LINE",
"910 1142 LINE",
"910 700 LINE",
"910 0 LINE {name = hr00;}"
);
}
);
vertWidth = 1560;
width = 1200;
}
);
unicode = 004D;
},
{
glyphname = N;
layers = (
{
anchors = (
{
name = b.cedillacomb;
position = "{300, 0}";
},
{
name = bottom;
position = "{600, 0}";
},
{
name = m.cedillacomb;
position = "{300, 0}";
},
{
name = m.tildecomb;
position = "{300, 698}";
},
{
name = t.tildecomb;
position = "{300, 698}";
},
{
name = top;
position = "{600, 1396}";
}
);
layerId = master01;
paths = (
{
closed = 1;
nodes = (
"1078 0 LINE",
"1078 1396 LINE",
"822 1396 LINE",
"822 468 LINE",
"800 468 LINE",
"482 1396 LINE",
"122 1396 LINE",
"122 0 LINE",
"378 0 LINE",
"378 928 LINE",
"400 928 LINE",
"718 0 LINE {name = hr00;}"
);
}
);
vertWidth = 1560;
width = 1200;
},
{
anchors = (
{
name = b.cedillacomb;
position = "{300, 0}";
},
{
name = bottom;
position = "{600, 0}";
},
{
name = m.cedillacomb;
position = "{300, 0}";
},
{
name = m.tildecomb;
position = "{300, 698}";
},
{
name = t.tildecomb;
position = "{300, 698}";
},
{
name = top;
position = "{600, 1396}";
}
);
layerId = master02;
paths = (
{
closed = 1;
nodes = (
"1040 0 LINE",
"1040 1396 LINE",
"888 1396 LINE",
"888 226 LINE",
"874 226 LINE",
"398 1396 LINE",
"160 1396 LINE",
"160 0 LINE",
"312 0 LINE",
"312 1182 LINE",
"326 1182 LINE",
"802 0 LINE {name = hr00;}"
);
}
);
vertWidth = 1560;
width = 1200;
}
);
unicode = 004E;
},
{
glyphname = O;
layers = (
{
anchors = (
{
name = b.cedillacomb;
position = "{300, 0}";
},
{
name = bottom;
position = "{600, 0}";
},
{
name = m.cedillacomb;
position = "{300, 0}";
},
{
name = m.tildecomb;
position = "{300, 698}";
},
{
name = t.tildecomb;
position = "{300, 698}";
},
{
name = top;
position = "{600, 1396}";
}
);
layerId = master01;
paths = (
{
closed = 1;
nodes = (
"974 -24 OFFCURVE",
"1146 242 OFFCURVE",
"1146 698 CURVE SMOOTH",
"1146 1154 OFFCURVE",
"974 1420 OFFCURVE",
"600 1420 CURVE SMOOTH",
"226 1420 OFFCURVE",
"54 1154 OFFCURVE",
"54 698 CURVE SMOOTH",
"54 242 OFFCURVE",
"226 -24 OFFCURVE",
"600 -24 CURVE SMOOTH {name = hr00;}"
);
},
{
closed = 1;
nodes = (
"430 218 OFFCURVE",
"374 352 OFFCURVE",
"374 576 CURVE SMOOTH",
"374 820 LINE SMOOTH",
"374 1044 OFFCURVE",
"430 1178 OFFCURVE",
"600 1178 CURVE SMOOTH",
"770 1178 OFFCURVE",
"826 1044 OFFCURVE",
"826 820 CURVE SMOOTH",
"826 578 LINE",
"826 352 OFFCURVE",
"770 218 OFFCURVE",
"600 218 CURVE SMOOTH"
);
}
);
vertWidth = 1560;
width = 1200;
},
{
anchors = (
{
name = b.cedillacomb;
position = "{300, 0}";
},
{
name = bottom;
position = "{600, 0}";
},
{
name = m.cedillacomb;
position = "{300, 0}";
},
{
name = m.tildecomb;
position = "{300, 698}";
},
{
name = t.tildecomb;
position = "{300, 698}";
},
{
name = top;
position = "{600, 1396}";
}
);
layerId = master02;
paths = (
{
closed = 1;
nodes = (
"940 -24 OFFCURVE",
"1088 242 OFFCURVE",
"1088 698 CURVE SMOOTH",
"1088 1154 OFFCURVE",
"940 1420 OFFCURVE",
"600 1420 CURVE SMOOTH",
"260 1420 OFFCURVE",
"112 1154 OFFCURVE",
"112 698 CURVE SMOOTH",
"112 242 OFFCURVE",
"260 -24 OFFCURVE",
"600 -24 CURVE SMOOTH {name = hr00;}"
);
},
{
closed = 1;
nodes = (
"378 122 OFFCURVE",
"290 304 OFFCURVE",
"290 584 CURVE SMOOTH",
"290 812 LINE SMOOTH",
"290 1092 OFFCURVE",
"378 1274 OFFCURVE",
"600 1274 CURVE SMOOTH",
"822 1274 OFFCURVE",
"910 1092 OFFCURVE",
"910 812 CURVE SMOOTH",
"910 584 LINE",
"910 304 OFFCURVE",
"822 122 OFFCURVE",
"600 122 CURVE SMOOTH"
);
}
);
vertWidth = 1560;
width = 1200;
}
);
unicode = 004F;
},
{
glyphname = P;
layers = (
{
anchors = (
{
name = b.cedillacomb;
position = "{132, 0}";
},
{
name = bottom;
position = "{302, 0}";
},
{
name = m.cedillacomb;
position = "{132, 0}";
},
{
name = m.tildecomb;
position = "{300, 698}";
},
{
name = t.tildecomb;
position = "{300, 698}";
},
{
name = top;
position = "{600, 1396}";
}
);
layerId = master01;
paths = (
{
closed = 1;
nodes = (
"454 508 LINE",
"692 508 LINE SMOOTH",
"966 508 OFFCURVE",
"1120 682 OFFCURVE",
"1120 952 CURVE SMOOTH",
"1120 1222 OFFCURVE",
"966 1396 OFFCURVE",
"692 1396 CURVE SMOOTH",
"152 1396 LINE",
"152 0 LINE",
"454 0 LINE {name = hr00;}"
);
},
{
closed = 1;
nodes = (
"616 1154 LINE SMOOTH",
"756 1154 OFFCURVE",
"804 1104 OFFCURVE",
"804 982 CURVE SMOOTH",
"804 922 LINE",
"804 800 OFFCURVE",
"756 750 OFFCURVE",
"616 750 CURVE SMOOTH",
"454 750 LINE",
"454 1154 LINE"
);
}
);
vertWidth = 1560;
width = 1200;
},
{
anchors = (
{
name = b.cedillacomb;
position = "{132, 0}";
},
{
name = bottom;
position = "{264, 0}";
},
{
name = m.cedillacomb;
position = "{132, 0}";
},
{
name = m.tildecomb;
position = "{300, 698}";
},
{
name = t.tildecomb;
position = "{300, 698}";
},
{
name = top;
position = "{600, 1396}";
}
);
layerId = master02;
paths = (
{
closed = 1;
nodes = (
"348 592 LINE",
"688 592 LINE SMOOTH",
"946 592 OFFCURVE",
"1086 742 OFFCURVE",
"1086 994 CURVE SMOOTH",
"1086 1246 OFFCURVE",
"946 1396 OFFCURVE",
"688 1396 CURVE SMOOTH",
"180 1396 LINE",
"180 0 LINE",
"348 0 LINE {name = hr00;}"
);
},
{
closed = 1;
nodes = (
"684 1250 LINE SMOOTH",
"824 1250 OFFCURVE",
"908 1176 OFFCURVE",
"908 1046 CURVE SMOOTH",
"908 942 LINE SMOOTH",
"908 812 OFFCURVE",
"824 738 OFFCURVE",
"684 738 CURVE SMOOTH",
"348 738 LINE",
"348 1250 LINE"
);
}
);
vertWidth = 1560;
width = 1200;
}
);
unicode = 0050;
},
{
glyphname = Q;
layers = (
{
anchors = (
{
name = m.tildecomb;
position = "{300, 698}";
},
{
name = t.tildecomb;
position = "{300, 698}";
},
{
name = top;
position = "{600, 1396}";
}
);
layerId = master01;
paths = (
{
closed = 1;
nodes = (
"730 -168 LINE",
"730 -12 LINE",
"1014 44 OFFCURVE",
"1146 298 OFFCURVE",
"1146 698 CURVE SMOOTH",
"1146 1154 OFFCURVE",
"974 1420 OFFCURVE",
"600 1420 CURVE SMOOTH",
"226 1420 OFFCURVE",
"54 1154 OFFCURVE",
"54 698 CURVE SMOOTH",
"54 298 OFFCURVE",
"186 44 OFFCURVE",
"470 -12 CURVE",
"470 -94 LINE SMOOTH",
"470 -268 OFFCURVE",
"552 -382 OFFCURVE",
"768 -382 CURVE SMOOTH",
"1052 -382 LINE",
"1052 -168 LINE {name = hr00;}"
);
},
{
closed = 1;
nodes = (
"430 218 OFFCURVE",
"374 352 OFFCURVE",
"374 576 CURVE SMOOTH",
"374 820 LINE SMOOTH",
"374 1044 OFFCURVE",
"430 1178 OFFCURVE",
"600 1178 CURVE SMOOTH",
"770 1178 OFFCURVE",
"826 1044 OFFCURVE",
"826 820 CURVE SMOOTH",
"826 578 LINE SMOOTH",
"826 352 OFFCURVE",
"770 218 OFFCURVE",
"600 218 CURVE SMOOTH"
);
}
);
vertWidth = 1560;
width = 1200;
},
{
anchors = (
{
name = m.tildecomb;
position = "{300, 698}";
},
{
name = t.tildecomb;
position = "{300, 698}";
},
{
name = top;
position = "{600, 1396}";
}
);
layerId = master02;
paths = (
{
closed = 1;
nodes = (
"680 -192 LINE",
"680 -18 LINE",
"962 20 OFFCURVE",
"1088 280 OFFCURVE",
"1088 698 CURVE SMOOTH",
"1088 1154 OFFCURVE",
"940 1420 OFFCURVE",
"600 1420 CURVE SMOOTH",
"260 1420 OFFCURVE",
"112 1154 OFFCURVE",
"112 698 CURVE SMOOTH",
"112 280 OFFCURVE",
"236 20 OFFCURVE",
"520 -18 CURVE",
"520 -92 LINE SMOOTH",
"520 -230 OFFCURVE",
"592 -328 OFFCURVE",
"748 -328 CURVE SMOOTH",
"982 -328 LINE",
"982 -192 LINE {name = hr00;}"
);
},
{
closed = 1;
nodes = (
"378 122 OFFCURVE",
"290 304 OFFCURVE",
"290 584 CURVE SMOOTH",
"290 812 LINE SMOOTH",
"290 1092 OFFCURVE",
"378 1274 OFFCURVE",
"600 1274 CURVE SMOOTH",
"822 1274 OFFCURVE",
"910 1092 OFFCURVE",
"910 812 CURVE SMOOTH",
"910 584 LINE SMOOTH",
"910 304 OFFCURVE",
"822 122 OFFCURVE",
"600 122 CURVE SMOOTH"
);
}
);
vertWidth = 1560;
width = 1200;
}
);
unicode = 0051;
},
{
glyphname = R;
layers = (
{
anchors = (
{
name = b.cedillacomb;
position = "{308, 0}";
},
{
name = bottom;
position = "{630, 0}";
},
{
name = m.cedillacomb;
position = "{308, 0}";
},
{
name = m.tildecomb;
position = "{308, 698}";
},
{
name = t.tildecomb;
position = "{308, 698}";
},
{
name = top;
position = "{608, 1396}";
}
);
layerId = master01;
paths = (
{
closed = 1;
nodes = (
"586 518 LINE",
"820 0 LINE",
"1148 0 LINE",
"874 558 LINE",
"1030 602 OFFCURVE",
"1120 756 OFFCURVE",
"1120 952 CURVE SMOOTH",
"1120 1222 OFFCURVE",
"966 1396 OFFCURVE",
"692 1396 CURVE SMOOTH",
"152 1396 LINE",
"152 0 LINE",
"448 0 LINE",
"448 518 LINE {name = hr00;}"
);
},
{
closed = 1;
nodes = (
"448 1154 LINE",
"620 1154 LINE SMOOTH",
"760 1154 OFFCURVE",
"808 1104 OFFCURVE",
"808 982 CURVE SMOOTH",
"808 922 LINE SMOOTH",
"808 800 OFFCURVE",
"760 750 OFFCURVE",
"620 750 CURVE SMOOTH",
"448 750 LINE"
);
}
);
vertWidth = 1560;
width = 1200;
},
{
anchors = (
{
name = b.cedillacomb;
position = "{308, 0}";
},
{
name = bottom;
position = "{616, 0}";
},
{
name = m.cedillacomb;
position = "{308, 0}";
},
{
name = m.tildecomb;
position = "{308, 698}";
},
{
name = t.tildecomb;
position = "{308, 698}";
},
{
name = top;
position = "{616, 1396}";
}
);
layerId = master02;
paths = (
{
closed = 1;
nodes = (
"570 596 LINE",
"910 0 LINE",
"1098 0 LINE",
"742 604 LINE",
"964 626 OFFCURVE",
"1086 770 OFFCURVE",
"1086 994 CURVE SMOOTH",
"1086 1246 OFFCURVE",
"946 1396 OFFCURVE",
"688 1396 CURVE SMOOTH",
"180 1396 LINE",
"180 0 LINE",
"348 0 LINE",
"348 596 LINE {name = hr00;}"
);
},
{
closed = 1;
nodes = (
"348 1250 LINE",
"684 1250 LINE SMOOTH",
"824 1250 OFFCURVE",
"908 1176 OFFCURVE",
"908 1046 CURVE SMOOTH",
"908 942 LINE SMOOTH",
"908 812 OFFCURVE",
"824 738 OFFCURVE",
"684 738 CURVE SMOOTH",
"348 738 LINE"
);
}
);
vertWidth = 1560;
width = 1200;
}
);
unicode = 0052;
},
{
glyphname = S;
layers = (
{
anchors = (
{
name = b.cedillacomb;
position = "{297, 0}";
},
{
name = bottom;
position = "{584, 0}";
},
{
name = m.cedillacomb;
position = "{297, 0}";
},
{
name = m.tildecomb;
position = "{298, 698}";
},
{
name = t.tildecomb;
position = "{298, 698}";
},
{
name = top;
position = "{610, 1396}";
}
);
layerId = master01;
paths = (
{
closed = 1;
nodes = (
"928 -24 OFFCURVE",
"1112 168 OFFCURVE",
"1112 430 CURVE SMOOTH",
"1112 650 OFFCURVE",
"982 782 OFFCURVE",
"758 822 CURVE SMOOTH",
"612 848 LINE SMOOTH",
"476 872 OFFCURVE",
"420 914 OFFCURVE",
"420 1010 CURVE SMOOTH",
"420 1120 OFFCURVE",
"488 1176 OFFCURVE",
"622 1176 CURVE SMOOTH",
"748 1176 OFFCURVE",
"852 1126 OFFCURVE",
"926 1044 CURVE",
"1096 1234 LINE",
"998 1348 OFFCURVE",
"834 1420 OFFCURVE",
"620 1420 CURVE SMOOTH",
"304 1420 OFFCURVE",
"118 1264 OFFCURVE",
"118 996 CURVE SMOOTH",
"118 792 OFFCURVE",
"224 638 OFFCURVE",
"474 596 CURVE SMOOTH",
"620 572 LINE SMOOTH",
"756 550 OFFCURVE",
"808 504 OFFCURVE",
"808 406 CURVE SMOOTH",
"808 286 OFFCURVE",
"730 220 OFFCURVE",
"588 220 CURVE SMOOTH",
"464 220 OFFCURVE",
"338 272 OFFCURVE",
"236 384 CURVE",
"62 192 LINE",
"168 60 OFFCURVE",
"346 -24 OFFCURVE",
"578 -24 CURVE SMOOTH {name = hr00;}"
);
}
);
vertWidth = 1560;
width = 1200;
},
{
anchors = (
{
name = b.cedillacomb;
position = "{297, 0}";
},
{
name = bottom;
position = "{594, 0}";
},
{
name = m.cedillacomb;
position = "{297, 0}";
},
{
name = m.tildecomb;
position = "{298, 698}";
},
{
name = t.tildecomb;
position = "{298, 698}";
},
{
name = top;
position = "{596, 1396}";
}
);
layerId = master02;
paths = (
{
closed = 1;
nodes = (
"906 -24 OFFCURVE",
"1084 132 OFFCURVE",
"1084 390 CURVE SMOOTH",
"1084 572 OFFCURVE",
"994 724 OFFCURVE",
"720 772 CURVE SMOOTH",
"570 798 LINE SMOOTH",
"372 832 OFFCURVE",
"308 912 OFFCURVE",
"308 1036 CURVE SMOOTH",
"308 1194 OFFCURVE",
"414 1276 OFFCURVE",
"602 1276 CURVE SMOOTH",
"776 1276 OFFCURVE",
"876 1206 OFFCURVE",
"954 1104 CURVE",
"1072 1206 LINE",
"978 1340 OFFCURVE",
"826 1420 OFFCURVE",
"604 1420 CURVE SMOOTH",
"320 1420 OFFCURVE",
"138 1288 OFFCURVE",
"138 1032 CURVE SMOOTH",
"138 856 OFFCURVE",
"224 698 OFFCURVE",
"498 652 CURVE SMOOTH",
"654 626 LINE SMOOTH",
"844 594 OFFCURVE",
"914 522 OFFCURVE",
"914 386 CURVE SMOOTH",
"914 218 OFFCURVE",
"804 120 OFFCURVE",
"602 120 CURVE SMOOTH",
"434 120 OFFCURVE",
"320 186 OFFCURVE",
"212 322 CURVE",
"90 222 LINE",
"194 78 OFFCURVE",
"346 -24 OFFCURVE",
"596 -24 CURVE SMOOTH {name = hr00;}"
);
}
);
vertWidth = 1560;
width = 1200;
}
);
unicode = 0053;
},
{
glyphname = T;
layers = (
{
anchors = (
{
name = b.cedillacomb;
position = "{300, 0}";
},
{
name = bottom;
position = "{600, 0}";
},
{
name = m.cedillacomb;
position = "{300, 0}";
},
{
name = m.tildecomb;
position = "{300, 698}";
},
{
name = t.tildecomb;
position = "{300, 698}";
},
{
name = top;
position = "{600, 1396}";
}
);
layerId = master01;
paths = (
{
closed = 1;
nodes = (
"1152 1396 LINE",
"48 1396 LINE",
"48 1150 LINE",
"450 1150 LINE",
"450 0 LINE",
"750 0 LINE",
"750 1150 LINE",
"1152 1150 LINE {name = hr00;}"
);
}
);
vertWidth = 1560;
width = 1200;
},
{
anchors = (
{
name = b.cedillacomb;
position = "{300, 0}";
},
{
name = bottom;
position = "{600, 0}";
},
{
name = m.cedillacomb;
position = "{300, 0}";
},
{
name = m.tildecomb;
position = "{300, 698}";
},
{
name = t.tildecomb;
position = "{300, 698}";
},
{
name = top;
position = "{600, 1396}";
}
);
layerId = master02;
paths = (
{
closed = 1;
nodes = (
"1150 1396 LINE",
"50 1396 LINE",
"50 1250 LINE",
"516 1250 LINE",
"516 0 LINE",
"684 0 LINE",
"684 1250 LINE",
"1150 1250 LINE {name = hr00;}"
);
}
);
vertWidth = 1560;
width = 1200;
}
);
unicode = 0054;
},
{
glyphname = U;
layers = (
{
anchors = (
{
name = b.cedillacomb;
position = "{300, 0}";
},
{
name = b.ogonekcomb;
position = "{394, 0}";
},
{
name = bottom;
position = "{600, 0}";
},
{
name = bottomright;
position = "{808, 0}";
},
{
name = m.cedillacomb;
position = "{300, 0}";
},
{
name = m.ogonekcomb;
position = "{394, 0}";
},
{
name = m.tildecomb;
position = "{300, 698}";
},
{
name = t.tildecomb;
position = "{300, 698}";
},
{
name = top;
position = "{600, 1396}";
}
);
layerId = master01;
paths = (
{
closed = 1;
nodes = (
"110 552 LINE SMOOTH",
"110 170 OFFCURVE",
"194 -24 OFFCURVE",
"600 -24 CURVE SMOOTH",
"1006 -24 OFFCURVE",
"1090 170 OFFCURVE",
"1090 552 CURVE SMOOTH",
"1090 1396 LINE",
"790 1396 LINE",
"790 512 LINE SMOOTH",
"790 334 OFFCURVE",
"776 218 OFFCURVE",
"600 218 CURVE SMOOTH",
"424 218 OFFCURVE",
"410 334 OFFCURVE",
"410 512 CURVE SMOOTH",
"410 1396 LINE",
"110 1396 LINE {name = hr00;}"
);
}
);
vertWidth = 1560;
width = 1200;
},
{
anchors = (
{
name = b.cedillacomb;
position = "{300, 0}";
},
{
name = b.ogonekcomb;
position = "{394, 0}";
},
{
name = bottom;
position = "{600, 0}";
},
{
name = bottomright;
position = "{788, 0}";
},
{
name = m.cedillacomb;
position = "{300, 0}";
},
{
name = m.ogonekcomb;
position = "{394, 0}";
},
{
name = m.tildecomb;
position = "{300, 698}";
},
{
name = t.tildecomb;
position = "{300, 698}";
},
{
name = top;
position = "{600, 1396}";
}
);
layerId = master02;
paths = (
{
closed = 1;
nodes = (
"160 598 LINE SMOOTH",
"160 184 OFFCURVE",
"220 -24 OFFCURVE",
"600 -24 CURVE SMOOTH",
"980 -24 OFFCURVE",
"1040 184 OFFCURVE",
"1040 598 CURVE SMOOTH",
"1040 1396 LINE",
"872 1396 LINE",
"872 558 LINE SMOOTH",
"872 288 OFFCURVE",
"862 122 OFFCURVE",
"600 122 CURVE SMOOTH",
"338 122 OFFCURVE",
"328 288 OFFCURVE",
"328 558 CURVE SMOOTH",
"328 1396 LINE",
"160 1396 LINE {name = hr00;}"
);
}
);
vertWidth = 1560;
width = 1200;
}
);
unicode = 0055;
},
{
glyphname = V;
layers = (
{
anchors = (
{
name = b.cedillacomb;
position = "{300, 0}";
},
{
name = bottom;
position = "{600, 0}";
},
{
name = m.cedillacomb;
position = "{300, 0}";
},
{
name = m.tildecomb;
position = "{300, 698}";
},
{
name = t.tildecomb;
position = "{300, 698}";
},
{
name = top;
position = "{600, 1396}";
}
);
layerId = master01;
paths = (
{
closed = 1;
nodes = (
"1182 1396 LINE",
"864 1396 LINE",
"698 686 LINE",
"614 284 LINE",
"598 284 LINE",
"516 686 LINE",
"352 1396 LINE",
"18 1396 LINE",
"388 0 LINE",
"812 0 LINE {name = hr00;}"
);
}
);
vertWidth = 1560;
width = 1200;
},
{
anchors = (
{
name = b.cedillacomb;
position = "{300, 0}";
},
{
name = bottom;
position = "{600, 0}";
},
{
name = m.cedillacomb;
position = "{300, 0}";
},
{
name = m.tildecomb;
position = "{300, 698}";
},
{
name = t.tildecomb;
position = "{300, 698}";
},
{
name = top;
position = "{600, 1396}";
}
);
layerId = master02;
paths = (
{
closed = 1;
nodes = (
"1128 1396 LINE",
"956 1396 LINE",
"758 698 LINE",
"608 170 LINE",
"598 170 LINE",
"448 698 LINE",
"250 1396 LINE",
"72 1396 LINE",
"486 0 LINE",
"714 0 LINE {name = hr00;}"
);
}
);
vertWidth = 1560;
width = 1200;
}
);
unicode = 0056;
},
{
glyphname = W;
layers = (
{
anchors = (
{
name = b.cedillacomb;
position = "{300, 0}";
},
{
name = bottom;
position = "{600, 0}";
},
{
name = m.cedillacomb;
position = "{300, 0}";
},
{
name = m.tildecomb;
position = "{300, 698}";
},
{
name = t.tildecomb;
position = "{300, 698}";
},
{
name = top;
position = "{600, 1396}";
}
);
layerId = master01;
paths = (
{
closed = 1;
nodes = (
"590 770 LINE",
"610 770 LINE",
"712 0 LINE",
"1092 0 LINE",
"1178 1396 LINE",
"930 1396 LINE",
"890 552 LINE",
"878 296 LINE",
"860 296 LINE",
"740 1092 LINE",
"470 1092 LINE",
"350 296 LINE",
"332 296 LINE",
"320 560 LINE",
"280 1396 LINE",
"22 1396 LINE",
"108 0 LINE",
"488 0 LINE {name = hr00;}"
);
}
);
vertWidth = 1560;
width = 1200;
},
{
anchors = (
{
name = b.cedillacomb;
position = "{300, 0}";
},
{
name = bottom;
position = "{600, 0}";
},
{
name = m.cedillacomb;
position = "{300, 0}";
},
{
name = m.tildecomb;
position = "{300, 698}";
},
{
name = t.tildecomb;
position = "{300, 698}";
},
{
name = top;
position = "{600, 1396}";
}
);
layerId = master02;
paths = (
{
closed = 1;
nodes = (
"592 834 LINE",
"608 834 LINE",
"778 0 LINE",
"1020 0 LINE",
"1130 1396 LINE",
"984 1396 LINE",
"926 596 LINE",
"896 174 LINE",
"880 174 LINE",
"696 1032 LINE",
"508 1032 LINE",
"324 174 LINE",
"308 174 LINE",
"278 596 LINE",
"220 1396 LINE",
"70 1396 LINE",
"180 0 LINE",
"422 0 LINE {name = hr00;}"
);
}
);
vertWidth = 1560;
width = 1200;
}
);
unicode = 0057;
},
{
glyphname = X;
layers = (
{
anchors = (
{
name = b.cedillacomb;
position = "{300, 0}";
},
{
name = bottom;
position = "{600, 0}";
},
{
name = m.cedillacomb;
position = "{300, 0}";
},
{
name = m.tildecomb;
position = "{300, 698}";
},
{
name = t.tildecomb;
position = "{300, 698}";
},
{
name = top;
position = "{600, 1396}";
}
);
layerId = master01;
paths = (
{
closed = 1;
nodes = (
"1156 1396 LINE",
"842 1396 LINE",
"722 1174 LINE",
"618 950 LINE",
"602 950 LINE",
"500 1174 LINE",
"386 1396 LINE",
"44 1396 LINE",
"410 722 LINE",
"18 0 LINE",
"332 0 LINE",
"480 278 LINE",
"580 498 LINE",
"598 498 LINE",
"696 278 LINE",
"840 0 LINE",
"1182 0 LINE",
"790 718 LINE {name = hr00;}"
);
}
);
vertWidth = 1560;
width = 1200;
},
{
anchors = (
{
name = b.cedillacomb;
position = "{300, 0}";
},
{
name = bottom;
position = "{600, 0}";
},
{
name = m.cedillacomb;
position = "{300, 0}";
},
{
name = m.tildecomb;
position = "{300, 698}";
},
{
name = t.tildecomb;
position = "{300, 698}";
},
{
name = top;
position = "{600, 1396}";
}
);
layerId = master02;
paths = (
{
closed = 1;
nodes = (
"1136 1396 LINE",
"952 1396 LINE",
"784 1126 LINE",
"612 844 LINE",
"604 844 LINE",
"430 1126 LINE",
"268 1396 LINE",
"78 1396 LINE",
"508 712 LINE",
"52 0 LINE",
"236 0 LINE",
"412 278 LINE",
"602 582 LINE",
"610 582 LINE",
"794 278 LINE",
"960 0 LINE",
"1150 0 LINE",
"704 714 LINE {name = hr00;}"
);
}
);
vertWidth = 1560;
width = 1200;
}
);
unicode = 0058;
},
{
glyphname = Y;
layers = (
{
anchors = (
{
name = b.cedillacomb;
position = "{300, 0}";
},
{
name = bottom;
position = "{600, 0}";
},
{
name = m.cedillacomb;
position = "{300, 0}";
},
{
name = m.tildecomb;
position = "{300, 698}";
},
{
name = t.tildecomb;
position = "{300, 698}";
},
{
name = top;
position = "{600, 1396}";
}
);
layerId = master01;
paths = (
{
closed = 1;
nodes = (
"750 494 LINE",
"1192 1396 LINE",
"870 1396 LINE",
"722 1072 LINE",
"614 798 LINE",
"598 798 LINE",
"490 1072 LINE",
"342 1396 LINE",
"8 1396 LINE",
"450 494 LINE",
"450 0 LINE",
"750 0 LINE {name = hr00;}"
);
}
);
vertWidth = 1560;
width = 1200;
},
{
anchors = (
{
name = b.cedillacomb;
position = "{300, 0}";
},
{
name = bottom;
position = "{600, 0}";
},
{
name = m.cedillacomb;
position = "{300, 0}";
},
{
name = m.tildecomb;
position = "{300, 698}";
},
{
name = t.tildecomb;
position = "{300, 698}";
},
{
name = top;
position = "{600, 1396}";
}
);
layerId = master02;
paths = (
{
closed = 1;
nodes = (
"684 548 LINE",
"1166 1396 LINE",
"978 1396 LINE",
"778 1032 LINE",
"604 714 LINE",
"596 714 LINE",
"426 1032 LINE",
"226 1396 LINE",
"34 1396 LINE",
"516 548 LINE",
"516 0 LINE",
"684 0 LINE {name = hr00;}"
);
}
);
vertWidth = 1560;
width = 1200;
}
);
unicode = 0059;
},
{
glyphname = Z;
layers = (
{
anchors = (
{
name = b.cedillacomb;
position = "{300, 0}";
},
{
name = bottom;
position = "{598, 0}";
},
{
name = m.cedillacomb;
position = "{300, 0}";
},
{
name = m.tildecomb;
position = "{300, 698}";
},
{
name = t.tildecomb;
position = "{300, 698}";
},
{
name = top;
position = "{600, 1396}";
}
);
layerId = master01;
paths = (
{
closed = 1;
nodes = (
"432 246 LINE",
"1082 1134 LINE",
"1082 1396 LINE",
"116 1396 LINE",
"116 1150 LINE",
"746 1150 LINE",
"96 262 LINE",
"96 0 LINE",
"1102 0 LINE",
"1102 246 LINE {name = hr00;}"
);
}
);
vertWidth = 1560;
width = 1200;
},
{
anchors = (
{
name = b.cedillacomb;
position = "{300, 0}";
},
{
name = bottom;
position = "{600, 0}";
},
{
name = m.cedillacomb;
position = "{300, 0}";
},
{
name = m.tildecomb;
position = "{300, 698}";
},
{
name = t.tildecomb;
position = "{300, 698}";
},
{
name = top;
position = "{600, 1396}";
}
);
layerId = master02;
paths = (
{
closed = 1;
nodes = (
"278 146 LINE",
"1070 1246 LINE",
"1070 1396 LINE",
"130 1396 LINE",
"130 1250 LINE",
"886 1250 LINE",
"96 150 LINE",
"96 0 LINE",
"1104 0 LINE",
"1104 146 LINE {name = hr00;}"
);
}
);
vertWidth = 1560;
width = 1200;
}
);
unicode = 005A;
},
{
glyphname = zero;
layers = (
{
layerId = master01;
paths = (
{
closed = 1;
nodes = (
"974 -24 OFFCURVE",
"1146 242 OFFCURVE",
"1146 698 CURVE SMOOTH",
"1146 1154 OFFCURVE",
"974 1420 OFFCURVE",
"600 1420 CURVE SMOOTH",
"226 1420 OFFCURVE",
"54 1154 OFFCURVE",
"54 698 CURVE SMOOTH",
"54 242 OFFCURVE",
"226 -24 OFFCURVE",
"600 -24 CURVE SMOOTH {name = hr00;}"
);
},
{
closed = 1;
nodes = (
"422 212 OFFCURVE",
"360 346 OFFCURVE",
"360 568 CURVE SMOOTH",
"360 828 LINE SMOOTH",
"360 1050 OFFCURVE",
"422 1184 OFFCURVE",
"600 1184 CURVE SMOOTH",
"778 1184 OFFCURVE",
"840 1050 OFFCURVE",
"840 828 CURVE SMOOTH",
"840 568 LINE",
"840 346 OFFCURVE",
"778 212 OFFCURVE",
"600 212 CURVE SMOOTH"
);
},
{
closed = 1;
nodes = (
"692 580 OFFCURVE",
"724 622 OFFCURVE",
"724 676 CURVE SMOOTH",
"724 720 LINE SMOOTH",
"724 774 OFFCURVE",
"692 816 OFFCURVE",
"600 816 CURVE SMOOTH",
"508 816 OFFCURVE",
"476 774 OFFCURVE",
"476 720 CURVE SMOOTH",
"476 676 LINE",
"476 622 OFFCURVE",
"508 580 OFFCURVE",
"600 580 CURVE SMOOTH"
);
}
);
vertWidth = 1560;
width = 1200;
},
{
layerId = master02;
paths = (
{
closed = 1;
nodes = (
"940 -24 OFFCURVE",
"1088 242 OFFCURVE",
"1088 698 CURVE SMOOTH",
"1088 1154 OFFCURVE",
"940 1420 OFFCURVE",
"600 1420 CURVE SMOOTH",
"260 1420 OFFCURVE",
"112 1154 OFFCURVE",
"112 698 CURVE SMOOTH",
"112 242 OFFCURVE",
"260 -24 OFFCURVE",
"600 -24 CURVE SMOOTH {name = hr00;}"
);
},
{
closed = 1;
nodes = (
"376 122 OFFCURVE",
"286 304 OFFCURVE",
"286 584 CURVE SMOOTH",
"286 812 LINE SMOOTH",
"286 1092 OFFCURVE",
"376 1274 OFFCURVE",
"600 1274 CURVE SMOOTH",
"824 1274 OFFCURVE",
"914 1092 OFFCURVE",
"914 812 CURVE SMOOTH",
"914 584 LINE",
"914 304 OFFCURVE",
"824 122 OFFCURVE",
"600 122 CURVE SMOOTH"
);
},
{
closed = 1;
nodes = (
"692 580 OFFCURVE",
"724 622 OFFCURVE",
"724 676 CURVE SMOOTH",
"724 720 LINE SMOOTH",
"724 774 OFFCURVE",
"692 816 OFFCURVE",
"600 816 CURVE SMOOTH",
"508 816 OFFCURVE",
"476 774 OFFCURVE",
"476 720 CURVE SMOOTH",
"476 676 LINE SMOOTH",
"476 622 OFFCURVE",
"508 580 OFFCURVE",
"600 580 CURVE SMOOTH"
);
}
);
vertWidth = 1560;
width = 1200;
}
);
unicode = 0030;
},
{
glyphname = zero.alt01;
layers = (
{
layerId = master01;
paths = (
{
closed = 1;
nodes = (
"974 -24 OFFCURVE",
"1146 242 OFFCURVE",
"1146 698 CURVE SMOOTH",
"1146 1154 OFFCURVE",
"974 1420 OFFCURVE",
"600 1420 CURVE SMOOTH",
"226 1420 OFFCURVE",
"54 1154 OFFCURVE",
"54 698 CURVE SMOOTH",
"54 242 OFFCURVE",
"226 -24 OFFCURVE",
"600 -24 CURVE SMOOTH {name = hr00;}"
);
},
{
closed = 1;
nodes = (
"706 1194 OFFCURVE",
"774 1148 OFFCURVE",
"810 1066 CURVE",
"350 564 LINE",
"348 572 OFFCURVE",
"348 578 OFFCURVE",
"348 584 CURVE",
"348 828 LINE SMOOTH",
"348 1058 OFFCURVE",
"414 1194 OFFCURVE",
"600 1194 CURVE SMOOTH"
);
},
{
closed = 1;
nodes = (
"494 202 OFFCURVE",
"426 248 OFFCURVE",
"390 330 CURVE",
"850 832 LINE",
"852 824 OFFCURVE",
"852 818 OFFCURVE",
"852 812 CURVE SMOOTH",
"852 568 LINE",
"852 338 OFFCURVE",
"786 202 OFFCURVE",
"600 202 CURVE SMOOTH"
);
}
);
vertWidth = 1560;
width = 1200;
},
{
layerId = master02;
paths = (
{
closed = 1;
nodes = (
"940 -24 OFFCURVE",
"1088 242 OFFCURVE",
"1088 698 CURVE SMOOTH",
"1088 1154 OFFCURVE",
"940 1420 OFFCURVE",
"600 1420 CURVE SMOOTH",
"260 1420 OFFCURVE",
"112 1154 OFFCURVE",
"112 698 CURVE SMOOTH",
"112 242 OFFCURVE",
"260 -24 OFFCURVE",
"600 -24 CURVE SMOOTH {name = hr00;}"
);
},
{
closed = 1;
nodes = (
"738 1274 OFFCURVE",
"826 1206 OFFCURVE",
"872 1086 CURVE",
"294 454 LINE",
"288 494 OFFCURVE",
"286 538 OFFCURVE",
"286 584 CURVE",
"286 812 LINE SMOOTH",
"286 1092 OFFCURVE",
"376 1274 OFFCURVE",
"600 1274 CURVE SMOOTH"
);
},
{
closed = 1;
nodes = (
"462 122 OFFCURVE",
"374 190 OFFCURVE",
"328 310 CURVE",
"906 942 LINE",
"912 902 OFFCURVE",
"914 858 OFFCURVE",
"914 812 CURVE SMOOTH",
"914 584 LINE SMOOTH",
"914 304 OFFCURVE",
"824 122 OFFCURVE",
"600 122 CURVE SMOOTH"
);
}
);
vertWidth = 1560;
width = 1200;
}
);
},
{
glyphname = one;
layers = (
{
layerId = master01;
paths = (
{
closed = 1;
nodes = (
"1160 242 LINE",
"864 242 LINE",
"864 1396 LINE",
"404 1396 LINE",
"70 956 LINE",
"262 806 LINE",
"546 1178 LINE",
"564 1178 LINE",
"564 242 LINE",
"188 242 LINE",
"188 0 LINE",
"1160 0 LINE {name = hr00;}"
);
}
);
vertWidth = 1560;
width = 1200;
},
{
layerId = master02;
paths = (
{
closed = 1;
nodes = (
"1106 146 LINE",
"738 146 LINE",
"738 1396 LINE",
"476 1396 LINE",
"106 1050 LINE",
"204 944 LINE",
"556 1272 LINE",
"570 1272 LINE",
"570 146 LINE",
"170 146 LINE",
"170 0 LINE",
"1106 0 LINE {name = hr00;}"
);
}
);
vertWidth = 1560;
width = 1200;
}
);
unicode = 0031;
},
{
glyphname = two;
layers = (
{
layerId = master01;
paths = (
{
closed = 1;
nodes = (
"438 252 LINE",
"704 458 LINE",
"914 618 OFFCURVE",
"1080 768 OFFCURVE",
"1080 1000 CURVE SMOOTH",
"1080 1242 OFFCURVE",
"904 1420 OFFCURVE",
"598 1420 CURVE SMOOTH",
"302 1420 OFFCURVE",
"138 1256 OFFCURVE",
"76 1064 CURVE",
"338 964 LINE",
"368 1070 OFFCURVE",
"434 1160 OFFCURVE",
"568 1160 CURVE SMOOTH",
"684 1160 OFFCURVE",
"760 1098 OFFCURVE",
"760 982 CURVE SMOOTH",
"760 962 LINE SMOOTH",
"760 856 OFFCURVE",
"698 770 OFFCURVE",
"546 640 CURVE",
"106 274 LINE",
"106 0 LINE",
"1110 0 LINE",
"1110 252 LINE {name = hr00;}"
);
}
);
vertWidth = 1560;
width = 1200;
},
{
layerId = master02;
paths = (
{
closed = 1;
nodes = (
"316 146 LINE",
"706 486 LINE SMOOTH",
"892 648 OFFCURVE",
"1018 804 OFFCURVE",
"1018 1016 CURVE SMOOTH",
"1018 1252 OFFCURVE",
"862 1420 OFFCURVE",
"584 1420 CURVE SMOOTH",
"310 1420 OFFCURVE",
"184 1256 OFFCURVE",
"130 1092 CURVE",
"280 1036 LINE",
"324 1180 OFFCURVE",
"410 1274 OFFCURVE",
"580 1274 CURVE SMOOTH",
"752 1274 OFFCURVE",
"842 1178 OFFCURVE",
"842 1010 CURVE SMOOTH",
"842 986 LINE SMOOTH",
"842 844 OFFCURVE",
"744 714 OFFCURVE",
"608 592 CURVE SMOOTH",
"142 172 LINE",
"142 0 LINE",
"1074 0 LINE",
"1074 146 LINE {name = hr00;}"
);
}
);
vertWidth = 1560;
width = 1200;
}
);
unicode = 0032;
},
{
glyphname = three;
layers = (
{
layerId = master01;
paths = (
{
closed = 1;
nodes = (
"414 594 LINE",
"544 594 LINE SMOOTH",
"700 594 OFFCURVE",
"794 536 OFFCURVE",
"794 422 CURVE SMOOTH",
"794 408 LINE SMOOTH",
"794 292 OFFCURVE",
"712 220 OFFCURVE",
"570 220 CURVE SMOOTH",
"416 220 OFFCURVE",
"332 302 OFFCURVE",
"270 416 CURVE",
"48 244 LINE",
"138 104 OFFCURVE",
"284 -24 OFFCURVE",
"564 -24 CURVE SMOOTH",
"894 -24 OFFCURVE",
"1110 138 OFFCURVE",
"1110 388 CURVE SMOOTH",
"1110 580 OFFCURVE",
"982 694 OFFCURVE",
"812 724 CURVE",
"812 736 LINE",
"960 762 OFFCURVE",
"1084 872 OFFCURVE",
"1084 1050 CURVE SMOOTH {name = hr01;}",
"1084 1274 OFFCURVE",
"886 1420 OFFCURVE",
"584 1420 CURVE SMOOTH",
"340 1420 OFFCURVE",
"202 1324 OFFCURVE",
"94 1186 CURVE",
"284 1010 LINE",
"354 1116 OFFCURVE",
"458 1176 OFFCURVE",
"572 1176 CURVE SMOOTH",
"696 1176 OFFCURVE",
"768 1110 OFFCURVE",
"768 1010 CURVE SMOOTH",
"768 996 LINE SMOOTH",
"768 910 OFFCURVE",
"700 844 OFFCURVE",
"546 844 CURVE SMOOTH",
"414 844 LINE"
);
}
);
vertWidth = 1560;
width = 1200;
},
{
layerId = master02;
paths = (
{
closed = 1;
nodes = (
"386 660 LINE",
"552 660 LINE SMOOTH",
"756 660 OFFCURVE",
"860 564 OFFCURVE",
"860 400 CURVE SMOOTH",
"860 384 LINE SMOOTH",
"860 218 OFFCURVE",
"750 122 OFFCURVE",
"554 122 CURVE SMOOTH",
"378 122 OFFCURVE",
"296 200 OFFCURVE",
"222 310 CURVE",
"96 214 LINE",
"182 94 OFFCURVE",
"308 -24 OFFCURVE",
"554 -24 CURVE SMOOTH",
"844 -24 OFFCURVE",
"1036 142 OFFCURVE",
"1036 382 CURVE SMOOTH",
"1036 592 OFFCURVE",
"890 704 OFFCURVE",
"736 734 CURVE",
"736 742 LINE",
"888 780 OFFCURVE",
"1008 888 OFFCURVE",
"1008 1068 CURVE SMOOTH {name = hr01;}",
"1008 1294 OFFCURVE",
"818 1420 OFFCURVE",
"580 1420 CURVE SMOOTH",
"352 1420 OFFCURVE",
"228 1304 OFFCURVE",
"156 1192 CURVE",
"282 1096 LINE",
"340 1202 OFFCURVE",
"428 1274 OFFCURVE",
"576 1274 CURVE SMOOTH",
"728 1274 OFFCURVE",
"832 1198 OFFCURVE",
"832 1050 CURVE SMOOTH",
"832 1036 LINE SMOOTH",
"832 902 OFFCURVE",
"734 804 OFFCURVE",
"540 804 CURVE SMOOTH",
"386 804 LINE"
);
}
);
vertWidth = 1560;
width = 1200;
}
);
unicode = 0033;
},
{
glyphname = four;
layers = (
{
layerId = master01;
paths = (
{
closed = 1;
nodes = (
"966 268 LINE",
"1146 268 LINE",
"1146 500 LINE",
"966 500 LINE",
"966 1396 LINE",
"606 1396 LINE",
"50 524 LINE",
"50 268 LINE",
"678 268 LINE",
"678 0 LINE",
"966 0 LINE {name = hr00;}"
);
},
{
closed = 1;
nodes = (
"678 1086 LINE",
"678 500 LINE",
"292 500 LINE",
"660 1086 LINE"
);
}
);
vertWidth = 1560;
width = 1200;
},
{
layerId = master02;
paths = (
{
closed = 1;
nodes = (
"916 274 LINE",
"1124 274 LINE",
"1124 412 LINE",
"916 412 LINE",
"916 1396 LINE",
"672 1396 LINE",
"68 422 LINE",
"68 274 LINE",
"756 274 LINE",
"756 0 LINE",
"916 0 LINE {name = hr00;}"
);
},
{
closed = 1;
nodes = (
"756 1266 LINE",
"756 412 LINE",
"218 412 LINE",
"748 1266 LINE"
);
}
);
vertWidth = 1560;
width = 1200;
}
);
unicode = 0034;
},
{
glyphname = five;
layers = (
{
layerId = master01;
paths = (
{
closed = 1;
nodes = (
"184 1396 LINE",
"132 606 LINE",
"378 572 LINE",
"416 614 OFFCURVE",
"488 670 OFFCURVE",
"600 670 CURVE SMOOTH",
"734 670 OFFCURVE",
"818 590 OFFCURVE",
"818 460 CURVE SMOOTH",
"818 444 LINE SMOOTH",
"818 308 OFFCURVE",
"740 220 OFFCURVE",
"592 220 CURVE",
"444 220 OFFCURVE",
"364 308 OFFCURVE",
"302 416 CURVE",
"84 244 LINE",
"170 104 OFFCURVE",
"316 -24 OFFCURVE",
"590 -24 CURVE SMOOTH",
"938 -24 OFFCURVE",
"1134 186 OFFCURVE",
"1134 468 CURVE SMOOTH",
"1134 748 OFFCURVE",
"938 912 OFFCURVE",
"708 912 CURVE SMOOTH",
"536 912 OFFCURVE",
"448 822 OFFCURVE",
"390 692 CURVE",
"372 692 LINE",
"404 1134 LINE",
"1050 1134 LINE",
"1050 1396 LINE {name = hr00;}"
);
}
);
vertWidth = 1560;
width = 1200;
},
{
layerId = master02;
paths = (
{
closed = 1;
nodes = (
"242 1396 LINE",
"192 628 LINE",
"334 608 LINE",
"394 674 OFFCURVE",
"458 726 OFFCURVE",
"590 726 CURVE SMOOTH",
"784 726 OFFCURVE",
"892 616 OFFCURVE",
"892 432 CURVE SMOOTH",
"892 416 LINE SMOOTH",
"892 234 OFFCURVE",
"786 122 OFFCURVE",
"594 122 CURVE",
"422 122 OFFCURVE",
"346 200 OFFCURVE",
"272 310 CURVE",
"146 214 LINE",
"232 94 OFFCURVE",
"354 -24 OFFCURVE",
"590 -24 CURVE SMOOTH",
"888 -24 OFFCURVE",
"1066 166 OFFCURVE",
"1066 438 CURVE SMOOTH",
"1066 708 OFFCURVE",
"888 868 OFFCURVE",
"644 868 CURVE SMOOTH",
"496 868 OFFCURVE",
"420 810 OFFCURVE",
"352 716 CURVE",
"338 716 LINE",
"378 1250 LINE",
"1002 1250 LINE",
"1002 1396 LINE {name = hr00;}"
);
}
);
vertWidth = 1560;
width = 1200;
}
);
unicode = 0035;
},
{
glyphname = six;
layers = (
{
layerId = master01;
paths = (
{
closed = 1;
nodes = (
"930 -24 OFFCURVE",
"1138 180 OFFCURVE",
"1138 464 CURVE SMOOTH",
"1138 730 OFFCURVE",
"958 900 OFFCURVE",
"724 900 CURVE SMOOTH",
"542 900 OFFCURVE",
"458 796 OFFCURVE",
"408 690 CURVE",
"390 696 LINE",
"448 966 OFFCURVE",
"654 1154 OFFCURVE",
"1000 1396 CURVE",
"586 1396 LINE",
"344 1234 OFFCURVE",
"76 922 OFFCURVE",
"76 530 CURVE SMOOTH",
"76 194 OFFCURVE",
"272 -24 OFFCURVE",
"608 -24 CURVE SMOOTH {name = hr00;}"
);
},
{
closed = 1;
nodes = (
"464 210 OFFCURVE",
"388 290 OFFCURVE",
"388 428 CURVE SMOOTH",
"388 456 LINE SMOOTH",
"388 594 OFFCURVE",
"470 670 OFFCURVE",
"606 670 CURVE SMOOTH",
"746 670 OFFCURVE",
"826 594 OFFCURVE",
"826 456 CURVE SMOOTH",
"826 428 LINE SMOOTH",
"826 290 OFFCURVE",
"750 210 OFFCURVE",
"606 210 CURVE SMOOTH"
);
}
);
vertWidth = 1560;
width = 1200;
},
{
layerId = master02;
paths = (
{
closed = 1;
nodes = (
"886 -24 OFFCURVE",
"1072 164 OFFCURVE",
"1072 438 CURVE SMOOTH",
"1072 702 OFFCURVE",
"898 868 OFFCURVE",
"654 868 CURVE SMOOTH",
"480 868 OFFCURVE",
"378 782 OFFCURVE",
"310 668 CURVE",
"300 672 LINE",
"378 996 OFFCURVE",
"546 1178 OFFCURVE",
"850 1396 CURVE",
"634 1396 LINE",
"406 1250 OFFCURVE",
"128 926 OFFCURVE",
"128 512 CURVE SMOOTH",
"128 180 OFFCURVE",
"308 -24 OFFCURVE",
"602 -24 CURVE SMOOTH {name = hr00;}"
);
},
{
closed = 1;
nodes = (
"410 118 OFFCURVE",
"298 228 OFFCURVE",
"298 416 CURVE SMOOTH",
"298 432 LINE SMOOTH",
"298 620 OFFCURVE",
"410 730 OFFCURVE",
"600 730 CURVE SMOOTH",
"790 730 OFFCURVE",
"902 620 OFFCURVE",
"902 432 CURVE SMOOTH",
"902 416 LINE SMOOTH",
"902 228 OFFCURVE",
"790 118 OFFCURVE",
"600 118 CURVE SMOOTH"
);
}
);
vertWidth = 1560;
width = 1200;
}
);
unicode = 0036;
},
{
glyphname = seven;
layers = (
{
layerId = master01;
paths = (
{
closed = 1;
nodes = (
"1106 1136 LINE",
"1106 1396 LINE",
"102 1396 LINE",
"102 898 LINE",
"356 898 LINE",
"356 1152 LINE",
"808 1152 LINE",
"328 0 LINE",
"644 0 LINE {name = hr00;}"
);
}
);
vertWidth = 1560;
width = 1200;
},
{
layerId = master02;
paths = (
{
closed = 1;
nodes = (
"1062 1248 LINE",
"1062 1396 LINE",
"130 1396 LINE",
"130 992 LINE",
"280 992 LINE",
"280 1252 LINE",
"892 1252 LINE",
"346 0 LINE",
"526 0 LINE {name = hr00;}"
);
}
);
vertWidth = 1560;
width = 1200;
}
);
unicode = 0037;
},
{
glyphname = eight;
layers = (
{
layerId = master01;
paths = (
{
closed = 1;
nodes = (
"936 -24 OFFCURVE",
"1128 148 OFFCURVE",
"1128 384 CURVE SMOOTH",
"1128 564 OFFCURVE",
"1012 676 OFFCURVE",
"850 720 CURVE",
"850 736 LINE",
"988 786 OFFCURVE",
"1086 890 OFFCURVE",
"1086 1052 CURVE SMOOTH {name = hr01;}",
"1086 1266 OFFCURVE",
"912 1420 OFFCURVE",
"600 1420 CURVE SMOOTH",
"288 1420 OFFCURVE",
"114 1266 OFFCURVE",
"114 1052 CURVE SMOOTH",
"114 890 OFFCURVE",
"212 786 OFFCURVE",
"350 736 CURVE",
"350 720 LINE",
"188 676 OFFCURVE",
"72 564 OFFCURVE",
"72 384 CURVE SMOOTH {name = hr02;}",
"72 148 OFFCURVE",
"264 -24 OFFCURVE",
"600 -24 CURVE SMOOTH"
);
},
{
closed = 1;
nodes = (
"462 206 OFFCURVE",
"386 276 OFFCURVE",
"386 384 CURVE SMOOTH",
"386 424 LINE SMOOTH",
"386 534 OFFCURVE",
"460 602 OFFCURVE",
"600 602 CURVE SMOOTH",
"740 602 OFFCURVE",
"814 534 OFFCURVE",
"814 424 CURVE SMOOTH",
"814 384 LINE SMOOTH",
"814 276 OFFCURVE",
"738 206 OFFCURVE",
"600 206 CURVE SMOOTH"
);
},
{
closed = 1;
nodes = (
"468 822 OFFCURVE",
"396 888 OFFCURVE",
"396 992 CURVE SMOOTH {name = hr03;}",
"396 1022 LINE SMOOTH",
"396 1126 OFFCURVE",
"470 1190 OFFCURVE",
"600 1190 CURVE SMOOTH",
"730 1190 OFFCURVE",
"804 1126 OFFCURVE",
"804 1022 CURVE SMOOTH",
"804 992 LINE SMOOTH",
"804 888 OFFCURVE",
"732 822 OFFCURVE",
"600 822 CURVE SMOOTH"
);
}
);
vertWidth = 1560;
width = 1200;
},
{
layerId = master02;
paths = (
{
closed = 1;
nodes = (
"924 -24 OFFCURVE",
"1090 150 OFFCURVE",
"1090 380 CURVE SMOOTH",
"1090 570 OFFCURVE",
"976 680 OFFCURVE",
"806 726 CURVE",
"806 742 LINE",
"954 792 OFFCURVE",
"1048 910 OFFCURVE",
"1048 1070 CURVE SMOOTH {name = hr01;}",
"1048 1282 OFFCURVE",
"882 1420 OFFCURVE",
"600 1420 CURVE SMOOTH",
"318 1420 OFFCURVE",
"152 1282 OFFCURVE",
"152 1070 CURVE SMOOTH",
"152 910 OFFCURVE",
"246 792 OFFCURVE",
"394 742 CURVE",
"394 726 LINE",
"224 680 OFFCURVE",
"110 570 OFFCURVE",
"110 380 CURVE SMOOTH {name = hr02;}",
"110 150 OFFCURVE",
"276 -24 OFFCURVE",
"600 -24 CURVE SMOOTH"
);
},
{
closed = 1;
nodes = (
"404 118 OFFCURVE",
"284 212 OFFCURVE",
"284 370 CURVE SMOOTH",
"284 414 LINE SMOOTH",
"284 574 OFFCURVE",
"400 666 OFFCURVE",
"600 666 CURVE SMOOTH",
"800 666 OFFCURVE",
"916 574 OFFCURVE",
"916 414 CURVE SMOOTH",
"916 370 LINE SMOOTH",
"916 212 OFFCURVE",
"796 118 OFFCURVE",
"600 118 CURVE SMOOTH"
);
},
{
closed = 1;
nodes = (
"420 802 OFFCURVE",
"322 884 OFFCURVE",
"322 1026 CURVE SMOOTH {name = hr03;}",
"322 1054 LINE SMOOTH",
"322 1196 OFFCURVE",
"424 1278 OFFCURVE",
"600 1278 CURVE SMOOTH",
"776 1278 OFFCURVE",
"878 1196 OFFCURVE",
"878 1054 CURVE SMOOTH",
"878 1026 LINE SMOOTH",
"878 884 OFFCURVE",
"780 802 OFFCURVE",
"600 802 CURVE SMOOTH"
);
}
);
vertWidth = 1560;
width = 1200;
}
);
unicode = 0038;
},
{
glyphname = nine;
layers = (
{
layerId = master01;
paths = (
{
closed = 1;
nodes = (
"1124 1202 OFFCURVE",
"928 1420 OFFCURVE",
"592 1420 CURVE SMOOTH",
"270 1420 OFFCURVE",
"62 1216 OFFCURVE",
"62 932 CURVE SMOOTH",
"62 666 OFFCURVE",
"242 496 OFFCURVE",
"476 496 CURVE SMOOTH",
"658 496 OFFCURVE",
"742 600 OFFCURVE",
"792 706 CURVE",
"810 700 LINE",
"752 430 OFFCURVE",
"546 242 OFFCURVE",
"200 0 CURVE",
"614 0 LINE",
"856 162 OFFCURVE",
"1124 474 OFFCURVE",
"1124 866 CURVE SMOOTH {name = hr00;}"
);
},
{
closed = 1;
nodes = (
"454 726 OFFCURVE",
"374 802 OFFCURVE",
"374 940 CURVE SMOOTH",
"374 968 LINE SMOOTH",
"374 1106 OFFCURVE",
"450 1186 OFFCURVE",
"594 1186 CURVE SMOOTH",
"736 1186 OFFCURVE",
"812 1106 OFFCURVE",
"812 968 CURVE SMOOTH",
"812 940 LINE SMOOTH",
"812 802 OFFCURVE",
"730 726 OFFCURVE",
"594 726 CURVE SMOOTH"
);
}
);
vertWidth = 1560;
width = 1200;
},
{
layerId = master02;
paths = (
{
closed = 1;
nodes = (
"1072 1216 OFFCURVE",
"892 1420 OFFCURVE",
"598 1420 CURVE SMOOTH",
"314 1420 OFFCURVE",
"128 1232 OFFCURVE",
"128 958 CURVE SMOOTH",
"128 694 OFFCURVE",
"302 528 OFFCURVE",
"546 528 CURVE SMOOTH",
"720 528 OFFCURVE",
"822 614 OFFCURVE",
"890 728 CURVE",
"900 724 LINE",
"822 400 OFFCURVE",
"654 218 OFFCURVE",
"350 0 CURVE",
"566 0 LINE",
"794 146 OFFCURVE",
"1072 470 OFFCURVE",
"1072 884 CURVE SMOOTH {name = hr00;}"
);
},
{
closed = 1;
nodes = (
"410 666 OFFCURVE",
"298 776 OFFCURVE",
"298 964 CURVE SMOOTH",
"298 980 LINE SMOOTH",
"298 1168 OFFCURVE",
"410 1278 OFFCURVE",
"600 1278 CURVE SMOOTH",
"790 1278 OFFCURVE",
"902 1168 OFFCURVE",
"902 980 CURVE SMOOTH",
"902 964 LINE SMOOTH",
"902 776 OFFCURVE",
"790 666 OFFCURVE",
"600 666 CURVE SMOOTH"
);
}
);
vertWidth = 1560;
width = 1200;
}
);
unicode = 0039;
},
{
glyphname = ampersand;
layers = (
{
layerId = master01;
paths = (
{
closed = 1;
nodes = (
"578 -24 OFFCURVE",
"690 58 OFFCURVE",
"708 194 CURVE",
"722 194 LINE",
"882 0 LINE {name = hr01;}",
"1198 0 LINE",
"938 316 LINE",
"980 410 OFFCURVE",
"1006 500 OFFCURVE",
"1020 584 CURVE",
"1160 584 LINE",
"1160 804 LINE",
"804 804 LINE",
"804 716 OFFCURVE",
"798 576 OFFCURVE",
"782 486 CURVE",
"770 486 LINE",
"674 634 LINE",
"560 778 LINE SMOOTH",
"434 938 OFFCURVE",
"394 984 OFFCURVE",
"394 1060 CURVE SMOOTH",
"394 1070 LINE SMOOTH",
"394 1146 OFFCURVE",
"448 1200 OFFCURVE",
"528 1200 CURVE SMOOTH",
"608 1200 OFFCURVE",
"674 1148 OFFCURVE",
"702 1062 CURVE",
"906 1172 LINE",
"864 1300 OFFCURVE",
"724 1420 OFFCURVE",
"524 1420 CURVE SMOOTH",
"300 1420 OFFCURVE",
"134 1268 OFFCURVE",
"134 1068 CURVE SMOOTH",
"134 966 OFFCURVE",
"178 880 OFFCURVE",
"264 762 CURVE",
"110 672 OFFCURVE",
"28 548 OFFCURVE",
"28 380 CURVE SMOOTH {name = hr02;}",
"28 164 OFFCURVE",
"164 -24 OFFCURVE",
"414 -24 CURVE SMOOTH"
);
},
{
closed = 1;
nodes = (
"374 202 OFFCURVE",
"300 270 OFFCURVE",
"300 396 CURVE",
"300 400 LINE",
"300 476 OFFCURVE",
"316 544 OFFCURVE",
"384 610 CURVE",
"642 282 LINE",
"606 222 OFFCURVE",
"548 202 OFFCURVE",
"488 202 CURVE SMOOTH"
);
}
);
vertWidth = 1560;
width = 1200;
},
{
layerId = master02;
paths = (
{
closed = 1;
nodes = (
"614 -24 OFFCURVE",
"732 68 OFFCURVE",
"770 206 CURVE",
"780 206 LINE",
"954 0 LINE {name = hr01;}",
"1144 0 LINE",
"900 288 LINE",
"946 412 OFFCURVE",
"954 500 OFFCURVE",
"972 628 CURVE",
"1122 628 LINE",
"1122 762 LINE",
"840 762 LINE",
"834 634 OFFCURVE",
"832 492 OFFCURVE",
"814 388 CURVE",
"804 388 LINE",
"658 568 LINE",
"478 790 LINE",
"376 918 OFFCURVE",
"336 988 OFFCURVE",
"336 1072 CURVE SMOOTH",
"336 1088 LINE SMOOTH",
"336 1202 OFFCURVE",
"412 1284 OFFCURVE",
"532 1284 CURVE SMOOTH",
"636 1284 OFFCURVE",
"706 1222 OFFCURVE",
"740 1140 CURVE",
"872 1208 LINE",
"834 1310 OFFCURVE",
"718 1420 OFFCURVE",
"540 1420 CURVE SMOOTH",
"342 1420 OFFCURVE",
"178 1284 OFFCURVE",
"178 1082 CURVE SMOOTH",
"178 964 OFFCURVE",
"234 864 OFFCURVE",
"308 768 CURVE",
"108 666 OFFCURVE",
"50 502 OFFCURVE",
"50 362 CURVE SMOOTH {name = hr02;}",
"50 148 OFFCURVE",
"190 -24 OFFCURVE",
"434 -24 CURVE SMOOTH"
);
},
{
closed = 1;
nodes = (
"322 118 OFFCURVE",
"216 210 OFFCURVE",
"216 354 CURVE SMOOTH",
"216 384 LINE SMOOTH",
"216 498 OFFCURVE",
"262 598 OFFCURVE",
"384 674 CURVE",
"732 254 LINE",
"682 168 OFFCURVE",
"590 118 OFFCURVE",
"476 118 CURVE SMOOTH"
);
}
);
vertWidth = 1560;
width = 1200;
}
);
unicode = 0026;
},
{
glyphname = at;
layers = (
{
layerId = master01;
paths = (
{
closed = 1;
nodes = (
"682 -34 LINE SMOOTH",
"406 -34 OFFCURVE",
"300 148 OFFCURVE",
"300 458 CURVE SMOOTH",
"300 716 LINE SMOOTH",
"300 1118 OFFCURVE",
"418 1230 OFFCURVE",
"614 1230 CURVE SMOOTH",
"780 1230 OFFCURVE",
"892 1152 OFFCURVE",
"892 926 CURVE SMOOTH",
"892 872 LINE",
"878 872 LINE",
"848 970 OFFCURVE",
"782 1018 OFFCURVE",
"690 1018 CURVE SMOOTH",
"534 1018 OFFCURVE",
"442 884 OFFCURVE",
"442 588 CURVE SMOOTH",
"442 292 OFFCURVE",
"534 158 OFFCURVE",
"690 158 CURVE SMOOTH",
"782 158 OFFCURVE",
"848 206 OFFCURVE",
"878 304 CURVE",
"892 304 LINE",
"892 182 LINE",
"1106 182 LINE",
"1106 926 LINE SMOOTH",
"1106 1204 OFFCURVE",
"948 1420 OFFCURVE",
"602 1420 CURVE SMOOTH",
"264 1420 OFFCURVE",
"76 1216 OFFCURVE",
"76 610 CURVE SMOOTH",
"76 48 OFFCURVE",
"238 -226 OFFCURVE",
"682 -226 CURVE SMOOTH",
"892 -226 LINE",
"892 -34 LINE {name = hr00;}"
);
},
{
closed = 1;
nodes = (
"706 330 OFFCURVE",
"666 374 OFFCURVE",
"666 522 CURVE",
"666 654 LINE SMOOTH",
"666 802 OFFCURVE",
"706 846 OFFCURVE",
"778 846 CURVE SMOOTH",
"852 846 OFFCURVE",
"892 800 OFFCURVE",
"892 728 CURVE SMOOTH",
"892 448 LINE SMOOTH",
"892 376 OFFCURVE",
"852 330 OFFCURVE",
"778 330 CURVE SMOOTH"
);
}
);
vertWidth = 1560;
width = 1200;
},
{
layerId = master02;
paths = (
{
closed = 1;
nodes = (
"662 -96 LINE SMOOTH",
"344 -96 OFFCURVE",
"274 148 OFFCURVE",
"274 458 CURVE SMOOTH",
"274 716 LINE SMOOTH",
"274 1118 OFFCURVE",
"368 1292 OFFCURVE",
"606 1292 CURVE SMOOTH",
"820 1292 OFFCURVE",
"908 1152 OFFCURVE",
"908 926 CURVE SMOOTH",
"908 878 LINE",
"898 878 LINE",
"872 946 OFFCURVE",
"816 1016 OFFCURVE",
"698 1016 CURVE SMOOTH",
"536 1016 OFFCURVE",
"432 882 OFFCURVE",
"432 586 CURVE SMOOTH",
"432 292 OFFCURVE",
"536 158 OFFCURVE",
"698 158 CURVE SMOOTH",
"816 158 OFFCURVE",
"872 228 OFFCURVE",
"898 296 CURVE",
"908 296 LINE",
"908 182 LINE",
"1050 182 LINE",
"1050 926 LINE SMOOTH",
"1050 1206 OFFCURVE",
"922 1420 OFFCURVE",
"602 1420 CURVE SMOOTH",
"290 1420 OFFCURVE",
"124 1218 OFFCURVE",
"124 600 CURVE SMOOTH",
"124 48 OFFCURVE",
"256 -224 OFFCURVE",
"662 -224 CURVE SMOOTH",
"908 -224 LINE",
"908 -96 LINE {name = hr00;}"
);
},
{
closed = 1;
nodes = (
"640 278 OFFCURVE",
"580 348 OFFCURVE",
"580 526 CURVE",
"580 648 LINE SMOOTH",
"580 826 OFFCURVE",
"640 896 OFFCURVE",
"750 896 CURVE SMOOTH",
"846 896 OFFCURVE",
"908 842 OFFCURVE",
"908 740 CURVE SMOOTH",
"908 434 LINE SMOOTH",
"908 332 OFFCURVE",
"846 278 OFFCURVE",
"750 278 CURVE SMOOTH"
);
}
);
vertWidth = 1560;
width = 1200;
}
);
unicode = 0040;
},
{
glyphname = hyphen;
layers = (
{
layerId = master01;
paths = (
{
closed = 1;
nodes = (
"920 752 LINE",
"280 752 LINE",
"280 468 LINE",
"920 468 LINE {name = hr00;}"
);
}
);
vertWidth = 1560;
width = 1200;
},
{
layerId = master02;
paths = (
{
closed = 1;
nodes = (
"890 692 LINE",
"310 692 LINE",
"310 524 LINE",
"890 524 LINE {name = hr00;}"
);
}
);
vertWidth = 1560;
width = 1200;
}
);
unicode = 002D;
},
{
glyphname = endash;
layers = (
{
layerId = master01;
paths = (
{
closed = 1;
nodes = (
"1080 730 LINE",
"120 730 LINE",
"120 488 LINE",
"1080 488 LINE {name = hr00;}"
);
}
);
vertWidth = 1560;
width = 1200;
},
{
layerId = master02;
paths = (
{
closed = 1;
nodes = (
"1080 682 LINE",
"120 682 LINE",
"120 534 LINE",
"1080 534 LINE {name = hr00;}"
);
}
);
vertWidth = 1560;
width = 1200;
}
);
unicode = 2013;
},
{
glyphname = emdash;
layers = (
{
layerId = master01;
paths = (
{
closed = 1;
nodes = (
"1200 730 LINE",
"0 730 LINE",
"0 488 LINE",
"1200 488 LINE {name = hr00;}"
);
}
);
vertWidth = 1560;
width = 1200;
},
{
layerId = master02;
paths = (
{
closed = 1;
nodes = (
"1200 682 LINE",
"0 682 LINE",
"0 534 LINE",
"1200 534 LINE {name = hr00;}"
);
}
);
vertWidth = 1560;
width = 1200;
}
);
unicode = 2014;
},
{
glyphname = underscore;
layers = (
{
layerId = master01;
paths = (
{
closed = 1;
nodes = (
"1080 -142 LINE",
"120 -142 LINE",
"120 -384 LINE",
"1080 -384 LINE {name = hr00;}"
);
}
);
vertWidth = 1560;
width = 1200;
},
{
layerId = master02;
paths = (
{
closed = 1;
nodes = (
"1080 -190 LINE",
"120 -190 LINE",
"120 -338 LINE",
"1080 -338 LINE {name = hr00;}"
);
}
);
vertWidth = 1560;
width = 1200;
}
);
unicode = 005F;
},
{
glyphname = period;
layers = (
{
layerId = master01;
paths = (
{
closed = 1;
nodes = (
"750 -24 OFFCURVE",
"810 52 OFFCURVE",
"810 142 CURVE SMOOTH",
"810 212 LINE",
"810 302 OFFCURVE",
"750 378 OFFCURVE",
"600 378 CURVE SMOOTH",
"450 378 OFFCURVE",
"390 302 OFFCURVE",
"390 212 CURVE SMOOTH",
"390 142 LINE SMOOTH",
"390 52 OFFCURVE",
"450 -24 OFFCURVE",
"600 -24 CURVE SMOOTH {name = hr00;}"
);
}
);
vertWidth = 1560;
width = 1200;
},
{
layerId = master02;
paths = (
{
closed = 1;
nodes = (
"708 -18 OFFCURVE",
"748 34 OFFCURVE",
"748 102 CURVE SMOOTH",
"748 138 LINE SMOOTH",
"748 206 OFFCURVE",
"708 258 OFFCURVE",
"600 258 CURVE SMOOTH",
"492 258 OFFCURVE",
"452 206 OFFCURVE",
"452 138 CURVE SMOOTH",
"452 102 LINE SMOOTH",
"452 34 OFFCURVE",
"492 -18 OFFCURVE",
"600 -18 CURVE SMOOTH {name = hr00;}"
);
}
);
vertWidth = 1560;
width = 1200;
}
);
unicode = 002E;
},
{
glyphname = ellipsis;
layers = (
{
layerId = master01;
paths = (
{
closed = 1;
nodes = (
"300 -14 OFFCURVE",
"348 36 OFFCURVE",
"348 94 CURVE SMOOTH",
"348 186 LINE SMOOTH",
"348 244 OFFCURVE",
"300 294 OFFCURVE",
"204 294 CURVE SMOOTH",
"104 294 OFFCURVE",
"58 244 OFFCURVE",
"58 186 CURVE SMOOTH",
"58 94 LINE SMOOTH",
"58 36 OFFCURVE",
"104 -14 OFFCURVE",
"204 -14 CURVE SMOOTH {name = hr00;}"
);
},
{
closed = 1;
nodes = (
"698 -14 OFFCURVE",
"746 36 OFFCURVE",
"746 94 CURVE SMOOTH",
"746 186 LINE SMOOTH",
"746 244 OFFCURVE",
"698 294 OFFCURVE",
"600 294 CURVE SMOOTH",
"502 294 OFFCURVE",
"454 244 OFFCURVE",
"454 186 CURVE SMOOTH",
"454 94 LINE SMOOTH",
"454 36 OFFCURVE",
"502 -14 OFFCURVE",
"600 -14 CURVE SMOOTH"
);
},
{
closed = 1;
nodes = (
"1094 -14 OFFCURVE",
"1142 36 OFFCURVE",
"1142 94 CURVE SMOOTH",
"1142 186 LINE SMOOTH",
"1142 244 OFFCURVE",
"1094 294 OFFCURVE",
"996 294 CURVE SMOOTH",
"900 294 OFFCURVE",
"852 244 OFFCURVE",
"852 186 CURVE SMOOTH",
"852 94 LINE SMOOTH",
"852 36 OFFCURVE",
"900 -14 OFFCURVE",
"996 -14 CURVE SMOOTH"
);
}
);
vertWidth = 1560;
width = 1200;
},
{
layerId = master02;
paths = (
{
closed = 1;
nodes = (
"306 -8 OFFCURVE",
"340 36 OFFCURVE",
"340 94 CURVE SMOOTH",
"340 152 LINE SMOOTH",
"340 210 OFFCURVE",
"306 254 OFFCURVE",
"214 254 CURVE SMOOTH",
"122 254 OFFCURVE",
"88 210 OFFCURVE",
"88 152 CURVE SMOOTH",
"88 94 LINE SMOOTH",
"88 36 OFFCURVE",
"122 -8 OFFCURVE",
"214 -8 CURVE SMOOTH {name = hr00;}"
);
},
{
closed = 1;
nodes = (
"692 -8 OFFCURVE",
"726 36 OFFCURVE",
"726 94 CURVE SMOOTH",
"726 152 LINE SMOOTH",
"726 210 OFFCURVE",
"692 254 OFFCURVE",
"600 254 CURVE SMOOTH",
"508 254 OFFCURVE",
"474 210 OFFCURVE",
"474 152 CURVE SMOOTH",
"474 94 LINE SMOOTH",
"474 36 OFFCURVE",
"508 -8 OFFCURVE",
"600 -8 CURVE SMOOTH"
);
},
{
closed = 1;
nodes = (
"1078 -8 OFFCURVE",
"1112 36 OFFCURVE",
"1112 94 CURVE SMOOTH",
"1112 152 LINE SMOOTH",
"1112 210 OFFCURVE",
"1078 254 OFFCURVE",
"986 254 CURVE SMOOTH",
"894 254 OFFCURVE",
"860 210 OFFCURVE",
"860 152 CURVE SMOOTH",
"860 94 LINE SMOOTH",
"860 36 OFFCURVE",
"894 -8 OFFCURVE",
"986 -8 CURVE SMOOTH"
);
}
);
vertWidth = 1560;
width = 1200;
}
);
unicode = 2026;
},
{
glyphname = comma;
layers = (
{
layerId = master01;
paths = (
{
closed = 1;
nodes = (
"560 -302 LINE",
"834 348 LINE",
"454 348 LINE",
"340 -302 LINE {name = hr00;}"
);
}
);
vertWidth = 1560;
width = 1200;
},
{
layerId = master02;
paths = (
{
closed = 1;
nodes = (
"542 -282 LINE",
"772 272 LINE",
"514 272 LINE",
"408 -282 LINE {name = hr00;}"
);
}
);
vertWidth = 1560;
width = 1200;
}
);
unicode = 002C;
},
{
glyphname = quotesingle;
layers = (
{
layerId = master01;
paths = (
{
closed = 1;
nodes = (
"732 1480 LINE",
"468 1480 LINE",
"468 828 LINE",
"732 828 LINE {name = hr00;}"
);
}
);
vertWidth = 1560;
width = 1200;
},
{
layerId = master02;
paths = (
{
closed = 1;
nodes = (
"676 1480 LINE",
"524 1480 LINE",
"524 926 LINE",
"676 926 LINE {name = hr00;}"
);
}
);
vertWidth = 1560;
width = 1200;
}
);
unicode = 0027;
},
{
glyphname = quoteleft;
layers = (
{
layerId = master01;
paths = (
{
closed = 1;
nodes = (
"704 828 LINE",
"818 1480 LINE",
"600 1480 LINE",
"324 828 LINE {name = hr00;}"
);
}
);
vertWidth = 1560;
width = 1200;
},
{
layerId = master02;
paths = (
{
closed = 1;
nodes = (
"648 926 LINE",
"754 1480 LINE",
"620 1480 LINE",
"390 926 LINE {name = hr00;}"
);
}
);
vertWidth = 1560;
width = 1200;
}
);
unicode = 2018;
},
{
glyphname = quoteright;
layers = (
{
layerId = master01;
paths = (
{
closed = 1;
nodes = (
"600 828 LINE",
"876 1480 LINE",
"496 1480 LINE",
"382 828 LINE {name = hr00;}"
);
}
);
vertWidth = 1560;
width = 1200;
},
{
layerId = master02;
paths = (
{
closed = 1;
nodes = (
"580 926 LINE",
"810 1480 LINE",
"552 1480 LINE",
"446 926 LINE {name = hr00;}"
);
}
);
vertWidth = 1560;
width = 1200;
}
);
unicode = 2019;
},
{
glyphname = quotesinglbase;
layers = (
{
layerId = master01;
paths = (
{
closed = 1;
nodes = (
"560 -302 LINE",
"834 348 LINE",
"454 348 LINE",
"340 -302 LINE {name = hr00;}"
);
}
);
vertWidth = 1560;
width = 1200;
},
{
layerId = master02;
paths = (
{
closed = 1;
nodes = (
"542 -282 LINE",
"772 272 LINE",
"514 272 LINE",
"408 -282 LINE {name = hr00;}"
);
}
);
vertWidth = 1560;
width = 1200;
}
);
unicode = 201A;
},
{
glyphname = guilsinglleft;
layers = (
{
layerId = master01;
paths = (
{
closed = 1;
nodes = (
"576 544 LINE",
"836 820 LINE",
"746 1012 LINE",
"346 676 LINE",
"346 412 LINE",
"746 76 LINE",
"836 266 LINE {name = hr00;}"
);
}
);
vertWidth = 1560;
width = 1200;
},
{
layerId = master02;
paths = (
{
closed = 1;
nodes = (
"506 540 LINE",
"802 854 LINE",
"752 968 LINE",
"340 620 LINE",
"340 460 LINE",
"752 112 LINE",
"802 226 LINE {name = hr00;}"
);
}
);
vertWidth = 1560;
width = 1200;
}
);
unicode = 2039;
},
{
glyphname = guilsinglright;
layers = (
{
layerId = master01;
paths = (
{
closed = 1;
nodes = (
"854 412 LINE",
"854 676 LINE",
"454 1012 LINE",
"364 820 LINE",
"624 544 LINE",
"364 266 LINE",
"454 76 LINE {name = hr00;}"
);
}
);
vertWidth = 1560;
width = 1200;
},
{
layerId = master02;
paths = (
{
closed = 1;
nodes = (
"860 460 LINE",
"860 620 LINE",
"448 968 LINE",
"398 854 LINE",
"694 540 LINE",
"398 226 LINE",
"448 112 LINE {name = hr00;}"
);
}
);
vertWidth = 1560;
width = 1200;
}
);
unicode = 203A;
},
{
glyphname = exclamdown;
layers = (
{
layerId = master01;
paths = (
{
closed = 1;
nodes = (
"762 42 LINE",
"648 546 LINE",
"552 546 LINE",
"438 42 LINE",
"438 -364 LINE",
"762 -364 LINE"
);
},
{
closed = 1;
nodes = (
"742 682 OFFCURVE",
"796 752 OFFCURVE",
"796 836 CURVE SMOOTH {name = hr01;}",
"796 900 LINE SMOOTH",
"796 986 OFFCURVE",
"742 1056 OFFCURVE",
"600 1056 CURVE SMOOTH",
"458 1056 OFFCURVE",
"404 986 OFFCURVE",
"404 900 CURVE SMOOTH",
"404 836 LINE SMOOTH",
"404 752 OFFCURVE",
"458 682 OFFCURVE",
"600 682 CURVE SMOOTH"
);
}
);
vertWidth = 1560;
width = 1200;
},
{
layerId = master02;
paths = (
{
closed = 1;
nodes = (
"688 42 LINE",
"632 566 LINE",
"568 566 LINE",
"512 42 LINE",
"512 -364 LINE",
"688 -364 LINE"
);
},
{
closed = 1;
nodes = (
"708 774 OFFCURVE",
"748 826 OFFCURVE",
"748 894 CURVE SMOOTH {name = hr01;}",
"748 930 LINE SMOOTH",
"748 998 OFFCURVE",
"708 1050 OFFCURVE",
"600 1050 CURVE SMOOTH",
"492 1050 OFFCURVE",
"452 998 OFFCURVE",
"452 930 CURVE SMOOTH",
"452 894 LINE SMOOTH",
"452 826 OFFCURVE",
"492 774 OFFCURVE",
"600 774 CURVE SMOOTH"
);
}
);
vertWidth = 1560;
width = 1200;
}
);
unicode = 00A1;
},
{
glyphname = exclam;
layers = (
{
layerId = master01;
paths = (
{
closed = 1;
nodes = (
"762 990 LINE",
"762 1396 LINE",
"438 1396 LINE",
"438 990 LINE",
"552 486 LINE",
"648 486 LINE"
);
},
{
closed = 1;
nodes = (
"742 -24 OFFCURVE",
"796 46 OFFCURVE",
"796 132 CURVE SMOOTH {name = hr01;}",
"796 196 LINE SMOOTH",
"796 280 OFFCURVE",
"742 350 OFFCURVE",
"600 350 CURVE SMOOTH",
"458 350 OFFCURVE",
"404 280 OFFCURVE",
"404 196 CURVE SMOOTH",
"404 132 LINE SMOOTH",
"404 46 OFFCURVE",
"458 -24 OFFCURVE",
"600 -24 CURVE SMOOTH"
);
}
);
vertWidth = 1560;
width = 1200;
},
{
layerId = master02;
paths = (
{
closed = 1;
nodes = (
"688 990 LINE",
"688 1396 LINE",
"512 1396 LINE",
"512 990 LINE",
"568 466 LINE",
"632 466 LINE"
);
},
{
closed = 1;
nodes = (
"708 -18 OFFCURVE",
"748 34 OFFCURVE",
"748 102 CURVE SMOOTH {name = hr01;}",
"748 138 LINE SMOOTH",
"748 206 OFFCURVE",
"708 258 OFFCURVE",
"600 258 CURVE SMOOTH",
"492 258 OFFCURVE",
"452 206 OFFCURVE",
"452 138 CURVE SMOOTH",
"452 102 LINE SMOOTH",
"452 34 OFFCURVE",
"492 -18 OFFCURVE",
"600 -18 CURVE SMOOTH"
);
}
);
vertWidth = 1560;
width = 1200;
}
);
unicode = 0021;
},
{
glyphname = questiondown;
layers = (
{
layerId = master01;
paths = (
{
closed = 1;
nodes = (
"894 -388 OFFCURVE",
"1032 -228 OFFCURVE",
"1078 -68 CURVE",
"834 34 LINE",
"808 -66 OFFCURVE",
"736 -136 OFFCURVE",
"628 -136 CURVE SMOOTH",
"532 -136 OFFCURVE",
"458 -90 OFFCURVE",
"458 20 CURVE SMOOTH",
"458 48 LINE SMOOTH",
"458 200 OFFCURVE",
"584 252 OFFCURVE",
"784 260 CURVE",
"784 566 LINE",
"504 566 LINE",
"504 422 LINE",
"312 390 OFFCURVE",
"146 248 OFFCURVE",
"146 22 CURVE SMOOTH",
"146 -220 OFFCURVE",
"334 -388 OFFCURVE",
"618 -388 CURVE SMOOTH"
);
},
{
closed = 1;
nodes = (
"780 682 OFFCURVE",
"836 752 OFFCURVE",
"836 836 CURVE SMOOTH {name = hr01;}",
"836 900 LINE SMOOTH",
"836 986 OFFCURVE",
"780 1056 OFFCURVE",
"640 1056 CURVE SMOOTH",
"498 1056 OFFCURVE",
"442 986 OFFCURVE",
"442 900 CURVE SMOOTH",
"442 836 LINE SMOOTH",
"442 752 OFFCURVE",
"498 682 OFFCURVE",
"640 682 CURVE SMOOTH"
);
}
);
vertWidth = 1560;
width = 1200;
},
{
layerId = master02;
paths = (
{
closed = 1;
nodes = (
"854 -388 OFFCURVE",
"994 -240 OFFCURVE",
"1046 -64 CURVE",
"896 -8 LINE",
"860 -142 OFFCURVE",
"764 -242 OFFCURVE",
"604 -242 CURVE SMOOTH",
"450 -242 OFFCURVE",
"354 -166 OFFCURVE",
"354 -18 CURVE SMOOTH",
"354 10 LINE SMOOTH",
"354 190 OFFCURVE",
"494 278 OFFCURVE",
"722 288 CURVE",
"722 602 LINE",
"564 602 LINE",
"564 400 LINE",
"376 366 OFFCURVE",
"180 242 OFFCURVE",
"180 -10 CURVE SMOOTH",
"180 -240 OFFCURVE",
"344 -388 OFFCURVE",
"598 -388 CURVE SMOOTH {name = hr00;}"
);
},
{
closed = 1;
nodes = (
"744 774 OFFCURVE",
"784 826 OFFCURVE",
"784 894 CURVE SMOOTH",
"784 930 LINE SMOOTH",
"784 998 OFFCURVE",
"744 1050 OFFCURVE",
"636 1050 CURVE SMOOTH",
"528 1050 OFFCURVE",
"488 998 OFFCURVE",
"488 930 CURVE SMOOTH",
"488 894 LINE SMOOTH",
"488 826 OFFCURVE",
"528 774 OFFCURVE",
"636 774 CURVE SMOOTH"
);
}
);
vertWidth = 1560;
width = 1200;
}
);
unicode = 00BF;
},
{
glyphname = question;
layers = (
{
layerId = master01;
paths = (
{
closed = 1;
nodes = (
"696 610 LINE",
"888 642 OFFCURVE",
"1054 784 OFFCURVE",
"1054 1010 CURVE SMOOTH",
"1054 1252 OFFCURVE",
"866 1420 OFFCURVE",
"582 1420 CURVE SMOOTH",
"306 1420 OFFCURVE",
"168 1260 OFFCURVE",
"122 1100 CURVE",
"366 998 LINE",
"392 1098 OFFCURVE",
"464 1168 OFFCURVE",
"572 1168 CURVE SMOOTH",
"668 1168 OFFCURVE",
"742 1122 OFFCURVE",
"742 1012 CURVE SMOOTH",
"742 984 LINE SMOOTH",
"742 832 OFFCURVE",
"616 780 OFFCURVE",
"416 772 CURVE",
"416 466 LINE",
"696 466 LINE"
);
},
{
closed = 1;
nodes = (
"702 -24 OFFCURVE",
"758 46 OFFCURVE",
"758 132 CURVE SMOOTH {name = hr01;}",
"758 196 LINE SMOOTH",
"758 280 OFFCURVE",
"702 350 OFFCURVE",
"560 350 CURVE SMOOTH",
"420 350 OFFCURVE",
"364 280 OFFCURVE",
"364 196 CURVE SMOOTH",
"364 132 LINE SMOOTH",
"364 46 OFFCURVE",
"420 -24 OFFCURVE",
"560 -24 CURVE SMOOTH"
);
}
);
vertWidth = 1560;
width = 1200;
},
{
layerId = master02;
paths = (
{
closed = 1;
nodes = (
"636 632 LINE",
"824 666 OFFCURVE",
"1020 790 OFFCURVE",
"1020 1042 CURVE SMOOTH",
"1020 1272 OFFCURVE",
"856 1420 OFFCURVE",
"602 1420 CURVE SMOOTH",
"346 1420 OFFCURVE",
"206 1272 OFFCURVE",
"154 1096 CURVE",
"304 1040 LINE",
"340 1174 OFFCURVE",
"436 1274 OFFCURVE",
"596 1274 CURVE SMOOTH",
"750 1274 OFFCURVE",
"846 1198 OFFCURVE",
"846 1050 CURVE SMOOTH",
"846 1022 LINE SMOOTH",
"846 842 OFFCURVE",
"706 754 OFFCURVE",
"478 744 CURVE",
"478 430 LINE",
"636 430 LINE"
);
},
{
closed = 1;
nodes = (
"672 -18 OFFCURVE",
"712 34 OFFCURVE",
"712 102 CURVE SMOOTH {name = hr01;}",
"712 138 LINE SMOOTH",
"712 206 OFFCURVE",
"672 258 OFFCURVE",
"564 258 CURVE SMOOTH",
"456 258 OFFCURVE",
"416 206 OFFCURVE",
"416 138 CURVE SMOOTH",
"416 102 LINE SMOOTH",
"416 34 OFFCURVE",
"456 -18 OFFCURVE",
"564 -18 CURVE SMOOTH"
);
}
);
vertWidth = 1560;
width = 1200;
}
);
unicode = 003F;
},
{
glyphname = parenleft;
layers = (
{
layerId = master01;
paths = (
{
closed = 1;
nodes = (
"348 232 OFFCURVE",
"538 -108 OFFCURVE",
"764 -276 CURVE",
"1060 -276 LINE",
"812 -106 OFFCURVE",
"596 186 OFFCURVE",
"596 520 CURVE SMOOTH",
"596 724 LINE SMOOTH",
"596 1058 OFFCURVE",
"812 1350 OFFCURVE",
"1060 1520 CURVE",
"764 1520 LINE",
"538 1352 OFFCURVE",
"348 1012 OFFCURVE",
"348 622 CURVE SMOOTH {name = hr00;}"
);
}
);
vertWidth = 1560;
width = 1200;
},
{
layerId = master02;
paths = (
{
closed = 1;
nodes = (
"410 232 OFFCURVE",
"600 -108 OFFCURVE",
"826 -276 CURVE",
"988 -276 LINE",
"756 -102 OFFCURVE",
"560 194 OFFCURVE",
"560 536 CURVE SMOOTH",
"560 708 LINE SMOOTH",
"560 1050 OFFCURVE",
"756 1346 OFFCURVE",
"988 1520 CURVE",
"826 1520 LINE",
"600 1352 OFFCURVE",
"410 1012 OFFCURVE",
"410 622 CURVE SMOOTH {name = hr00;}"
);
}
);
vertWidth = 1560;
width = 1200;
}
);
unicode = 0028;
},
{
glyphname = parenright;
layers = (
{
layerId = master01;
paths = (
{
closed = 1;
nodes = (
"852 1012 OFFCURVE",
"662 1352 OFFCURVE",
"436 1520 CURVE",
"140 1520 LINE",
"388 1350 OFFCURVE",
"604 1058 OFFCURVE",
"604 724 CURVE SMOOTH",
"604 520 LINE SMOOTH",
"604 186 OFFCURVE",
"388 -106 OFFCURVE",
"140 -276 CURVE",
"436 -276 LINE",
"662 -108 OFFCURVE",
"852 232 OFFCURVE",
"852 622 CURVE SMOOTH {name = hr00;}"
);
}
);
vertWidth = 1560;
width = 1200;
},
{
layerId = master02;
paths = (
{
closed = 1;
nodes = (
"790 1012 OFFCURVE",
"600 1352 OFFCURVE",
"374 1520 CURVE",
"212 1520 LINE",
"444 1346 OFFCURVE",
"640 1050 OFFCURVE",
"640 708 CURVE SMOOTH",
"640 536 LINE SMOOTH",
"640 194 OFFCURVE",
"444 -102 OFFCURVE",
"212 -276 CURVE",
"374 -276 LINE",
"600 -108 OFFCURVE",
"790 232 OFFCURVE",
"790 622 CURVE SMOOTH {name = hr00;}"
);
}
);
vertWidth = 1560;
width = 1200;
}
);
unicode = 0029;
},
{
glyphname = bracketleft;
layers = (
{
layerId = master01;
paths = (
{
closed = 1;
nodes = (
"1014 -78 LINE",
"604 -78 LINE",
"604 1322 LINE",
"1014 1322 LINE",
"1014 1520 LINE",
"366 1520 LINE",
"366 -276 LINE",
"1014 -276 LINE {name = hr00;}"
);
}
);
vertWidth = 1560;
width = 1200;
},
{
layerId = master02;
paths = (
{
closed = 1;
nodes = (
"1010 -152 LINE",
"588 -152 LINE",
"588 1396 LINE",
"1010 1396 LINE",
"1010 1520 LINE",
"450 1520 LINE",
"450 -276 LINE",
"1010 -276 LINE {name = hr00;}"
);
}
);
vertWidth = 1560;
width = 1200;
}
);
unicode = 005B;
},
{
glyphname = bracketright;
layers = (
{
layerId = master01;
paths = (
{
closed = 1;
nodes = (
"186 1322 LINE",
"596 1322 LINE",
"596 -78 LINE",
"186 -78 LINE",
"186 -276 LINE",
"834 -276 LINE",
"834 1520 LINE",
"186 1520 LINE {name = hr00;}"
);
}
);
vertWidth = 1560;
width = 1200;
},
{
layerId = master02;
paths = (
{
closed = 1;
nodes = (
"190 1396 LINE",
"612 1396 LINE",
"612 -152 LINE",
"190 -152 LINE",
"190 -276 LINE",
"750 -276 LINE",
"750 1520 LINE",
"190 1520 LINE {name = hr00;}"
);
}
);
vertWidth = 1560;
width = 1200;
}
);
unicode = 005D;
},
{
glyphname = braceleft;
layers = (
{
layerId = master01;
paths = (
{
closed = 1;
nodes = (
"1016 -78 LINE",
"646 -78 LINE",
"646 18 LINE SMOOTH",
"646 118 OFFCURVE",
"686 162 OFFCURVE",
"726 214 CURVE",
"772 270 OFFCURVE",
"820 332 OFFCURVE",
"820 416 CURVE SMOOTH {name = hr01;}",
"820 526 OFFCURVE",
"744 596 OFFCURVE",
"584 614 CURVE",
"584 630 LINE",
"744 648 OFFCURVE",
"820 718 OFFCURVE",
"820 828 CURVE SMOOTH",
"820 912 OFFCURVE",
"772 974 OFFCURVE",
"726 1030 CURVE",
"686 1082 OFFCURVE",
"646 1126 OFFCURVE",
"646 1226 CURVE SMOOTH {name = hr02;}",
"646 1322 LINE",
"1016 1322 LINE",
"1016 1520 LINE",
"660 1520 LINE SMOOTH",
"478 1520 OFFCURVE",
"408 1430 OFFCURVE",
"408 1304 CURVE SMOOTH",
"408 1214 LINE SMOOTH",
"408 1080 OFFCURVE",
"472 1016 OFFCURVE",
"520 960 CURVE",
"564 906 OFFCURVE",
"580 872 OFFCURVE",
"580 830 CURVE SMOOTH {name = hr03;}",
"580 762 OFFCURVE",
"506 722 OFFCURVE",
"364 722 CURVE SMOOTH",
"184 722 LINE",
"184 522 LINE",
"364 522 LINE SMOOTH",
"506 522 OFFCURVE",
"580 482 OFFCURVE",
"580 414 CURVE SMOOTH",
"580 372 OFFCURVE",
"564 338 OFFCURVE",
"520 284 CURVE",
"472 228 OFFCURVE",
"408 164 OFFCURVE",
"408 30 CURVE SMOOTH {name = hr04;}",
"408 -60 LINE SMOOTH",
"408 -186 OFFCURVE",
"478 -276 OFFCURVE",
"660 -276 CURVE SMOOTH",
"1016 -276 LINE"
);
}
);
vertWidth = 1560;
width = 1200;
},
{
layerId = master02;
paths = (
{
closed = 1;
nodes = (
"990 -152 LINE",
"608 -152 LINE",
"608 2 LINE SMOOTH",
"608 112 OFFCURVE",
"646 158 OFFCURVE",
"688 214 CURVE SMOOTH",
"732 272 OFFCURVE",
"782 332 OFFCURVE",
"782 416 CURVE SMOOTH",
"782 526 OFFCURVE",
"696 600 OFFCURVE",
"562 618 CURVE",
"562 626 LINE",
"696 644 OFFCURVE",
"782 718 OFFCURVE",
"782 828 CURVE SMOOTH",
"782 912 OFFCURVE",
"732 972 OFFCURVE",
"688 1030 CURVE SMOOTH",
"646 1086 OFFCURVE",
"608 1132 OFFCURVE",
"608 1242 CURVE SMOOTH",
"608 1396 LINE",
"990 1396 LINE",
"990 1520 LINE",
"638 1520 LINE SMOOTH",
"528 1520 OFFCURVE",
"470 1448 OFFCURVE",
"470 1356 CURVE SMOOTH",
"470 1230 LINE SMOOTH",
"470 1086 OFFCURVE",
"534 1020 OFFCURVE",
"582 960 CURVE SMOOTH",
"626 906 OFFCURVE",
"642 872 OFFCURVE",
"642 830 CURVE SMOOTH",
"642 730 OFFCURVE",
"546 684 OFFCURVE",
"366 684 CURVE SMOOTH",
"210 684 LINE",
"210 560 LINE",
"366 560 LINE SMOOTH",
"546 560 OFFCURVE",
"642 514 OFFCURVE",
"642 414 CURVE SMOOTH",
"642 372 OFFCURVE",
"626 338 OFFCURVE",
"582 284 CURVE SMOOTH",
"534 224 OFFCURVE",
"470 158 OFFCURVE",
"470 14 CURVE SMOOTH",
"470 -112 LINE SMOOTH",
"470 -204 OFFCURVE",
"528 -276 OFFCURVE",
"638 -276 CURVE SMOOTH",
"990 -276 LINE {name = hr00;}"
);
}
);
vertWidth = 1560;
width = 1200;
}
);
unicode = 007B;
},
{
glyphname = braceright;
layers = (
{
layerId = master01;
paths = (
{
closed = 1;
nodes = (
"184 1322 LINE",
"554 1322 LINE",
"554 1226 LINE SMOOTH",
"554 1126 OFFCURVE",
"514 1082 OFFCURVE",
"474 1030 CURVE",
"428 974 OFFCURVE",
"380 912 OFFCURVE",
"380 828 CURVE SMOOTH {name = hr01;}",
"380 718 OFFCURVE",
"456 648 OFFCURVE",
"616 630 CURVE",
"616 614 LINE",
"456 596 OFFCURVE",
"380 526 OFFCURVE",
"380 416 CURVE SMOOTH",
"380 332 OFFCURVE",
"428 270 OFFCURVE",
"474 214 CURVE",
"514 162 OFFCURVE",
"554 118 OFFCURVE",
"554 18 CURVE SMOOTH {name = hr02;}",
"554 -78 LINE",
"184 -78 LINE",
"184 -276 LINE",
"540 -276 LINE SMOOTH",
"722 -276 OFFCURVE",
"792 -186 OFFCURVE",
"792 -60 CURVE SMOOTH",
"792 30 LINE SMOOTH",
"792 164 OFFCURVE",
"728 228 OFFCURVE",
"680 284 CURVE",
"636 338 OFFCURVE",
"620 372 OFFCURVE",
"620 414 CURVE SMOOTH {name = hr03;}",
"620 482 OFFCURVE",
"694 522 OFFCURVE",
"836 522 CURVE SMOOTH",
"1016 522 LINE",
"1016 722 LINE",
"836 722 LINE SMOOTH",
"694 722 OFFCURVE",
"620 762 OFFCURVE",
"620 830 CURVE SMOOTH",
"620 872 OFFCURVE",
"636 906 OFFCURVE",
"680 960 CURVE",
"728 1016 OFFCURVE",
"792 1080 OFFCURVE",
"792 1214 CURVE SMOOTH {name = hr04;}",
"792 1304 LINE SMOOTH",
"792 1430 OFFCURVE",
"722 1520 OFFCURVE",
"540 1520 CURVE SMOOTH",
"184 1520 LINE"
);
}
);
vertWidth = 1560;
width = 1200;
},
{
layerId = master02;
paths = (
{
closed = 1;
nodes = (
"210 1396 LINE",
"592 1396 LINE",
"592 1242 LINE SMOOTH",
"592 1132 OFFCURVE",
"554 1086 OFFCURVE",
"512 1030 CURVE SMOOTH",
"468 972 OFFCURVE",
"418 912 OFFCURVE",
"418 828 CURVE SMOOTH",
"418 718 OFFCURVE",
"504 644 OFFCURVE",
"638 626 CURVE",
"638 618 LINE",
"504 600 OFFCURVE",
"418 526 OFFCURVE",
"418 416 CURVE SMOOTH",
"418 332 OFFCURVE",
"468 272 OFFCURVE",
"512 214 CURVE SMOOTH",
"554 158 OFFCURVE",
"592 112 OFFCURVE",
"592 2 CURVE SMOOTH",
"592 -152 LINE",
"210 -152 LINE",
"210 -276 LINE",
"562 -276 LINE SMOOTH",
"672 -276 OFFCURVE",
"730 -204 OFFCURVE",
"730 -112 CURVE SMOOTH",
"730 14 LINE SMOOTH",
"730 158 OFFCURVE",
"666 224 OFFCURVE",
"618 284 CURVE SMOOTH",
"574 338 OFFCURVE",
"558 372 OFFCURVE",
"558 414 CURVE SMOOTH",
"558 514 OFFCURVE",
"654 560 OFFCURVE",
"834 560 CURVE SMOOTH",
"990 560 LINE",
"990 684 LINE",
"834 684 LINE SMOOTH",
"654 684 OFFCURVE",
"558 730 OFFCURVE",
"558 830 CURVE SMOOTH",
"558 872 OFFCURVE",
"574 906 OFFCURVE",
"618 960 CURVE SMOOTH",
"666 1020 OFFCURVE",
"730 1086 OFFCURVE",
"730 1230 CURVE SMOOTH",
"730 1356 LINE SMOOTH",
"730 1448 OFFCURVE",
"672 1520 OFFCURVE",
"562 1520 CURVE SMOOTH",
"210 1520 LINE {name = hr00;}"
);
}
);
vertWidth = 1560;
width = 1200;
}
);
unicode = 007D;
},
{
glyphname = slash;
layers = (
{
layerId = master01;
paths = (
{
closed = 1;
nodes = (
"1054 1520 LINE",
"788 1520 LINE",
"146 -276 LINE",
"412 -276 LINE {name = hr00;}"
);
}
);
vertWidth = 1560;
width = 1200;
},
{
layerId = master02;
paths = (
{
closed = 1;
nodes = (
"1020 1520 LINE",
"876 1520 LINE",
"180 -276 LINE",
"324 -276 LINE {name = hr00;}"
);
}
);
vertWidth = 1560;
width = 1200;
}
);
unicode = 002F;
},
{
glyphname = backslash;
layers = (
{
layerId = master01;
paths = (
{
closed = 1;
nodes = (
"412 1520 LINE",
"146 1520 LINE",
"788 -276 LINE",
"1054 -276 LINE {name = hr00;}"
);
}
);
vertWidth = 1560;
width = 1200;
},
{
layerId = master02;
paths = (
{
closed = 1;
nodes = (
"324 1520 LINE",
"180 1520 LINE",
"876 -276 LINE",
"1020 -276 LINE {name = hr00;}"
);
}
);
vertWidth = 1560;
width = 1200;
}
);
unicode = 005C;
},
{
glyphname = fraction;
layers = (
{
layerId = master01;
paths = (
{
closed = 1;
nodes = (
"852 796 LINE",
"1198 1396 LINE",
"992 1396 LINE",
"646 796 LINE {name = hr00;}"
);
},
{
closed = 1;
nodes = (
"208 0 LINE",
"554 600 LINE",
"348 600 LINE",
"2 0 LINE"
);
}
);
vertWidth = 1560;
width = 1200;
},
{
layerId = master02;
paths = (
{
closed = 1;
nodes = (
"844 796 LINE",
"1164 1396 LINE",
"1020 1396 LINE",
"700 796 LINE {name = hr00;}"
);
},
{
closed = 1;
nodes = (
"180 0 LINE",
"500 600 LINE",
"356 600 LINE",
"36 0 LINE"
);
}
);
vertWidth = 1560;
width = 1200;
}
);
unicode = 2044;
},
{
glyphname = percent;
layers = (
{
layerId = master01;
paths = (
{
closed = 1;
nodes = (
"528 676 OFFCURVE",
"644 818 OFFCURVE",
"644 1048 CURVE SMOOTH",
"644 1278 OFFCURVE",
"528 1420 OFFCURVE",
"330 1420 CURVE SMOOTH",
"132 1420 OFFCURVE",
"16 1278 OFFCURVE",
"16 1048 CURVE SMOOTH",
"16 818 OFFCURVE",
"132 676 OFFCURVE",
"330 676 CURVE SMOOTH"
);
},
{
closed = 1;
nodes = (
"252 850 OFFCURVE",
"226 910 OFFCURVE",
"226 1004 CURVE SMOOTH",
"226 1092 LINE SMOOTH",
"226 1186 OFFCURVE",
"252 1246 OFFCURVE",
"330 1246 CURVE SMOOTH",
"408 1246 OFFCURVE",
"434 1186 OFFCURVE",
"434 1092 CURVE SMOOTH",
"434 1004 LINE SMOOTH",
"434 910 OFFCURVE",
"408 850 OFFCURVE",
"330 850 CURVE SMOOTH"
);
},
{
closed = 1;
nodes = (
"894 796 LINE",
"1196 1396 LINE {name = hr01;}",
"970 1396 LINE",
"668 796 LINE"
);
},
{
closed = 1;
nodes = (
"230 0 LINE",
"532 600 LINE",
"306 600 LINE",
"4 0 LINE"
);
},
{
closed = 1;
nodes = (
"1070 -24 OFFCURVE",
"1186 118 OFFCURVE",
"1186 348 CURVE SMOOTH",
"1186 578 OFFCURVE",
"1070 720 OFFCURVE",
"872 720 CURVE SMOOTH",
"674 720 OFFCURVE",
"558 578 OFFCURVE",
"558 348 CURVE SMOOTH",
"558 118 OFFCURVE",
"674 -24 OFFCURVE",
"872 -24 CURVE SMOOTH {name = hr02;}"
);
},
{
closed = 1;
nodes = (
"794 150 OFFCURVE",
"768 210 OFFCURVE",
"768 304 CURVE SMOOTH",
"768 392 LINE SMOOTH",
"768 486 OFFCURVE",
"794 546 OFFCURVE",
"872 546 CURVE SMOOTH",
"950 546 OFFCURVE",
"976 486 OFFCURVE",
"976 392 CURVE SMOOTH",
"976 304 LINE SMOOTH",
"976 210 OFFCURVE",
"950 150 OFFCURVE",
"872 150 CURVE SMOOTH"
);
}
);
vertWidth = 1560;
width = 1200;
},
{
layerId = master02;
paths = (
{
closed = 1;
nodes = (
"512 712 OFFCURVE",
"636 832 OFFCURVE",
"636 1066 CURVE SMOOTH",
"636 1300 OFFCURVE",
"512 1420 OFFCURVE",
"338 1420 CURVE SMOOTH",
"164 1420 OFFCURVE",
"40 1300 OFFCURVE",
"40 1066 CURVE SMOOTH",
"40 832 OFFCURVE",
"164 712 OFFCURVE",
"338 712 CURVE SMOOTH"
);
},
{
closed = 1;
nodes = (
"242 820 OFFCURVE",
"176 890 OFFCURVE",
"176 1016 CURVE SMOOTH",
"176 1116 LINE SMOOTH",
"176 1242 OFFCURVE",
"242 1312 OFFCURVE",
"338 1312 CURVE SMOOTH",
"434 1312 OFFCURVE",
"500 1242 OFFCURVE",
"500 1116 CURVE SMOOTH",
"500 1016 LINE SMOOTH",
"500 890 OFFCURVE",
"434 820 OFFCURVE",
"338 820 CURVE SMOOTH"
);
},
{
closed = 1;
nodes = (
"844 796 LINE",
"1164 1396 LINE",
"1020 1396 LINE",
"700 796 LINE {name = hr01;}"
);
},
{
closed = 1;
nodes = (
"180 0 LINE",
"500 600 LINE {name = hr02;}",
"356 600 LINE",
"36 0 LINE"
);
},
{
closed = 1;
nodes = (
"1036 -24 OFFCURVE",
"1160 96 OFFCURVE",
"1160 330 CURVE SMOOTH",
"1160 564 OFFCURVE",
"1036 684 OFFCURVE",
"862 684 CURVE SMOOTH",
"688 684 OFFCURVE",
"564 564 OFFCURVE",
"564 330 CURVE SMOOTH",
"564 96 OFFCURVE",
"688 -24 OFFCURVE",
"862 -24 CURVE SMOOTH {name = hr03;}"
);
},
{
closed = 1;
nodes = (
"766 84 OFFCURVE",
"700 154 OFFCURVE",
"700 280 CURVE SMOOTH",
"700 380 LINE SMOOTH",
"700 506 OFFCURVE",
"766 576 OFFCURVE",
"862 576 CURVE SMOOTH",
"958 576 OFFCURVE",
"1024 506 OFFCURVE",
"1024 380 CURVE SMOOTH",
"1024 280 LINE SMOOTH",
"1024 154 OFFCURVE",
"958 84 OFFCURVE",
"862 84 CURVE SMOOTH"
);
}
);
vertWidth = 1560;
width = 1200;
}
);
unicode = 0025;
},
{
glyphname = perthousand;
layers = (
{
layerId = master01;
paths = (
{
closed = 1;
nodes = (
"488 800 OFFCURVE",
"592 924 OFFCURVE",
"592 1110 CURVE SMOOTH",
"592 1298 OFFCURVE",
"488 1420 OFFCURVE",
"296 1420 CURVE SMOOTH",
"104 1420 OFFCURVE",
"0 1298 OFFCURVE",
"0 1110 CURVE SMOOTH",
"0 924 OFFCURVE",
"104 800 OFFCURVE",
"296 800 CURVE SMOOTH"
);
},
{
closed = 1;
nodes = (
"232 958 OFFCURVE",
"196 1014 OFFCURVE",
"196 1078 CURVE SMOOTH",
"196 1142 LINE SMOOTH",
"196 1206 OFFCURVE",
"232 1262 OFFCURVE",
"296 1262 CURVE SMOOTH",
"360 1262 OFFCURVE",
"396 1206 OFFCURVE",
"396 1142 CURVE SMOOTH",
"396 1078 LINE SMOOTH",
"396 1014 OFFCURVE",
"360 958 OFFCURVE",
"296 958 CURVE SMOOTH"
);
},
{
closed = 1;
nodes = (
"1082 836 LINE",
"1042 970 LINE",
"118 686 LINE",
"158 552 LINE"
);
},
{
closed = 1;
nodes = (
"586 -24 OFFCURVE",
"656 12 OFFCURVE",
"698 66 CURVE",
"714 66 LINE",
"756 10 OFFCURVE",
"824 -24 OFFCURVE",
"908 -24 CURVE SMOOTH",
"1088 -24 OFFCURVE",
"1200 98 OFFCURVE",
"1200 286 CURVE SMOOTH",
"1200 472 OFFCURVE",
"1090 596 OFFCURVE",
"908 596 CURVE SMOOTH",
"826 596 OFFCURVE",
"756 560 OFFCURVE",
"714 506 CURVE",
"698 506 LINE",
"656 562 OFFCURVE",
"588 596 OFFCURVE",
"504 596 CURVE SMOOTH",
"324 596 OFFCURVE",
"212 474 OFFCURVE",
"212 286 CURVE SMOOTH {name = hr01;}",
"212 100 OFFCURVE",
"322 -24 OFFCURVE",
"504 -24 CURVE SMOOTH"
);
},
{
closed = 1;
nodes = (
"444 134 OFFCURVE",
"408 190 OFFCURVE",
"408 254 CURVE SMOOTH",
"408 318 LINE SMOOTH",
"408 382 OFFCURVE",
"444 438 OFFCURVE",
"508 438 CURVE SMOOTH",
"572 438 OFFCURVE",
"608 382 OFFCURVE",
"608 318 CURVE SMOOTH",
"608 254 LINE SMOOTH",
"608 190 OFFCURVE",
"572 134 OFFCURVE",
"508 134 CURVE SMOOTH"
);
},
{
closed = 1;
nodes = (
"840 134 OFFCURVE",
"804 190 OFFCURVE",
"804 254 CURVE SMOOTH",
"804 318 LINE SMOOTH",
"804 382 OFFCURVE",
"840 438 OFFCURVE",
"904 438 CURVE SMOOTH",
"968 438 OFFCURVE",
"1004 382 OFFCURVE",
"1004 318 CURVE SMOOTH",
"1004 254 LINE SMOOTH",
"1004 190 OFFCURVE",
"968 134 OFFCURVE",
"904 134 CURVE SMOOTH"
);
}
);
vertWidth = 1560;
width = 1200;
},
{
layerId = master02;
paths = (
{
closed = 1;
nodes = (
"452 800 OFFCURVE",
"556 906 OFFCURVE",
"556 1110 CURVE SMOOTH",
"556 1316 OFFCURVE",
"450 1420 OFFCURVE",
"278 1420 CURVE SMOOTH",
"104 1420 OFFCURVE",
"0 1314 OFFCURVE",
"0 1110 CURVE SMOOTH",
"0 904 OFFCURVE",
"106 800 OFFCURVE",
"278 800 CURVE SMOOTH {name = hr00;}"
);
},
{
closed = 1;
nodes = (
"188 900 OFFCURVE",
"136 966 OFFCURVE",
"136 1062 CURVE SMOOTH",
"136 1158 LINE SMOOTH",
"136 1254 OFFCURVE",
"188 1320 OFFCURVE",
"278 1320 CURVE SMOOTH",
"368 1320 OFFCURVE",
"420 1254 OFFCURVE",
"420 1158 CURVE SMOOTH",
"420 1062 LINE SMOOTH",
"420 966 OFFCURVE",
"368 900 OFFCURVE",
"278 900 CURVE SMOOTH"
);
},
{
closed = 1;
nodes = (
"1062 908 LINE",
"1022 1008 LINE",
"122 656 LINE",
"162 556 LINE"
);
},
{
closed = 1;
nodes = (
"586 -24 OFFCURVE",
"658 12 OFFCURVE",
"706 76 CURVE",
"718 76 LINE",
"766 12 OFFCURVE",
"838 -24 OFFCURVE",
"928 -24 CURVE SMOOTH",
"1096 -24 OFFCURVE",
"1200 82 OFFCURVE",
"1200 286 CURVE SMOOTH",
"1200 490 OFFCURVE",
"1096 596 OFFCURVE",
"928 596 CURVE SMOOTH",
"838 596 OFFCURVE",
"766 560 OFFCURVE",
"718 496 CURVE",
"708 496 LINE",
"658 560 OFFCURVE",
"586 596 OFFCURVE",
"496 596 CURVE SMOOTH",
"328 596 OFFCURVE",
"224 490 OFFCURVE",
"224 286 CURVE SMOOTH",
"224 82 OFFCURVE",
"328 -24 OFFCURVE",
"496 -24 CURVE SMOOTH"
);
},
{
closed = 1;
nodes = (
"412 76 OFFCURVE",
"360 142 OFFCURVE",
"360 238 CURVE SMOOTH",
"360 334 LINE SMOOTH",
"360 430 OFFCURVE",
"412 496 OFFCURVE",
"502 496 CURVE SMOOTH",
"592 496 OFFCURVE",
"644 430 OFFCURVE",
"644 334 CURVE SMOOTH",
"644 238 LINE SMOOTH",
"644 142 OFFCURVE",
"592 76 OFFCURVE",
"502 76 CURVE SMOOTH"
);
},
{
closed = 1;
nodes = (
"832 76 OFFCURVE",
"780 142 OFFCURVE",
"780 238 CURVE SMOOTH",
"780 334 LINE SMOOTH",
"780 430 OFFCURVE",
"832 496 OFFCURVE",
"922 496 CURVE SMOOTH",
"1012 496 OFFCURVE",
"1064 430 OFFCURVE",
"1064 334 CURVE SMOOTH",
"1064 238 LINE SMOOTH",
"1064 142 OFFCURVE",
"1012 76 OFFCURVE",
"922 76 CURVE SMOOTH"
);
}
);
vertWidth = 1560;
width = 1200;
}
);
unicode = 2030;
},
{
glyphname = bar;
layers = (
{
layerId = master01;
paths = (
{
closed = 1;
nodes = (
"726 1520 LINE",
"474 1520 LINE",
"474 -276 LINE",
"726 -276 LINE {name = hr00;}"
);
}
);
vertWidth = 1560;
width = 1200;
},
{
layerId = master02;
paths = (
{
closed = 1;
nodes = (
"670 1520 LINE",
"530 1520 LINE",
"530 -276 LINE",
"670 -276 LINE {name = hr00;}"
);
}
);
vertWidth = 1560;
width = 1200;
}
);
unicode = 007C;
},
{
glyphname = brokenbar;
layers = (
{
layerId = master01;
paths = (
{
closed = 1;
nodes = (
"726 1520 LINE",
"474 1520 LINE",
"474 802 LINE",
"726 802 LINE {name = hr00;}"
);
},
{
closed = 1;
nodes = (
"726 442 LINE",
"474 442 LINE",
"474 -276 LINE",
"726 -276 LINE"
);
}
);
vertWidth = 1560;
width = 1200;
},
{
layerId = master02;
paths = (
{
closed = 1;
nodes = (
"670 1520 LINE",
"530 1520 LINE",
"530 802 LINE",
"670 802 LINE {name = hr00;}"
);
},
{
closed = 1;
nodes = (
"670 442 LINE",
"530 442 LINE",
"530 -276 LINE",
"670 -276 LINE"
);
}
);
vertWidth = 1560;
width = 1200;
}
);
unicode = 00A6;
},
{
glyphname = section;
layers = (
{
layerId = master01;
paths = (
{
closed = 1;
nodes = (
"1022 118 OFFCURVE",
"974 216 OFFCURVE",
"864 286 CURVE",
"864 318 LINE",
"1014 380 OFFCURVE",
"1084 478 OFFCURVE",
"1084 592 CURVE SMOOTH {name = hr01;}",
"1084 710 OFFCURVE",
"1006 830 OFFCURVE",
"776 892 CURVE SMOOTH",
"620 934 LINE SMOOTH",
"498 966 OFFCURVE",
"442 1002 OFFCURVE",
"442 1074 CURVE SMOOTH",
"442 1156 OFFCURVE",
"518 1210 OFFCURVE",
"634 1210 CURVE SMOOTH",
"734 1210 OFFCURVE",
"822 1170 OFFCURVE",
"892 1100 CURVE",
"1038 1276 LINE",
"922 1382 OFFCURVE",
"774 1420 OFFCURVE",
"636 1420 CURVE SMOOTH",
"374 1420 OFFCURVE",
"192 1280 OFFCURVE",
"192 1062 CURVE SMOOTH",
"192 950 OFFCURVE",
"240 852 OFFCURVE",
"350 782 CURVE",
"350 750 LINE",
"200 688 OFFCURVE",
"130 590 OFFCURVE",
"130 476 CURVE SMOOTH {name = hr02;}",
"130 358 OFFCURVE",
"208 238 OFFCURVE",
"438 176 CURVE SMOOTH",
"594 134 LINE SMOOTH",
"716 102 OFFCURVE",
"772 66 OFFCURVE",
"772 -6 CURVE SMOOTH",
"772 -88 OFFCURVE",
"696 -142 OFFCURVE",
"580 -142 CURVE SMOOTH",
"480 -142 OFFCURVE",
"392 -102 OFFCURVE",
"322 -32 CURVE",
"176 -208 LINE",
"292 -314 OFFCURVE",
"440 -352 OFFCURVE",
"578 -352 CURVE SMOOTH",
"840 -352 OFFCURVE",
"1022 -212 OFFCURVE",
"1022 6 CURVE SMOOTH"
);
},
{
closed = 1;
nodes = (
"838 442 OFFCURVE",
"810 388 OFFCURVE",
"762 336 CURVE",
"742 344 OFFCURVE",
"720 352 OFFCURVE",
"696 358 CURVE SMOOTH",
"542 400 LINE SMOOTH",
"410 436 OFFCURVE",
"376 496 OFFCURVE",
"376 564 CURVE SMOOTH",
"376 626 OFFCURVE",
"404 680 OFFCURVE",
"452 732 CURVE",
"472 724 OFFCURVE",
"494 716 OFFCURVE",
"518 710 CURVE SMOOTH",
"672 668 LINE SMOOTH",
"804 632 OFFCURVE",
"838 572 OFFCURVE",
"838 504 CURVE SMOOTH {name = hr03;}"
);
}
);
vertWidth = 1560;
width = 1200;
},
{
layerId = master02;
paths = (
{
closed = 1;
nodes = (
"974 112 OFFCURVE",
"926 206 OFFCURVE",
"822 270 CURVE",
"822 280 LINE",
"964 336 OFFCURVE",
"1046 438 OFFCURVE",
"1046 566 CURVE SMOOTH {name = hr01;}",
"1046 702 OFFCURVE",
"952 814 OFFCURVE",
"732 876 CURVE SMOOTH",
"604 912 LINE SMOOTH",
"470 950 OFFCURVE",
"392 1006 OFFCURVE",
"392 1106 CURVE SMOOTH",
"392 1214 OFFCURVE",
"482 1282 OFFCURVE",
"634 1282 CURVE SMOOTH",
"736 1282 OFFCURVE",
"818 1250 OFFCURVE",
"882 1196 CURVE",
"976 1308 LINE",
"882 1388 OFFCURVE",
"758 1420 OFFCURVE",
"636 1420 CURVE SMOOTH",
"396 1420 OFFCURVE",
"234 1296 OFFCURVE",
"234 1104 CURVE SMOOTH",
"234 998 OFFCURVE",
"282 904 OFFCURVE",
"386 840 CURVE",
"386 830 LINE",
"244 774 OFFCURVE",
"162 672 OFFCURVE",
"162 544 CURVE SMOOTH {name = hr02;}",
"162 408 OFFCURVE",
"256 296 OFFCURVE",
"476 234 CURVE SMOOTH",
"604 198 LINE SMOOTH",
"738 160 OFFCURVE",
"816 104 OFFCURVE",
"816 4 CURVE SMOOTH",
"816 -104 OFFCURVE",
"726 -172 OFFCURVE",
"574 -172 CURVE SMOOTH",
"472 -172 OFFCURVE",
"390 -140 OFFCURVE",
"326 -86 CURVE",
"232 -198 LINE",
"326 -278 OFFCURVE",
"450 -310 OFFCURVE",
"572 -310 CURVE SMOOTH",
"812 -310 OFFCURVE",
"974 -186 OFFCURVE",
"974 6 CURVE SMOOTH"
);
},
{
closed = 1;
nodes = (
"888 432 OFFCURVE",
"836 360 OFFCURVE",
"754 304 CURVE",
"734 312 OFFCURVE",
"710 320 OFFCURVE",
"686 326 CURVE SMOOTH",
"560 360 LINE SMOOTH",
"396 404 OFFCURVE",
"320 470 OFFCURVE",
"320 584 CURVE SMOOTH",
"320 678 OFFCURVE",
"372 750 OFFCURVE",
"454 806 CURVE",
"474 798 OFFCURVE",
"498 790 OFFCURVE",
"522 784 CURVE SMOOTH",
"648 750 LINE SMOOTH",
"812 706 OFFCURVE",
"888 640 OFFCURVE",
"888 526 CURVE SMOOTH {name = hr03;}"
);
}
);
vertWidth = 1560;
width = 1200;
}
);
unicode = 00A7;
},
{
glyphname = paragraph;
layers = (
{
layerId = master01;
paths = (
{
closed = 1;
nodes = (
"728 -298 LINE",
"728 1164 LINE",
"866 1164 LINE",
"866 -298 LINE",
"1104 -298 LINE",
"1104 1396 LINE",
"490 1396 LINE SMOOTH",
"242 1396 OFFCURVE",
"40 1206 OFFCURVE",
"40 944 CURVE SMOOTH",
"40 682 OFFCURVE",
"242 492 OFFCURVE",
"490 492 CURVE",
"490 -298 LINE {name = hr00;}"
);
}
);
vertWidth = 1560;
width = 1200;
},
{
layerId = master02;
paths = (
{
closed = 1;
nodes = (
"684 -298 LINE",
"684 1268 LINE",
"864 1268 LINE",
"864 -298 LINE",
"1008 -298 LINE",
"1008 1396 LINE",
"540 1396 LINE SMOOTH",
"292 1396 OFFCURVE",
"90 1206 OFFCURVE",
"90 944 CURVE SMOOTH",
"90 682 OFFCURVE",
"292 492 OFFCURVE",
"540 492 CURVE",
"540 -298 LINE {name = hr00;}"
);
}
);
vertWidth = 1560;
width = 1200;
}
);
unicode = 00B6;
},
{
glyphname = copyright;
layers = (
{
layerId = master01;
paths = (
{
closed = 1;
nodes = (
"934 36 OFFCURVE",
"1200 290 OFFCURVE",
"1200 698 CURVE SMOOTH",
"1200 1106 OFFCURVE",
"934 1360 OFFCURVE",
"600 1360 CURVE SMOOTH",
"266 1360 OFFCURVE",
"0 1106 OFFCURVE",
"0 698 CURVE SMOOTH",
"0 290 OFFCURVE",
"266 36 OFFCURVE",
"600 36 CURVE SMOOTH {name = hr00;}"
);
},
{
closed = 1;
nodes = (
"326 146 OFFCURVE",
"126 364 OFFCURVE",
"126 638 CURVE SMOOTH",
"126 758 LINE SMOOTH",
"126 1032 OFFCURVE",
"326 1250 OFFCURVE",
"600 1250 CURVE SMOOTH",
"874 1250 OFFCURVE",
"1074 1032 OFFCURVE",
"1074 758 CURVE SMOOTH",
"1074 638 LINE SMOOTH",
"1074 364 OFFCURVE",
"874 146 OFFCURVE",
"600 146 CURVE SMOOTH"
);
},
{
closed = 1;
nodes = (
"798 306 OFFCURVE",
"892 402 OFFCURVE",
"938 510 CURVE",
"768 596 LINE",
"740 538 OFFCURVE",
"698 492 OFFCURVE",
"624 492 CURVE SMOOTH",
"542 492 OFFCURVE",
"494 548 OFFCURVE",
"494 626 CURVE SMOOTH",
"494 772 LINE SMOOTH",
"494 848 OFFCURVE",
"542 904 OFFCURVE",
"622 904 CURVE SMOOTH",
"690 904 OFFCURVE",
"730 862 OFFCURVE",
"756 800 CURVE",
"926 886 LINE",
"878 1006 OFFCURVE",
"782 1090 OFFCURVE",
"618 1090 CURVE SMOOTH",
"402 1090 OFFCURVE",
"250 936 OFFCURVE",
"250 696 CURVE SMOOTH",
"250 462 OFFCURVE",
"396 306 OFFCURVE",
"618 306 CURVE SMOOTH"
);
}
);
vertWidth = 1560;
width = 1200;
},
{
layerId = master02;
paths = (
{
closed = 1;
nodes = (
"934 36 OFFCURVE",
"1200 290 OFFCURVE",
"1200 698 CURVE SMOOTH",
"1200 1106 OFFCURVE",
"934 1360 OFFCURVE",
"600 1360 CURVE SMOOTH",
"266 1360 OFFCURVE",
"0 1106 OFFCURVE",
"0 698 CURVE SMOOTH",
"0 290 OFFCURVE",
"266 36 OFFCURVE",
"600 36 CURVE SMOOTH {name = hr00;}"
);
},
{
closed = 1;
nodes = (
"326 146 OFFCURVE",
"126 364 OFFCURVE",
"126 638 CURVE SMOOTH",
"126 758 LINE SMOOTH",
"126 1032 OFFCURVE",
"326 1250 OFFCURVE",
"600 1250 CURVE SMOOTH",
"874 1250 OFFCURVE",
"1074 1032 OFFCURVE",
"1074 758 CURVE SMOOTH",
"1074 638 LINE SMOOTH",
"1074 364 OFFCURVE",
"874 146 OFFCURVE",
"600 146 CURVE SMOOTH"
);
},
{
closed = 1;
nodes = (
"740 342 OFFCURVE",
"828 410 OFFCURVE",
"872 504 CURVE",
"772 566 LINE",
"736 500 OFFCURVE",
"692 456 OFFCURVE",
"612 456 CURVE SMOOTH",
"504 456 OFFCURVE",
"446 532 OFFCURVE",
"446 642 CURVE SMOOTH",
"446 756 LINE SMOOTH",
"446 864 OFFCURVE",
"506 940 OFFCURVE",
"610 940 CURVE SMOOTH",
"684 940 OFFCURVE",
"728 900 OFFCURVE",
"756 836 CURVE",
"862 894 LINE",
"818 990 OFFCURVE",
"736 1054 OFFCURVE",
"610 1054 CURVE SMOOTH",
"418 1054 OFFCURVE",
"302 916 OFFCURVE",
"302 698 CURVE SMOOTH",
"302 482 OFFCURVE",
"416 342 OFFCURVE",
"610 342 CURVE SMOOTH"
);
}
);
vertWidth = 1560;
width = 1200;
}
);
unicode = 00A9;
},
{
glyphname = registered;
layers = (
{
layerId = master01;
paths = (
{
closed = 1;
nodes = (
"804 692 OFFCURVE",
"966 848 OFFCURVE",
"966 1056 CURVE SMOOTH",
"966 1264 OFFCURVE",
"804 1420 OFFCURVE",
"600 1420 CURVE SMOOTH",
"396 1420 OFFCURVE",
"234 1264 OFFCURVE",
"234 1056 CURVE SMOOTH",
"234 848 OFFCURVE",
"396 692 OFFCURVE",
"600 692 CURVE SMOOTH {name = hr00;}"
);
},
{
closed = 1;
nodes = (
"446 774 OFFCURVE",
"330 878 OFFCURVE",
"330 1036 CURVE SMOOTH",
"330 1076 LINE SMOOTH",
"330 1234 OFFCURVE",
"446 1338 OFFCURVE",
"600 1338 CURVE SMOOTH",
"754 1338 OFFCURVE",
"870 1234 OFFCURVE",
"870 1076 CURVE SMOOTH",
"870 1036 LINE SMOOTH",
"870 878 OFFCURVE",
"754 774 OFFCURVE",
"600 774 CURVE SMOOTH"
);
},
{
closed = 1;
nodes = (
"600 980 LINE",
"660 872 LINE",
"782 872 LINE",
"704 1002 LINE",
"746 1022 OFFCURVE",
"772 1060 OFFCURVE",
"772 1116 CURVE SMOOTH",
"772 1188 OFFCURVE",
"728 1242 OFFCURVE",
"628 1242 CURVE SMOOTH",
"444 1242 LINE",
"444 872 LINE",
"556 872 LINE",
"556 980 LINE"
);
},
{
closed = 1;
nodes = (
"556 1156 LINE",
"604 1156 LINE SMOOTH",
"636 1156 OFFCURVE",
"656 1140 OFFCURVE",
"656 1116 CURVE SMOOTH",
"656 1102 LINE SMOOTH",
"656 1076 OFFCURVE",
"636 1062 OFFCURVE",
"604 1062 CURVE SMOOTH",
"556 1062 LINE"
);
}
);
vertWidth = 1560;
width = 1200;
},
{
layerId = master02;
paths = (
{
closed = 1;
nodes = (
"804 692 OFFCURVE",
"966 848 OFFCURVE",
"966 1056 CURVE SMOOTH",
"966 1264 OFFCURVE",
"804 1420 OFFCURVE",
"600 1420 CURVE SMOOTH",
"396 1420 OFFCURVE",
"234 1264 OFFCURVE",
"234 1056 CURVE SMOOTH",
"234 848 OFFCURVE",
"396 692 OFFCURVE",
"600 692 CURVE SMOOTH {name = hr00;}"
);
},
{
closed = 1;
nodes = (
"446 774 OFFCURVE",
"330 878 OFFCURVE",
"330 1036 CURVE SMOOTH",
"330 1076 LINE SMOOTH",
"330 1234 OFFCURVE",
"446 1338 OFFCURVE",
"600 1338 CURVE SMOOTH",
"754 1338 OFFCURVE",
"870 1234 OFFCURVE",
"870 1076 CURVE SMOOTH",
"870 1036 LINE SMOOTH",
"870 878 OFFCURVE",
"754 774 OFFCURVE",
"600 774 CURVE SMOOTH"
);
},
{
closed = 1;
nodes = (
"598 1012 LINE",
"676 872 LINE",
"766 872 LINE",
"674 1024 LINE",
"720 1040 OFFCURVE",
"748 1078 OFFCURVE",
"748 1128 CURVE SMOOTH",
"748 1198 OFFCURVE",
"704 1242 OFFCURVE",
"630 1242 CURVE SMOOTH",
"460 1242 LINE",
"460 872 LINE",
"540 872 LINE",
"540 1012 LINE"
);
},
{
closed = 1;
nodes = (
"540 1180 LINE",
"612 1180 LINE SMOOTH",
"644 1180 OFFCURVE",
"664 1162 OFFCURVE",
"664 1132 CURVE SMOOTH",
"664 1118 LINE SMOOTH",
"664 1088 OFFCURVE",
"644 1070 OFFCURVE",
"612 1070 CURVE SMOOTH",
"540 1070 LINE"
);
}
);
vertWidth = 1560;
width = 1200;
}
);
unicode = 00AE;
},
{
glyphname = trademark;
layers = (
{
layerId = master01;
paths = (
{
closed = 1;
nodes = (
"336 1274 LINE",
"474 1274 LINE",
"474 1396 LINE",
"26 1396 LINE",
"26 1274 LINE",
"164 1274 LINE",
"164 818 LINE",
"336 818 LINE {name = hr00;}"
);
},
{
closed = 1;
nodes = (
"660 1012 LINE",
"644 1198 LINE",
"652 1198 LINE",
"810 906 LINE",
"968 1198 LINE",
"976 1198 LINE",
"960 1012 LINE",
"960 818 LINE",
"1104 818 LINE",
"1104 1396 LINE",
"934 1396 LINE",
"822 1182 LINE",
"810 1182 LINE",
"698 1396 LINE",
"516 1396 LINE",
"516 818 LINE",
"660 818 LINE"
);
}
);
vertWidth = 1560;
width = 1200;
},
{
layerId = master02;
paths = (
{
closed = 1;
nodes = (
"308 1304 LINE",
"480 1304 LINE",
"480 1396 LINE",
"32 1396 LINE",
"32 1304 LINE",
"204 1304 LINE",
"204 838 LINE",
"308 838 LINE {name = hr00;}"
);
},
{
closed = 1;
nodes = (
"660 1092 LINE",
"658 1258 LINE",
"666 1258 LINE",
"824 946 LINE",
"982 1258 LINE",
"990 1258 LINE",
"988 1092 LINE",
"988 838 LINE",
"1084 838 LINE",
"1084 1396 LINE",
"960 1396 LINE",
"830 1128 LINE",
"824 1128 LINE",
"694 1396 LINE",
"564 1396 LINE",
"564 838 LINE",
"660 838 LINE"
);
}
);
vertWidth = 1560;
width = 1200;
}
);
unicode = 2122;
},
{
glyphname = ordfeminine;
layers = (
{
layerId = master01;
paths = (
{
closed = 1;
nodes = (
"978 830 LINE",
"898 830 LINE",
"898 1146 LINE SMOOTH",
"898 1328 OFFCURVE",
"780 1420 OFFCURVE",
"584 1420 CURVE SMOOTH",
"422 1420 OFFCURVE",
"318 1360 OFFCURVE",
"270 1278 CURVE",
"382 1178 LINE",
"422 1230 OFFCURVE",
"472 1268 OFFCURVE",
"560 1268 CURVE SMOOTH",
"654 1268 OFFCURVE",
"690 1224 OFFCURVE",
"690 1138 CURVE SMOOTH",
"690 1102 LINE",
"574 1102 LINE SMOOTH",
"364 1102 OFFCURVE",
"250 1030 OFFCURVE",
"250 880 CURVE SMOOTH",
"250 744 OFFCURVE",
"342 664 OFFCURVE",
"482 664 CURVE SMOOTH {name = hr01;}",
"592 664 OFFCURVE",
"676 714 OFFCURVE",
"702 808 CURVE",
"710 808 LINE",
"718 726 OFFCURVE",
"774 680 OFFCURVE",
"858 680 CURVE SMOOTH {name = hr02;}",
"978 680 LINE"
);
},
{
closed = 1;
nodes = (
"690 904 LINE SMOOTH",
"690 836 OFFCURVE",
"634 800 OFFCURVE",
"560 800 CURVE SMOOTH {name = hr03;}",
"494 800 OFFCURVE",
"452 826 OFFCURVE",
"452 876 CURVE SMOOTH",
"452 904 LINE SMOOTH",
"452 960 OFFCURVE",
"498 990 OFFCURVE",
"580 990 CURVE SMOOTH",
"690 990 LINE"
);
}
);
vertWidth = 1560;
width = 1200;
},
{
layerId = master02;
paths = (
{
closed = 1;
nodes = (
"926 826 LINE",
"850 826 LINE",
"850 1166 LINE SMOOTH",
"850 1328 OFFCURVE",
"746 1420 OFFCURVE",
"576 1420 CURVE SMOOTH",
"428 1420 OFFCURVE",
"340 1348 OFFCURVE",
"300 1280 CURVE",
"384 1212 LINE",
"414 1272 OFFCURVE",
"478 1316 OFFCURVE",
"570 1316 CURVE SMOOTH",
"670 1316 OFFCURVE",
"724 1266 OFFCURVE",
"724 1160 CURVE SMOOTH",
"724 1104 LINE",
"578 1104 LINE SMOOTH",
"386 1104 OFFCURVE",
"276 1038 OFFCURVE",
"276 896 CURVE SMOOTH",
"276 778 OFFCURVE",
"354 698 OFFCURVE",
"498 698 CURVE SMOOTH {name = hr01;}",
"622 698 OFFCURVE",
"694 758 OFFCURVE",
"724 820 CURVE",
"732 820 LINE",
"736 754 OFFCURVE",
"770 714 OFFCURVE",
"858 714 CURVE SMOOTH {name = hr02;}",
"926 714 LINE"
);
},
{
closed = 1;
nodes = (
"724 930 LINE SMOOTH",
"724 850 OFFCURVE",
"630 800 OFFCURVE",
"524 800 CURVE SMOOTH {name = hr03;}",
"444 800 OFFCURVE",
"402 830 OFFCURVE",
"402 898 CURVE SMOOTH",
"402 918 LINE SMOOTH",
"402 980 OFFCURVE",
"464 1012 OFFCURVE",
"574 1012 CURVE SMOOTH",
"724 1012 LINE"
);
}
);
vertWidth = 1560;
width = 1200;
}
);
unicode = 00AA;
},
{
glyphname = ordmasculine;
layers = (
{
layerId = master01;
paths = (
{
closed = 1;
nodes = (
"826 664 OFFCURVE",
"962 808 OFFCURVE",
"962 1042 CURVE SMOOTH",
"962 1276 OFFCURVE",
"826 1420 OFFCURVE",
"600 1420 CURVE SMOOTH",
"374 1420 OFFCURVE",
"238 1276 OFFCURVE",
"238 1042 CURVE SMOOTH",
"238 808 OFFCURVE",
"374 664 OFFCURVE",
"600 664 CURVE SMOOTH {name = hr00;}"
);
},
{
closed = 1;
nodes = (
"508 818 OFFCURVE",
"452 878 OFFCURVE",
"452 984 CURVE SMOOTH",
"452 1100 LINE SMOOTH",
"452 1206 OFFCURVE",
"508 1266 OFFCURVE",
"600 1266 CURVE SMOOTH",
"692 1266 OFFCURVE",
"748 1206 OFFCURVE",
"748 1100 CURVE SMOOTH",
"748 984 LINE SMOOTH",
"748 878 OFFCURVE",
"692 818 OFFCURVE",
"600 818 CURVE SMOOTH"
);
}
);
vertWidth = 1560;
width = 1200;
},
{
layerId = master02;
paths = (
{
closed = 1;
nodes = (
"800 698 OFFCURVE",
"920 836 OFFCURVE",
"920 1060 CURVE SMOOTH",
"920 1282 OFFCURVE",
"800 1420 OFFCURVE",
"600 1420 CURVE SMOOTH",
"400 1420 OFFCURVE",
"280 1282 OFFCURVE",
"280 1060 CURVE",
"280 836 OFFCURVE",
"398 698 OFFCURVE",
"600 698 CURVE SMOOTH {name = hr00;}"
);
},
{
closed = 1;
nodes = (
"480 804 OFFCURVE",
"418 886 OFFCURVE",
"418 1000 CURVE SMOOTH",
"418 1118 LINE SMOOTH",
"418 1232 OFFCURVE",
"480 1314 OFFCURVE",
"600 1314 CURVE SMOOTH",
"720 1314 OFFCURVE",
"782 1232 OFFCURVE",
"782 1118 CURVE SMOOTH",
"782 1000 LINE SMOOTH",
"782 886 OFFCURVE",
"720 804 OFFCURVE",
"600 804 CURVE SMOOTH"
);
}
);
vertWidth = 1560;
width = 1200;
}
);
unicode = 00BA;
},
{
glyphname = degree;
layers = (
{
layerId = master01;
paths = (
{
closed = 1;
nodes = (
"812 668 OFFCURVE",
"976 830 OFFCURVE",
"976 1044 CURVE SMOOTH",
"976 1258 OFFCURVE",
"812 1420 OFFCURVE",
"600 1420 CURVE SMOOTH",
"388 1420 OFFCURVE",
"224 1258 OFFCURVE",
"224 1044 CURVE SMOOTH",
"224 830 OFFCURVE",
"388 668 OFFCURVE",
"600 668 CURVE SMOOTH {name = hr00;}"
);
},
{
closed = 1;
nodes = (
"496 858 OFFCURVE",
"428 940 OFFCURVE",
"428 1044 CURVE SMOOTH",
"428 1148 OFFCURVE",
"496 1230 OFFCURVE",
"600 1230 CURVE SMOOTH",
"704 1230 OFFCURVE",
"772 1148 OFFCURVE",
"772 1044 CURVE SMOOTH",
"772 940 OFFCURVE",
"704 858 OFFCURVE",
"600 858 CURVE SMOOTH"
);
}
);
vertWidth = 1560;
width = 1200;
},
{
layerId = master02;
paths = (
{
closed = 1;
nodes = (
"792 736 OFFCURVE",
"942 884 OFFCURVE",
"942 1078 CURVE SMOOTH",
"942 1272 OFFCURVE",
"792 1420 OFFCURVE",
"600 1420 CURVE SMOOTH",
"408 1420 OFFCURVE",
"258 1272 OFFCURVE",
"258 1078 CURVE SMOOTH",
"258 884 OFFCURVE",
"408 736 OFFCURVE",
"600 736 CURVE SMOOTH {name = hr00;}"
);
},
{
closed = 1;
nodes = (
"478 864 OFFCURVE",
"398 958 OFFCURVE",
"398 1078 CURVE SMOOTH",
"398 1198 OFFCURVE",
"478 1292 OFFCURVE",
"600 1292 CURVE SMOOTH",
"722 1292 OFFCURVE",
"802 1198 OFFCURVE",
"802 1078 CURVE SMOOTH",
"802 958 OFFCURVE",
"722 864 OFFCURVE",
"600 864 CURVE SMOOTH"
);
}
);
vertWidth = 1560;
width = 1200;
}
);
unicode = 00B0;
},
{
glyphname = asterisk;
layers = (
{
layerId = master01;
paths = (
{
closed = 1;
nodes = (
"818 80 LINE",
"1026 218 LINE",
"798 518 LINE",
"1140 634 LINE",
"1062 864 LINE",
"728 742 LINE",
"728 1096 LINE",
"472 1096 LINE",
"472 742 LINE",
"138 864 LINE",
"60 634 LINE",
"402 518 LINE",
"174 218 LINE",
"382 80 LINE",
"600 378 LINE {name = hr00;}"
);
}
);
vertWidth = 1560;
width = 1200;
},
{
layerId = master02;
paths = (
{
closed = 1;
nodes = (
"850 104 LINE",
"964 188 LINE",
"716 528 LINE",
"1114 660 LINE",
"1072 792 LINE",
"674 664 LINE",
"674 1096 LINE",
"526 1096 LINE",
"526 664 LINE",
"128 792 LINE",
"86 660 LINE",
"484 528 LINE",
"236 188 LINE",
"350 104 LINE",
"600 448 LINE {name = hr00;}"
);
}
);
vertWidth = 1560;
width = 1200;
}
);
unicode = 002A;
},
{
glyphname = dagger;
layers = (
{
layerId = master01;
paths = (
{
closed = 1;
nodes = (
"726 816 LINE",
"1078 816 LINE",
"1078 1032 LINE",
"726 1032 LINE",
"726 1480 LINE",
"474 1480 LINE",
"474 1032 LINE",
"122 1032 LINE",
"122 816 LINE",
"474 816 LINE",
"474 -400 LINE",
"726 -400 LINE {name = hr00;}"
);
}
);
vertWidth = 1560;
width = 1200;
},
{
layerId = master02;
paths = (
{
closed = 1;
nodes = (
"670 904 LINE",
"1060 904 LINE",
"1060 1032 LINE",
"670 1032 LINE",
"670 1480 LINE",
"530 1480 LINE",
"530 1032 LINE",
"140 1032 LINE",
"140 904 LINE",
"530 904 LINE",
"530 -400 LINE",
"670 -400 LINE {name = hr00;}"
);
}
);
vertWidth = 1560;
width = 1200;
}
);
unicode = 2020;
},
{
glyphname = daggerdbl;
layers = (
{
layerId = master01;
paths = (
{
closed = 1;
nodes = (
"726 48 LINE",
"1078 48 LINE",
"1078 264 LINE",
"726 264 LINE",
"726 816 LINE",
"1078 816 LINE",
"1078 1032 LINE",
"726 1032 LINE",
"726 1480 LINE",
"474 1480 LINE",
"474 1032 LINE",
"122 1032 LINE",
"122 816 LINE",
"474 816 LINE",
"474 264 LINE",
"122 264 LINE",
"122 48 LINE",
"474 48 LINE",
"474 -400 LINE",
"726 -400 LINE {name = hr00;}"
);
}
);
vertWidth = 1560;
width = 1200;
},
{
layerId = master02;
paths = (
{
closed = 1;
nodes = (
"670 48 LINE",
"1060 48 LINE",
"1060 176 LINE",
"670 176 LINE",
"670 904 LINE",
"1060 904 LINE",
"1060 1032 LINE",
"670 1032 LINE",
"670 1480 LINE",
"530 1480 LINE",
"530 1032 LINE",
"140 1032 LINE",
"140 904 LINE",
"530 904 LINE",
"530 176 LINE",
"140 176 LINE",
"140 48 LINE",
"530 48 LINE",
"530 -400 LINE",
"670 -400 LINE {name = hr00;}"
);
}
);
vertWidth = 1560;
width = 1200;
}
);
unicode = 2021;
},
{
glyphname = numbersign;
layers = (
{
layerId = master01;
paths = (
{
closed = 1;
nodes = (
"400 0 LINE",
"646 1396 LINE",
"412 1396 LINE",
"344 1008 LINE",
"94 1008 LINE",
"94 788 LINE",
"304 788 LINE",
"274 608 LINE",
"18 608 LINE",
"18 388 LINE",
"234 388 LINE",
"166 0 LINE {name = hr00;}"
);
},
{
closed = 1;
nodes = (
"788 0 LINE",
"856 388 LINE",
"1106 388 LINE",
"1106 608 LINE",
"896 608 LINE",
"926 788 LINE",
"1182 788 LINE",
"1182 1008 LINE",
"966 1008 LINE",
"1034 1396 LINE",
"800 1396 LINE",
"554 0 LINE"
);
}
);
vertWidth = 1560;
width = 1200;
},
{
layerId = master02;
paths = (
{
closed = 1;
nodes = (
"366 0 LINE",
"612 1396 LINE",
"466 1396 LINE",
"390 964 LINE",
"104 964 LINE",
"104 832 LINE",
"366 832 LINE",
"320 564 LINE",
"32 564 LINE",
"32 432 LINE",
"296 432 LINE",
"220 0 LINE {name = hr00;}"
);
},
{
closed = 1;
nodes = (
"734 0 LINE",
"810 432 LINE",
"1096 432 LINE",
"1096 564 LINE",
"834 564 LINE",
"880 832 LINE",
"1168 832 LINE",
"1168 964 LINE",
"904 964 LINE",
"980 1396 LINE",
"834 1396 LINE",
"588 0 LINE"
);
}
);
vertWidth = 1560;
width = 1200;
}
);
unicode = 0023;
},
{
glyphname = asciicircum;
layers = (
{
layerId = master01;
paths = (
{
closed = 1;
nodes = (
"758 1396 LINE",
"444 1396 LINE",
"54 586 LINE",
"276 478 LINE",
"582 1124 LINE",
"606 1124 LINE",
"912 478 LINE",
"1146 586 LINE {name = hr00;}"
);
}
);
vertWidth = 1560;
width = 1200;
},
{
layerId = master02;
paths = (
{
closed = 1;
nodes = (
"690 1396 LINE",
"510 1396 LINE",
"90 636 LINE",
"214 574 LINE",
"592 1258 LINE",
"600 1258 LINE",
"978 574 LINE",
"1110 636 LINE {name = hr00;}"
);
}
);
vertWidth = 1560;
width = 1200;
}
);
unicode = 005E;
},
{
glyphname = asciitilde;
layers = (
{
layerId = master01;
paths = (
{
closed = 1;
nodes = (
"976 420 OFFCURVE",
"1086 544 OFFCURVE",
"1128 724 CURVE",
"916 800 LINE",
"884 710 OFFCURVE",
"850 666 OFFCURVE",
"786 666 CURVE SMOOTH",
"736 666 OFFCURVE",
"688 692 OFFCURVE",
"620 726 CURVE SMOOTH",
"540 766 OFFCURVE",
"466 800 OFFCURVE",
"382 800 CURVE SMOOTH {name = hr01;}",
"224 800 OFFCURVE",
"114 676 OFFCURVE",
"72 496 CURVE",
"284 420 LINE",
"316 510 OFFCURVE",
"350 554 OFFCURVE",
"414 554 CURVE SMOOTH",
"464 554 OFFCURVE",
"512 528 OFFCURVE",
"580 494 CURVE SMOOTH",
"660 454 OFFCURVE",
"734 420 OFFCURVE",
"818 420 CURVE SMOOTH"
);
}
);
vertWidth = 1560;
width = 1200;
},
{
layerId = master02;
paths = (
{
closed = 1;
nodes = (
"964 474 OFFCURVE",
"1060 570 OFFCURVE",
"1096 696 CURVE",
"974 746 LINE",
"940 666 OFFCURVE",
"896 608 OFFCURVE",
"818 608 CURVE SMOOTH",
"752 608 OFFCURVE",
"680 648 OFFCURVE",
"610 682 CURVE SMOOTH",
"540 716 OFFCURVE",
"466 746 OFFCURVE",
"384 746 CURVE SMOOTH",
"236 746 OFFCURVE",
"140 650 OFFCURVE",
"104 524 CURVE",
"226 474 LINE",
"260 554 OFFCURVE",
"304 612 OFFCURVE",
"382 612 CURVE SMOOTH",
"448 612 OFFCURVE",
"520 572 OFFCURVE",
"590 538 CURVE SMOOTH",
"660 504 OFFCURVE",
"734 474 OFFCURVE",
"816 474 CURVE SMOOTH {name = hr00;}"
);
}
);
vertWidth = 1560;
width = 1200;
}
);
unicode = 007E;
},
{
glyphname = plus;
layers = (
{
layerId = master01;
paths = (
{
closed = 1;
nodes = (
"728 492 LINE",
"1076 492 LINE",
"1076 728 LINE",
"728 728 LINE",
"728 1096 LINE",
"472 1096 LINE",
"472 728 LINE",
"124 728 LINE",
"124 492 LINE",
"472 492 LINE",
"472 124 LINE",
"728 124 LINE {name = hr00;}"
);
}
);
vertWidth = 1560;
width = 1200;
},
{
layerId = master02;
paths = (
{
closed = 1;
nodes = (
"676 542 LINE",
"1076 542 LINE",
"1076 678 LINE",
"676 678 LINE",
"676 1096 LINE",
"524 1096 LINE",
"524 678 LINE",
"124 678 LINE",
"124 542 LINE",
"524 542 LINE",
"524 124 LINE",
"676 124 LINE {name = hr00;}"
);
}
);
vertWidth = 1560;
width = 1200;
}
);
unicode = 002B;
},
{
glyphname = minus;
layers = (
{
layerId = master01;
paths = (
{
closed = 1;
nodes = (
"1076 728 LINE",
"124 728 LINE",
"124 492 LINE",
"1076 492 LINE {name = hr00;}"
);
}
);
vertWidth = 1560;
width = 1200;
},
{
layerId = master02;
paths = (
{
closed = 1;
nodes = (
"1076 678 LINE",
"124 678 LINE",
"124 542 LINE",
"1076 542 LINE {name = hr00;}"
);
}
);
vertWidth = 1560;
width = 1200;
}
);
unicode = 2212;
},
{
glyphname = plusminus;
layers = (
{
layerId = master01;
paths = (
{
closed = 1;
nodes = (
"728 700 LINE",
"1076 700 LINE",
"1076 936 LINE",
"728 936 LINE",
"728 1268 LINE",
"472 1268 LINE",
"472 936 LINE",
"124 936 LINE",
"124 700 LINE",
"472 700 LINE",
"472 368 LINE",
"728 368 LINE {name = hr00;}"
);
},
{
closed = 1;
nodes = (
"1076 238 LINE",
"124 238 LINE",
"124 0 LINE",
"1076 0 LINE"
);
}
);
vertWidth = 1560;
width = 1200;
},
{
layerId = master02;
paths = (
{
closed = 1;
nodes = (
"676 702 LINE",
"1076 702 LINE",
"1076 838 LINE",
"676 838 LINE",
"676 1236 LINE",
"524 1236 LINE",
"524 838 LINE",
"124 838 LINE",
"124 702 LINE",
"524 702 LINE",
"524 304 LINE",
"676 304 LINE {name = hr00;}"
);
},
{
closed = 1;
nodes = (
"1076 136 LINE",
"124 136 LINE",
"124 0 LINE",
"1076 0 LINE"
);
}
);
vertWidth = 1560;
width = 1200;
}
);
unicode = 00B1;
},
{
glyphname = multiply;
layers = (
{
layerId = master01;
paths = (
{
closed = 1;
nodes = (
"1060 320 LINE",
"770 610 LINE",
"1060 900 LINE",
"890 1070 LINE",
"600 780 LINE",
"310 1070 LINE",
"140 900 LINE",
"430 610 LINE",
"140 320 LINE",
"310 150 LINE",
"600 440 LINE",
"890 150 LINE {name = hr00;}"
);
}
);
vertWidth = 1560;
width = 1200;
},
{
layerId = master02;
paths = (
{
closed = 1;
nodes = (
"1024 284 LINE",
"698 610 LINE",
"1024 936 LINE",
"926 1034 LINE",
"600 708 LINE",
"274 1034 LINE",
"176 936 LINE",
"502 610 LINE",
"176 284 LINE",
"274 186 LINE",
"600 512 LINE",
"926 186 LINE {name = hr00;}"
);
}
);
vertWidth = 1560;
width = 1200;
}
);
unicode = 00D7;
},
{
glyphname = divide;
layers = (
{
layerId = master01;
paths = (
{
closed = 1;
nodes = (
"1076 728 LINE",
"124 728 LINE",
"124 492 LINE",
"1076 492 LINE {name = hr00;}"
);
},
{
closed = 1;
nodes = (
"726 58 OFFCURVE",
"776 118 OFFCURVE",
"776 196 CURVE SMOOTH",
"776 244 LINE SMOOTH",
"776 320 OFFCURVE",
"726 382 OFFCURVE",
"600 382 CURVE SMOOTH",
"474 382 OFFCURVE",
"424 320 OFFCURVE",
"424 244 CURVE SMOOTH",
"424 196 LINE SMOOTH",
"424 118 OFFCURVE",
"474 58 OFFCURVE",
"600 58 CURVE SMOOTH"
);
},
{
closed = 1;
nodes = (
"726 838 OFFCURVE",
"776 900 OFFCURVE",
"776 976 CURVE SMOOTH",
"776 1024 LINE SMOOTH",
"776 1102 OFFCURVE",
"726 1162 OFFCURVE",
"600 1162 CURVE SMOOTH",
"474 1162 OFFCURVE",
"424 1102 OFFCURVE",
"424 1024 CURVE SMOOTH",
"424 976 LINE SMOOTH",
"424 900 OFFCURVE",
"474 838 OFFCURVE",
"600 838 CURVE SMOOTH"
);
}
);
vertWidth = 1560;
width = 1200;
},
{
layerId = master02;
paths = (
{
closed = 1;
nodes = (
"1076 678 LINE",
"124 678 LINE",
"124 542 LINE",
"1076 542 LINE {name = hr00;}"
);
},
{
closed = 1;
nodes = (
"692 104 OFFCURVE",
"724 146 OFFCURVE",
"724 200 CURVE SMOOTH",
"724 244 LINE SMOOTH",
"724 298 OFFCURVE",
"692 340 OFFCURVE",
"600 340 CURVE SMOOTH",
"508 340 OFFCURVE",
"476 298 OFFCURVE",
"476 244 CURVE SMOOTH",
"476 200 LINE SMOOTH",
"476 146 OFFCURVE",
"508 104 OFFCURVE",
"600 104 CURVE SMOOTH"
);
},
{
closed = 1;
nodes = (
"692 880 OFFCURVE",
"724 922 OFFCURVE",
"724 976 CURVE SMOOTH",
"724 1020 LINE SMOOTH",
"724 1074 OFFCURVE",
"692 1116 OFFCURVE",
"600 1116 CURVE SMOOTH",
"508 1116 OFFCURVE",
"476 1074 OFFCURVE",
"476 1020 CURVE SMOOTH",
"476 976 LINE SMOOTH",
"476 922 OFFCURVE",
"508 880 OFFCURVE",
"600 880 CURVE SMOOTH"
);
}
);
vertWidth = 1560;
width = 1200;
}
);
unicode = 00F7;
},
{
color = (153,169,255,255);
glyphname = equal;
layers = (
{
guideLines = (
{
position = "{0, 958}";
},
{
position = "{0, 262}";
},
{
position = "{0, 498}";
},
{
position = "{0, 722}";
}
);
layerId = master01;
paths = (
{
closed = 1;
nodes = (
"1074 958 LINE",
"126 958 LINE",
"126 722 LINE",
"1074 722 LINE {name = hr00.1;}"
);
},
{
closed = 1;
nodes = (
"1074 498 LINE",
"126 498 LINE",
"126 262 LINE",
"1074 262 LINE"
);
}
);
vertWidth = 1560;
width = 1200;
},
{
guideLines = (
{
position = "{0, 262}";
},
{
position = "{0, 498}";
},
{
position = "{0, 722}";
}
);
layerId = master02;
paths = (
{
closed = 1;
nodes = (
"1074 880 LINE",
"126 880 LINE",
"126 744 LINE",
"1074 744 LINE {name = hr00.1;}"
);
},
{
closed = 1;
nodes = (
"1074 480 LINE",
"126 480 LINE",
"126 344 LINE",
"1074 344 LINE"
);
}
);
vertWidth = 1560;
width = 1200;
}
);
unicode = 003D;
},
{
glyphname = notequal;
layers = (
{
layerId = master01;
paths = (
{
closed = 1;
nodes = (
"538 262 LINE",
"1076 262 LINE",
"1076 498 LINE",
"654 498 LINE",
"780 722 LINE",
"1076 722 LINE",
"1076 958 LINE",
"914 958 LINE",
"1018 1148 LINE",
"766 1148 LINE",
"662 958 LINE",
"124 958 LINE",
"124 722 LINE",
"546 722 LINE",
"420 498 LINE",
"124 498 LINE",
"124 262 LINE",
"286 262 LINE",
"182 72 LINE",
"434 72 LINE {name = hr00;}"
);
}
);
vertWidth = 1560;
width = 1200;
},
{
layerId = master02;
paths = (
{
closed = 1;
nodes = (
"526 344 LINE",
"1076 344 LINE",
"1076 480 LINE",
"600 480 LINE",
"742 744 LINE",
"1076 744 LINE",
"1076 880 LINE",
"816 880 LINE",
"926 1080 LINE",
"782 1080 LINE",
"674 880 LINE",
"124 880 LINE",
"124 744 LINE",
"600 744 LINE",
"458 480 LINE",
"124 480 LINE",
"124 344 LINE",
"384 344 LINE",
"274 144 LINE",
"418 144 LINE {name = hr00;}"
);
}
);
vertWidth = 1560;
width = 1200;
}
);
unicode = 2260;
},
{
glyphname = less;
layers = (
{
layerId = master01;
paths = (
{
closed = 1;
nodes = (
"1030 288 LINE",
"436 602 LINE",
"436 618 LINE",
"1030 932 LINE",
"1030 1208 LINE",
"170 748 LINE",
"170 472 LINE",
"1030 12 LINE {name = hr00;}"
);
}
);
vertWidth = 1560;
width = 1200;
},
{
layerId = master02;
paths = (
{
closed = 1;
nodes = (
"1030 202 LINE",
"320 604 LINE",
"320 620 LINE",
"1030 1022 LINE",
"1030 1188 LINE",
"170 690 LINE",
"170 530 LINE",
"1030 32 LINE {name = hr00;}"
);
}
);
vertWidth = 1560;
width = 1200;
}
);
unicode = 003C;
},
{
glyphname = greater;
layers = (
{
layerId = master01;
paths = (
{
closed = 1;
nodes = (
"1030 472 LINE",
"1030 748 LINE",
"170 1208 LINE",
"170 932 LINE",
"764 618 LINE",
"764 602 LINE",
"170 288 LINE",
"170 12 LINE {name = hr00;}"
);
}
);
vertWidth = 1560;
width = 1200;
},
{
layerId = master02;
paths = (
{
closed = 1;
nodes = (
"1030 530 LINE",
"1030 690 LINE",
"170 1188 LINE",
"170 1018 LINE",
"880 616 LINE",
"880 600 LINE",
"170 198 LINE",
"170 32 LINE {name = hr00;}"
);
}
);
vertWidth = 1560;
width = 1200;
}
);
unicode = 003E;
},
{
glyphname = lessequal;
layers = (
{
layerId = master01;
paths = (
{
closed = 1;
nodes = (
"1030 232 LINE",
"170 232 LINE",
"170 0 LINE",
"1030 0 LINE {name = hr00;}"
);
},
{
closed = 1;
nodes = (
"170 876 LINE",
"170 602 LINE",
"1030 288 LINE",
"1030 540 LINE",
"452 732 LINE",
"452 746 LINE",
"1030 942 LINE",
"1030 1190 LINE"
);
}
);
vertWidth = 1560;
width = 1200;
},
{
layerId = master02;
paths = (
{
closed = 1;
nodes = (
"1030 136 LINE",
"170 136 LINE",
"170 0 LINE",
"1030 0 LINE {name = hr00;}"
);
},
{
closed = 1;
nodes = (
"170 802 LINE",
"170 624 LINE",
"1030 242 LINE",
"1030 406 LINE",
"320 708 LINE",
"320 722 LINE",
"1030 1026 LINE",
"1030 1186 LINE"
);
}
);
vertWidth = 1560;
width = 1200;
}
);
unicode = 2264;
},
{
glyphname = greaterequal;
layers = (
{
layerId = master01;
paths = (
{
closed = 1;
nodes = (
"1030 602 LINE",
"1030 876 LINE",
"170 1190 LINE",
"170 946 LINE",
"746 750 LINE",
"746 736 LINE",
"170 544 LINE",
"170 288 LINE {name = hr00;}"
);
},
{
closed = 1;
nodes = (
"1030 0 LINE",
"1030 232 LINE",
"170 232 LINE",
"170 0 LINE"
);
}
);
vertWidth = 1560;
width = 1200;
},
{
layerId = master02;
paths = (
{
closed = 1;
nodes = (
"1030 626 LINE",
"1030 804 LINE",
"170 1186 LINE",
"170 1022 LINE",
"880 720 LINE",
"880 706 LINE",
"170 402 LINE",
"170 242 LINE {name = hr00;}"
);
},
{
closed = 1;
nodes = (
"1030 0 LINE",
"1030 136 LINE",
"170 136 LINE",
"170 0 LINE"
);
}
);
vertWidth = 1560;
width = 1200;
}
);
unicode = 2265;
},
{
glyphname = periodcentered;
layers = (
{
layerId = master01;
paths = (
{
closed = 1;
nodes = (
"750 408 OFFCURVE",
"810 484 OFFCURVE",
"810 574 CURVE SMOOTH",
"810 644 LINE SMOOTH",
"810 734 OFFCURVE",
"750 810 OFFCURVE",
"600 810 CURVE SMOOTH",
"450 810 OFFCURVE",
"390 734 OFFCURVE",
"390 644 CURVE SMOOTH",
"390 574 LINE SMOOTH",
"390 484 OFFCURVE",
"450 408 OFFCURVE",
"600 408 CURVE SMOOTH {name = hr00;}"
);
}
);
vertWidth = 1560;
width = 1200;
},
{
layerId = master02;
paths = (
{
closed = 1;
nodes = (
"708 470 OFFCURVE",
"748 522 OFFCURVE",
"748 590 CURVE SMOOTH",
"748 626 LINE SMOOTH",
"748 694 OFFCURVE",
"708 746 OFFCURVE",
"600 746 CURVE SMOOTH",
"492 746 OFFCURVE",
"452 694 OFFCURVE",
"452 626 CURVE SMOOTH",
"452 590 LINE SMOOTH",
"452 522 OFFCURVE",
"492 470 OFFCURVE",
"600 470 CURVE SMOOTH {name = hr00;}"
);
}
);
vertWidth = 1560;
width = 1200;
}
);
unicode = 00B7;
},
{
glyphname = bullet;
layers = (
{
layerId = master01;
paths = (
{
closed = 1;
nodes = (
"826 312 OFFCURVE",
"908 424 OFFCURVE",
"908 574 CURVE SMOOTH",
"908 642 LINE SMOOTH",
"908 792 OFFCURVE",
"826 904 OFFCURVE",
"600 904 CURVE SMOOTH",
"374 904 OFFCURVE",
"292 792 OFFCURVE",
"292 642 CURVE SMOOTH",
"292 574 LINE SMOOTH",
"292 424 OFFCURVE",
"374 312 OFFCURVE",
"600 312 CURVE SMOOTH {name = hr00;}"
);
}
);
vertWidth = 1560;
width = 1200;
},
{
layerId = master02;
paths = (
{
closed = 1;
nodes = (
"778 372 OFFCURVE",
"844 462 OFFCURVE",
"844 580 CURVE SMOOTH",
"844 636 LINE SMOOTH",
"844 754 OFFCURVE",
"778 844 OFFCURVE",
"600 844 CURVE SMOOTH",
"422 844 OFFCURVE",
"356 754 OFFCURVE",
"356 636 CURVE SMOOTH",
"356 580 LINE SMOOTH",
"356 462 OFFCURVE",
"422 372 OFFCURVE",
"600 372 CURVE SMOOTH {name = hr00;}"
);
}
);
vertWidth = 1560;
width = 1200;
}
);
unicode = 2022;
},
{
glyphname = lozenge;
layers = (
{
layerId = master01;
paths = (
{
closed = 1;
nodes = (
"1144 698 LINE",
"708 1396 LINE",
"492 1396 LINE",
"56 698 LINE",
"492 0 LINE",
"708 0 LINE {name = hr00;}"
);
},
{
closed = 1;
nodes = (
"318 698 LINE",
"594 1150 LINE",
"606 1150 LINE",
"882 698 LINE",
"606 246 LINE",
"594 246 LINE"
);
}
);
vertWidth = 1560;
width = 1200;
},
{
layerId = master02;
paths = (
{
closed = 1;
nodes = (
"1118 698 LINE",
"682 1396 LINE",
"520 1396 LINE",
"84 698 LINE",
"520 0 LINE",
"682 0 LINE {name = hr00;}"
);
},
{
closed = 1;
nodes = (
"252 698 LINE",
"594 1246 LINE",
"608 1246 LINE",
"950 698 LINE",
"608 150 LINE",
"594 150 LINE"
);
}
);
vertWidth = 1560;
width = 1200;
}
);
unicode = 25CA;
},
{
glyphname = logicalnot;
layers = (
{
layerId = master01;
paths = (
{
closed = 1;
nodes = (
"1044 728 LINE",
"124 728 LINE",
"124 492 LINE",
"802 492 LINE",
"802 108 LINE",
"1044 108 LINE {name = hr00;}"
);
}
);
vertWidth = 1560;
width = 1200;
},
{
layerId = master02;
paths = (
{
closed = 1;
nodes = (
"1044 678 LINE",
"124 678 LINE",
"124 542 LINE",
"906 542 LINE",
"906 156 LINE",
"1044 156 LINE {name = hr00;}"
);
}
);
vertWidth = 1560;
width = 1200;
}
);
unicode = 00AC;
},
{
glyphname = radical;
layers = (
{
layerId = master01;
paths = (
{
closed = 1;
nodes = (
"1192 1396 LINE",
"944 1396 LINE",
"726 640 LINE",
"614 210 LINE",
"598 210 LINE",
"494 640 LINE",
"380 1032 LINE",
"30 1032 LINE",
"30 784 LINE",
"190 784 LINE",
"426 0 LINE",
"780 0 LINE {name = hr00;}"
);
}
);
vertWidth = 1560;
width = 1200;
},
{
layerId = master02;
paths = (
{
closed = 1;
nodes = (
"1144 1396 LINE",
"988 1396 LINE",
"790 702 LINE",
"628 134 LINE",
"618 134 LINE",
"464 702 LINE",
"374 1032 LINE",
"48 1032 LINE",
"48 904 LINE",
"252 904 LINE",
"506 0 LINE",
"734 0 LINE {name = hr00;}"
);
}
);
vertWidth = 1560;
width = 1200;
}
);
unicode = 221A;
},
{
glyphname = integral;
layers = (
{
layerId = master01;
paths = (
{
closed = 1;
nodes = (
"406 -400 LINE SMOOTH",
"620 -400 OFFCURVE",
"722 -276 OFFCURVE",
"722 -102 CURVE SMOOTH",
"722 1250 LINE",
"1092 1250 LINE",
"1092 1480 LINE",
"742 1480 LINE SMOOTH",
"526 1480 OFFCURVE",
"426 1356 OFFCURVE",
"426 1182 CURVE SMOOTH",
"426 -170 LINE",
"56 -170 LINE",
"56 -400 LINE {name = hr00;}"
);
}
);
vertWidth = 1560;
width = 1200;
},
{
layerId = master02;
paths = (
{
closed = 1;
nodes = (
"426 -400 LINE SMOOTH",
"582 -400 OFFCURVE",
"654 -302 OFFCURVE",
"654 -164 CURVE SMOOTH",
"654 1342 LINE",
"1078 1342 LINE",
"1078 1480 LINE",
"722 1480 LINE SMOOTH",
"566 1480 OFFCURVE",
"494 1382 OFFCURVE",
"494 1244 CURVE",
"494 -264 LINE",
"70 -264 LINE",
"70 -400 LINE {name = hr00;}"
);
}
);
vertWidth = 1560;
width = 1200;
}
);
unicode = 222B;
},
{
glyphname = infinity;
layers = (
{
layerId = master01;
paths = (
{
closed = 1;
nodes = (
"434 252 OFFCURVE",
"538 330 OFFCURVE",
"560 510 CURVE",
"568 510 LINE",
"628 326 OFFCURVE",
"726 252 OFFCURVE",
"862 252 CURVE SMOOTH",
"1062 252 OFFCURVE",
"1178 384 OFFCURVE",
"1178 610 CURVE SMOOTH",
"1178 836 OFFCURVE",
"1068 968 OFFCURVE",
"878 968 CURVE SMOOTH",
"766 968 OFFCURVE",
"662 890 OFFCURVE",
"640 710 CURVE",
"632 710 LINE",
"572 894 OFFCURVE",
"474 968 OFFCURVE",
"338 968 CURVE SMOOTH",
"138 968 OFFCURVE",
"22 836 OFFCURVE",
"22 610 CURVE SMOOTH",
"22 384 OFFCURVE",
"132 252 OFFCURVE",
"322 252 CURVE SMOOTH {name = hr00;}"
);
},
{
closed = 1;
nodes = (
"294 456 OFFCURVE",
"254 506 OFFCURVE",
"254 596 CURVE SMOOTH",
"254 624 LINE SMOOTH",
"254 714 OFFCURVE",
"294 764 OFFCURVE",
"348 764 CURVE SMOOTH",
"434 764 OFFCURVE",
"478 678 OFFCURVE",
"512 586 CURVE",
"486 518 OFFCURVE",
"434 456 OFFCURVE",
"348 456 CURVE SMOOTH"
);
},
{
closed = 1;
nodes = (
"766 456 OFFCURVE",
"722 542 OFFCURVE",
"688 634 CURVE",
"714 702 OFFCURVE",
"766 764 OFFCURVE",
"852 764 CURVE SMOOTH",
"906 764 OFFCURVE",
"946 714 OFFCURVE",
"946 624 CURVE SMOOTH",
"946 596 LINE SMOOTH",
"946 506 OFFCURVE",
"906 456 OFFCURVE",
"852 456 CURVE SMOOTH"
);
}
);
vertWidth = 1560;
width = 1200;
},
{
layerId = master02;
paths = (
{
closed = 1;
nodes = (
"428 252 OFFCURVE",
"526 342 OFFCURVE",
"560 518 CURVE",
"568 518 LINE",
"626 332 OFFCURVE",
"728 252 OFFCURVE",
"870 252 CURVE SMOOTH",
"1062 252 OFFCURVE",
"1178 384 OFFCURVE",
"1178 610 CURVE SMOOTH",
"1178 836 OFFCURVE",
"1070 968 OFFCURVE",
"884 968 CURVE SMOOTH",
"770 968 OFFCURVE",
"674 878 OFFCURVE",
"640 702 CURVE",
"632 702 LINE",
"574 888 OFFCURVE",
"472 968 OFFCURVE",
"330 968 CURVE SMOOTH",
"138 968 OFFCURVE",
"22 836 OFFCURVE",
"22 610 CURVE SMOOTH",
"22 384 OFFCURVE",
"128 252 OFFCURVE",
"314 252 CURVE SMOOTH {name = hr00;}"
);
},
{
closed = 1;
nodes = (
"236 376 OFFCURVE",
"174 440 OFFCURVE",
"174 556 CURVE SMOOTH",
"174 664 LINE SMOOTH",
"174 780 OFFCURVE",
"236 844 OFFCURVE",
"332 844 CURVE SMOOTH",
"422 844 OFFCURVE",
"496 756 OFFCURVE",
"538 614 CURVE",
"496 468 OFFCURVE",
"422 376 OFFCURVE",
"332 376 CURVE SMOOTH"
);
},
{
closed = 1;
nodes = (
"778 376 OFFCURVE",
"704 464 OFFCURVE",
"662 606 CURVE",
"704 752 OFFCURVE",
"778 844 OFFCURVE",
"868 844 CURVE SMOOTH",
"964 844 OFFCURVE",
"1026 780 OFFCURVE",
"1026 664 CURVE SMOOTH",
"1026 556 LINE SMOOTH",
"1026 440 OFFCURVE",
"964 376 OFFCURVE",
"868 376 CURVE SMOOTH"
);
}
);
vertWidth = 1560;
width = 1200;
}
);
unicode = 221E;
},
{
glyphname = estimated;
layers = (
{
layerId = master01;
paths = (
{
closed = 1;
nodes = (
"1148 698 LINE",
"1148 1112 OFFCURVE",
"932 1420 OFFCURVE",
"600 1420 CURVE SMOOTH",
"268 1420 OFFCURVE",
"52 1112 OFFCURVE",
"52 698 CURVE SMOOTH",
"52 284 OFFCURVE",
"268 -24 OFFCURVE",
"600 -24 CURVE SMOOTH",
"852 -24 OFFCURVE",
"1002 124 OFFCURVE",
"1098 302 CURVE",
"994 360 LINE",
"912 202 OFFCURVE",
"796 88 OFFCURVE",
"600 88 CURVE SMOOTH",
"508 88 OFFCURVE",
"418 124 OFFCURVE",
"370 170 CURVE",
"370 698 LINE {name = hr00;}"
);
},
{
closed = 1;
nodes = (
"370 1236 LINE",
"420 1282 OFFCURVE",
"508 1312 OFFCURVE",
"600 1312 CURVE SMOOTH",
"692 1312 OFFCURVE",
"780 1282 OFFCURVE",
"830 1236 CURVE",
"830 802 LINE",
"370 802 LINE"
);
}
);
vertWidth = 1560;
width = 1200;
},
{
layerId = master02;
paths = (
{
closed = 1;
nodes = (
"1148 698 LINE",
"1148 1112 OFFCURVE",
"932 1420 OFFCURVE",
"600 1420 CURVE SMOOTH",
"268 1420 OFFCURVE",
"52 1112 OFFCURVE",
"52 698 CURVE SMOOTH",
"52 284 OFFCURVE",
"268 -24 OFFCURVE",
"600 -24 CURVE SMOOTH",
"848 -24 OFFCURVE",
"998 120 OFFCURVE",
"1092 294 CURVE",
"1010 340 LINE",
"924 182 OFFCURVE",
"804 68 OFFCURVE",
"600 68 CURVE SMOOTH",
"462 68 OFFCURVE",
"354 138 OFFCURVE",
"290 218 CURVE",
"290 698 LINE {name = hr00;}"
);
},
{
closed = 1;
nodes = (
"290 1188 LINE",
"358 1270 OFFCURVE",
"464 1332 OFFCURVE",
"600 1332 CURVE SMOOTH",
"736 1332 OFFCURVE",
"842 1270 OFFCURVE",
"910 1188 CURVE",
"910 778 LINE",
"290 778 LINE"
);
}
);
vertWidth = 1560;
width = 1200;
}
);
unicode = 212E;
},
{
glyphname = litre;
layers = (
{
layerId = master01;
paths = (
{
closed = 1;
nodes = (
"892 -24 OFFCURVE",
"1032 114 OFFCURVE",
"1110 316 CURVE",
"870 438 LINE",
"792 280 OFFCURVE",
"744 232 OFFCURVE",
"664 232 CURVE SMOOTH",
"590 232 OFFCURVE",
"544 274 OFFCURVE",
"544 374 CURVE SMOOTH",
"544 456 LINE",
"848 690 OFFCURVE",
"996 874 OFFCURVE",
"996 1124 CURVE SMOOTH",
"996 1360 OFFCURVE",
"866 1504 OFFCURVE",
"632 1504 CURVE SMOOTH",
"424 1504 OFFCURVE",
"264 1390 OFFCURVE",
"264 1092 CURVE SMOOTH",
"264 604 LINE",
"220 574 OFFCURVE",
"138 516 OFFCURVE",
"64 476 CURVE",
"192 270 LINE",
"210 280 OFFCURVE",
"262 314 OFFCURVE",
"278 324 CURVE",
"278 318 LINE SMOOTH",
"278 106 OFFCURVE",
"450 -24 OFFCURVE",
"668 -24 CURVE SMOOTH {name = hr00;}"
);
},
{
closed = 1;
nodes = (
"688 1242 OFFCURVE",
"724 1206 OFFCURVE",
"724 1120 CURVE SMOOTH",
"724 1100 LINE SMOOTH",
"724 956 OFFCURVE",
"648 850 OFFCURVE",
"544 756 CURVE",
"544 1102 LINE SMOOTH",
"544 1206 OFFCURVE",
"592 1242 OFFCURVE",
"640 1242 CURVE SMOOTH"
);
}
);
vertWidth = 1560;
width = 1200;
},
{
layerId = master02;
paths = (
{
closed = 1;
nodes = (
"842 -24 OFFCURVE",
"958 100 OFFCURVE",
"1020 254 CURVE",
"904 324 LINE",
"830 188 OFFCURVE",
"768 110 OFFCURVE",
"650 110 CURVE SMOOTH",
"540 110 OFFCURVE",
"476 176 OFFCURVE",
"476 356 CURVE SMOOTH",
"476 446 LINE",
"748 686 OFFCURVE",
"896 904 OFFCURVE",
"896 1170 CURVE SMOOTH",
"896 1386 OFFCURVE",
"796 1504 OFFCURVE",
"614 1504 CURVE SMOOTH",
"438 1504 OFFCURVE",
"318 1396 OFFCURVE",
"318 1110 CURVE SMOOTH",
"318 518 LINE",
"262 474 OFFCURVE",
"198 436 OFFCURVE",
"140 400 CURVE",
"206 292 LINE",
"246 316 OFFCURVE",
"280 338 OFFCURVE",
"318 366 CURVE",
"318 318 LINE SMOOTH",
"318 116 OFFCURVE",
"430 -24 OFFCURVE",
"642 -24 CURVE SMOOTH {name = hr00;}"
);
},
{
closed = 1;
nodes = (
"692 1370 OFFCURVE",
"746 1320 OFFCURVE",
"746 1184 CURVE SMOOTH",
"746 1150 LINE SMOOTH",
"746 970 OFFCURVE",
"650 796 OFFCURVE",
"476 618 CURVE",
"476 1124 LINE SMOOTH",
"476 1310 OFFCURVE",
"534 1370 OFFCURVE",
"616 1370 CURVE SMOOTH"
);
}
);
vertWidth = 1560;
width = 1200;
}
);
unicode = 2113;
},
